<?xml version="1.0" encoding="UTF-8" standalone="no"?>
<!DOCTYPE svg PUBLIC "-//W3C//DTD SVG 1.1//EN" "http://www.w3.org/Graphics/SVG/1.1/DTD/svg11.dtd"
[
<!ATTLIST g
  xmlns:vectornator CDATA #FIXED "http://vectornator.io"
  vectornator:layerName CDATA #IMPLIED >
<!ATTLIST g
  xmlns:vectornator CDATA #FIXED "http://vectornator.io"
  vectornator:mask CDATA #IMPLIED >
<!ATTLIST text
  xmlns:vectornator CDATA #FIXED "http://vectornator.io"
  vectornator:width CDATA #IMPLIED >

<!ATTLIST path
  xmlns:vectornator CDATA #FIXED "http://vectornator.io"
  vectornator:blendMode CDATA #IMPLIED >
<!ATTLIST path
  xmlns:vectornator CDATA #FIXED "http://vectornator.io"
  vectornator:shadowColor CDATA #IMPLIED >
<!ATTLIST path
  xmlns:vectornator CDATA #FIXED "http://vectornator.io"
  vectornator:shadowOpacity CDATA #IMPLIED >
<!ATTLIST path
  xmlns:vectornator CDATA #FIXED "http://vectornator.io"
  vectornator:shadowRadius CDATA #IMPLIED >
<!ATTLIST path
  xmlns:vectornator CDATA #FIXED "http://vectornator.io"
  vectornator:shadowOffset CDATA #IMPLIED >
<!ATTLIST path
  xmlns:vectornator CDATA #FIXED "http://vectornator.io"
  vectornator:shadowAngle CDATA #IMPLIED >

<!ATTLIST image
  xmlns:vectornator CDATA #FIXED "http://vectornator.io"
  vectornator:blendMode CDATA #IMPLIED >
<!ATTLIST image
  xmlns:vectornator CDATA #FIXED "http://vectornator.io"
  vectornator:shadowColor CDATA #IMPLIED >
<!ATTLIST image
  xmlns:vectornator CDATA #FIXED "http://vectornator.io"
  vectornator:shadowOpacity CDATA #IMPLIED >
<!ATTLIST image
  xmlns:vectornator CDATA #FIXED "http://vectornator.io"
  vectornator:shadowRadius CDATA #IMPLIED >
<!ATTLIST image
  xmlns:vectornator CDATA #FIXED "http://vectornator.io"
  vectornator:shadowOffset CDATA #IMPLIED >
<!ATTLIST image
  xmlns:vectornator CDATA #FIXED "http://vectornator.io"
  vectornator:shadowAngle CDATA #IMPLIED >

<!ATTLIST g
  xmlns:vectornator CDATA #FIXED "http://vectornator.io"
  vectornator:blendMode CDATA #IMPLIED >
<!ATTLIST g
  xmlns:vectornator CDATA #FIXED "http://vectornator.io"
  vectornator:shadowColor CDATA #IMPLIED >
<!ATTLIST g
  xmlns:vectornator CDATA #FIXED "http://vectornator.io"
  vectornator:shadowOpacity CDATA #IMPLIED >
<!ATTLIST g
  xmlns:vectornator CDATA #FIXED "http://vectornator.io"
  vectornator:shadowRadius CDATA #IMPLIED >
<!ATTLIST g
  xmlns:vectornator CDATA #FIXED "http://vectornator.io"
  vectornator:shadowOffset CDATA #IMPLIED >
<!ATTLIST g
  xmlns:vectornator CDATA #FIXED "http://vectornator.io"
  vectornator:shadowAngle CDATA #IMPLIED >

<!ENTITY % SVG.filter.extra.content  "| feDropShadow" >
<!ELEMENT feDropShadow EMPTY>
<!ATTLIST feDropShadow
  xmlns:svg CDATA #FIXED "http://www.w3.org/Graphics/SVG/1.1/DTD/svg11.dtd"
  dx CDATA #IMPLIED>
<!ATTLIST feDropShadow
  xmlns:svg CDATA #FIXED "http://www.w3.org/Graphics/SVG/1.1/DTD/svg11.dtd"
  dy CDATA #IMPLIED>
<!ATTLIST feDropShadow
  xmlns:svg CDATA #FIXED "http://www.w3.org/Graphics/SVG/1.1/DTD/svg11.dtd"
  stdDeviation CDATA #IMPLIED>
<!ATTLIST feDropShadow
  xmlns:svg CDATA #FIXED "http://www.w3.org/Graphics/SVG/1.1/DTD/svg11.dtd"
  flood-opacity CDATA #IMPLIED>
<!ATTLIST feDropShadow
  xmlns:svg CDATA #FIXED "http://www.w3.org/Graphics/SVG/1.1/DTD/svg11.dtd"
  in CDATA #IMPLIED>
<!ATTLIST feDropShadow
  xmlns:svg CDATA #FIXED "http://www.w3.org/Graphics/SVG/1.1/DTD/svg11.dtd"
  result CDATA #IMPLIED>
<!ATTLIST feDropShadow
  xmlns:svg CDATA #FIXED "http://www.w3.org/Graphics/SVG/1.1/DTD/svg11.dtd"
  flood-color CDATA #IMPLIED>
]
>
<!-- Created with Vectornator (http://vectornator.io/) -->
<svg height="100%" stroke-miterlimit="10" style="fill-rule:nonzero;clip-rule:evenodd;stroke-linecap:round;stroke-linejoin:round;" version="1.1" viewBox="0 0 141.75 141.75" width="100%" xml:space="preserve" xmlns="http://www.w3.org/2000/svg" xmlns:vectornator="http://vectornator.io" xmlns:xlink="http://www.w3.org/1999/xlink">
<defs/>
<g id="Layer-1" vectornator:layerName="Layer 1">
<g opacity="1">
<path d="M70.861 7.38984L67.6512 9.23202L67.6512 50.318L67.6791 50.3459L57.9379 56.012L57.9379 18.5824L54.7002 16.7124L51.4624 18.5824L51.4624 34.3525L44.9869 30.6124L44.9869 26.0628L41.7491 24.1927L38.5393 26.0628L38.5393 42.8656L41.7491 44.7357L44.9869 42.8656L44.9869 38.0927L51.4624 41.8329L51.4624 55.9283L19.1128 37.2554L15.875 39.1254L15.875 42.8656L51.4624 63.4086L51.5741 63.3528L51.5182 74.657L19.1128 55.9283L15.875 57.7984L15.875 61.5385L29.5517 69.4375L23.0762 73.1498L19.1407 70.889L15.9029 72.759L15.9029 76.4713L30.4449 84.8727L33.6827 83.0026L33.6827 79.2904L29.5238 76.89L35.9993 73.1498L48.2247 80.2115L15.875 98.8844L15.875 102.625L19.1128 104.495L54.7002 83.9516L64.4134 89.534L32.0638 108.235L32.0638 111.975L35.3015 113.845L48.9504 105.946L48.9504 113.426L45.0148 115.687L45.0148 119.427L48.2526 121.297L62.7946 112.896L62.7946 109.156L59.5568 107.286L55.4259 109.686L55.4259 102.206L67.6512 95.1442L67.6512 132.49L70.861 134.36L74.0988 132.49L74.0988 91.4041L83.8121 85.8217L83.8121 123.168L87.0498 125.038L90.2876 123.168L90.2876 107.397L96.7631 111.138L96.7631 115.687L99.9729 117.557L103.211 115.687L103.211 98.8844L99.9729 97.0143L96.7631 98.8844L96.7631 103.685L90.2876 99.945L90.2876 85.8217L122.637 104.495L125.875 102.625L125.875 98.8844L90.2876 78.3414L90.2876 67.1488L122.637 85.8217L125.875 83.9516L125.875 80.2115L112.198 72.3125L118.674 68.6002L122.609 70.861L125.847 68.991L125.847 65.2508L111.305 56.8773L108.067 58.7474L108.067 62.4596L112.198 64.86L105.751 68.5723L93.5533 61.5385L125.875 42.8656L125.875 39.1254L122.637 37.2554L87.0498 57.7984L77.3366 52.1881L109.686 33.5152L109.686 29.775L106.448 27.9049L92.7996 35.776L92.7996 28.3236L96.7352 26.0628L96.7352 22.3226L93.4974 20.4525L78.9554 28.8539L78.9554 32.5662L82.1932 34.4363L86.3241 32.0638L86.3241 39.5162L74.0988 46.5779L74.0988 9.23202L70.861 7.38984ZM70.861 55.9283L83.8121 63.4086L83.8121 78.3414L70.861 85.8217L57.9379 78.3414L58.0217 63.4365L70.861 55.9283Z" fill="#547fff" fill-rule="evenodd" opacity="1" stroke="#ffffff" stroke-linecap="round" stroke-linejoin="miter" stroke-width="11"/>
<path d="M70.861 7.38984L67.6512 9.23202L67.6512 50.318L67.6791 50.3459L57.9379 56.012L57.9379 18.5824L54.7002 16.7124L51.4624 18.5824L51.4624 34.3525L44.9869 30.6124L44.9869 26.0628L41.7491 24.1927L38.5393 26.0628L38.5393 42.8656L41.7491 44.7357L44.9869 42.8656L44.9869 38.0927L51.4624 41.8329L51.4624 55.9283L19.1128 37.2554L15.875 39.1254L15.875 42.8656L51.4624 63.4086L51.5741 63.3528L51.5182 74.657L19.1128 55.9283L15.875 57.7984L15.875 61.5385L29.5517 69.4375L23.0762 73.1498L19.1407 70.889L15.9029 72.759L15.9029 76.4713L30.4449 84.8727L33.6827 83.0026L33.6827 79.2904L29.5238 76.89L35.9993 73.1498L48.2247 80.2115L15.875 98.8844L15.875 102.625L19.1128 104.495L54.7002 83.9516L64.4134 89.534L32.0638 108.235L32.0638 111.975L35.3015 113.845L48.9504 105.946L48.9504 113.426L45.0148 115.687L45.0148 119.427L48.2526 121.297L62.7946 112.896L62.7946 109.156L59.5568 107.286L55.4259 109.686L55.4259 102.206L67.6512 95.1442L67.6512 132.49L70.861 134.36L74.0988 132.49L74.0988 91.4041L83.8121 85.8217L83.8121 123.168L87.0498 125.038L90.2876 123.168L90.2876 107.397L96.7631 111.138L96.7631 115.687L99.9729 117.557L103.211 115.687L103.211 98.8844L99.9729 97.0143L96.7631 98.8844L96.7631 103.685L90.2876 99.945L90.2876 85.8217L122.637 104.495L125.875 102.625L125.875 98.8844L90.2876 78.3414L90.2876 67.1488L122.637 85.8217L125.875 83.9516L125.875 80.2115L112.198 72.3125L118.674 68.6002L122.609 70.861L125.847 68.991L125.847 65.2508L111.305 56.8773L108.067 58.7474L108.067 62.4596L112.198 64.86L105.751 68.5723L93.5533 61.5385L125.875 42.8656L125.875 39.1254L122.637 37.2554L87.0498 57.7984L77.3366 52.1881L109.686 33.5152L109.686 29.775L106.448 27.9049L92.7996 35.776L92.7996 28.3236L96.7352 26.0628L96.7352 22.3226L93.4974 20.4525L78.9554 28.8539L78.9554 32.5662L82.1932 34.4363L86.3241 32.0638L86.3241 39.5162L74.0988 46.5779L74.0988 9.23202L70.861 7.38984ZM70.861 55.9283L83.8121 63.4086L83.8121 78.3414L70.861 85.8217L57.9379 78.3414L58.0217 63.4365L70.861 55.9283Z" fill="#54c9ff" fill-rule="evenodd" opacity="1" stroke="none"/>
</g>
</g>
</svg>
