<?xml version="1.0" encoding="UTF-8" standalone="no"?>
<!DOCTYPE svg PUBLIC "-//W3C//DTD SVG 1.1//EN" "http://www.w3.org/Graphics/SVG/1.1/DTD/svg11.dtd"
[
<!ATTLIST g
  xmlns:vectornator CDATA #FIXED "http://vectornator.io"
  vectornator:layerName CDATA #IMPLIED >
<!ATTLIST g
  xmlns:vectornator CDATA #FIXED "http://vectornator.io"
  vectornator:mask CDATA #IMPLIED >
<!ATTLIST text
  xmlns:vectornator CDATA #FIXED "http://vectornator.io"
  vectornator:width CDATA #IMPLIED >

<!ATTLIST path
  xmlns:vectornator CDATA #FIXED "http://vectornator.io"
  vectornator:blendMode CDATA #IMPLIED >
<!ATTLIST path
  xmlns:vectornator CDATA #FIXED "http://vectornator.io"
  vectornator:shadowColor CDATA #IMPLIED >
<!ATTLIST path
  xmlns:vectornator CDATA #FIXED "http://vectornator.io"
  vectornator:shadowOpacity CDATA #IMPLIED >
<!ATTLIST path
  xmlns:vectornator CDATA #FIXED "http://vectornator.io"
  vectornator:shadowRadius CDATA #IMPLIED >
<!ATTLIST path
  xmlns:vectornator CDATA #FIXED "http://vectornator.io"
  vectornator:shadowOffset CDATA #IMPLIED >
<!ATTLIST path
  xmlns:vectornator CDATA #FIXED "http://vectornator.io"
  vectornator:shadowAngle CDATA #IMPLIED >

<!ATTLIST image
  xmlns:vectornator CDATA #FIXED "http://vectornator.io"
  vectornator:blendMode CDATA #IMPLIED >
<!ATTLIST image
  xmlns:vectornator CDATA #FIXED "http://vectornator.io"
  vectornator:shadowColor CDATA #IMPLIED >
<!ATTLIST image
  xmlns:vectornator CDATA #FIXED "http://vectornator.io"
  vectornator:shadowOpacity CDATA #IMPLIED >
<!ATTLIST image
  xmlns:vectornator CDATA #FIXED "http://vectornator.io"
  vectornator:shadowRadius CDATA #IMPLIED >
<!ATTLIST image
  xmlns:vectornator CDATA #FIXED "http://vectornator.io"
  vectornator:shadowOffset CDATA #IMPLIED >
<!ATTLIST image
  xmlns:vectornator CDATA #FIXED "http://vectornator.io"
  vectornator:shadowAngle CDATA #IMPLIED >

<!ATTLIST g
  xmlns:vectornator CDATA #FIXED "http://vectornator.io"
  vectornator:blendMode CDATA #IMPLIED >
<!ATTLIST g
  xmlns:vectornator CDATA #FIXED "http://vectornator.io"
  vectornator:shadowColor CDATA #IMPLIED >
<!ATTLIST g
  xmlns:vectornator CDATA #FIXED "http://vectornator.io"
  vectornator:shadowOpacity CDATA #IMPLIED >
<!ATTLIST g
  xmlns:vectornator CDATA #FIXED "http://vectornator.io"
  vectornator:shadowRadius CDATA #IMPLIED >
<!ATTLIST g
  xmlns:vectornator CDATA #FIXED "http://vectornator.io"
  vectornator:shadowOffset CDATA #IMPLIED >
<!ATTLIST g
  xmlns:vectornator CDATA #FIXED "http://vectornator.io"
  vectornator:shadowAngle CDATA #IMPLIED >

<!ENTITY % SVG.filter.extra.content  "| feDropShadow" >
<!ELEMENT feDropShadow EMPTY>
<!ATTLIST feDropShadow
  xmlns:svg CDATA #FIXED "http://www.w3.org/Graphics/SVG/1.1/DTD/svg11.dtd"
  dx CDATA #IMPLIED>
<!ATTLIST feDropShadow
  xmlns:svg CDATA #FIXED "http://www.w3.org/Graphics/SVG/1.1/DTD/svg11.dtd"
  dy CDATA #IMPLIED>
<!ATTLIST feDropShadow
  xmlns:svg CDATA #FIXED "http://www.w3.org/Graphics/SVG/1.1/DTD/svg11.dtd"
  stdDeviation CDATA #IMPLIED>
<!ATTLIST feDropShadow
  xmlns:svg CDATA #FIXED "http://www.w3.org/Graphics/SVG/1.1/DTD/svg11.dtd"
  flood-opacity CDATA #IMPLIED>
<!ATTLIST feDropShadow
  xmlns:svg CDATA #FIXED "http://www.w3.org/Graphics/SVG/1.1/DTD/svg11.dtd"
  in CDATA #IMPLIED>
<!ATTLIST feDropShadow
  xmlns:svg CDATA #FIXED "http://www.w3.org/Graphics/SVG/1.1/DTD/svg11.dtd"
  result CDATA #IMPLIED>
<!ATTLIST feDropShadow
  xmlns:svg CDATA #FIXED "http://www.w3.org/Graphics/SVG/1.1/DTD/svg11.dtd"
  flood-color CDATA #IMPLIED>
]
>
<!-- Created with Vectornator (http://vectornator.io/) -->
<svg height="100%" stroke-miterlimit="10" style="fill-rule:nonzero;clip-rule:evenodd;stroke-linecap:round;stroke-linejoin:round;" version="1.1" viewBox="0 0 141.75 141.75" width="100%" xml:space="preserve" xmlns="http://www.w3.org/2000/svg" xmlns:vectornator="http://vectornator.io" xmlns:xlink="http://www.w3.org/1999/xlink">
<defs/>
<g id="Layer-1" vectornator:layerName="Layer 1">
<g opacity="1">
<path d="M70.8619 7.39165L67.6521 9.23379L67.6521 50.3192L67.68 50.3471L57.939 56.0131L57.939 18.5841L54.7013 16.714L51.4635 18.5841L51.4635 34.3539L44.9881 30.6138L44.9881 26.0643L41.7504 24.1942L38.5406 26.0643L38.5406 42.8669L41.7504 44.7369L44.9881 42.8669L44.9881 38.094L51.4635 41.8342L51.4635 55.9294L19.1144 37.2567L15.8767 39.1268L15.8767 42.8669L51.4635 63.4096L51.5752 63.3537L51.5194 74.6578L19.1144 55.9294L15.8767 57.7994L15.8767 61.5395L29.5532 69.4384L23.0778 73.1506L19.1423 70.8898L15.9046 72.7598L15.9046 76.472L30.4464 84.8733L33.6841 83.0033L33.6841 79.2911L29.5253 76.8907L36.0007 73.1506L48.2258 80.2122L15.8767 98.8848L15.8767 102.625L19.1144 104.495L54.7013 83.9523L64.4144 89.5345L32.0652 108.235L32.0652 111.975L35.3029 113.845L48.9515 105.946L48.9515 113.427L45.016 115.687L45.016 119.427L48.2538 121.298L62.7955 112.896L62.7955 109.156L59.5578 107.286L55.4269 109.686L55.4269 102.206L67.6521 95.1447L67.6521 132.49L70.8619 134.36L74.0996 132.49L74.0996 91.4046L83.8127 85.8223L83.8127 123.168L87.0504 125.038L90.2881 123.168L90.2881 107.398L96.7635 111.138L96.7635 115.687L99.9733 117.557L103.211 115.687L103.211 98.8848L99.9733 97.0147L96.7635 98.8848L96.7635 103.686L90.2881 99.9454L90.2881 85.8223L122.637 104.495L125.875 102.625L125.875 98.8848L90.2881 78.3421L90.2881 67.1497L122.637 85.8223L125.875 83.9523L125.875 80.2122L112.198 72.3133L118.674 68.6011L122.609 70.8619L125.847 68.9918L125.847 65.2517L111.305 56.8783L108.068 58.7484L108.068 62.4606L112.198 64.861L105.751 68.5732L93.5537 61.5395L125.875 42.8669L125.875 39.1268L122.637 37.2567L87.0504 57.7994L77.3373 52.1892L109.686 33.5166L109.686 29.7765L106.449 27.9064L92.8001 35.7774L92.8001 28.3251L96.7356 26.0643L96.7356 22.3242L93.4979 20.4541L78.9562 28.8554L78.9562 32.5676L82.1939 34.4377L86.3247 32.0652L86.3247 39.5175L74.0996 46.5791L74.0996 9.23379L70.8619 7.39165ZM70.8619 55.9294L83.8127 63.4096L83.8127 78.3421L70.8619 85.8223L57.939 78.3421L58.0227 63.4375L70.8619 55.9294Z" fill="#547fff" fill-rule="evenodd" opacity="1" stroke="#ffffff" stroke-linecap="round" stroke-linejoin="miter" stroke-width="11"/>
<path d="M70.8602 7.38997L67.6504 9.23212L67.6504 50.3175L67.6783 50.3454L57.9373 56.0114L57.9373 18.5824L54.6996 16.7123L51.4619 18.5824L51.4619 34.3523L44.9865 30.6122L44.9865 26.0626L41.7487 24.1926L38.539 26.0626L38.539 42.8652L41.7487 44.7353L44.9865 42.8652L44.9865 38.0924L51.4619 41.8325L51.4619 55.9277L19.1127 37.255L15.875 39.1251L15.875 42.8652L51.4619 63.4079L51.5735 63.3521L51.5177 74.6561L19.1127 55.9277L15.875 57.7977L15.875 61.5378L29.5515 69.4367L23.0761 73.1489L19.1406 70.8881L15.9029 72.7582L15.9029 76.4704L30.4447 84.8717L33.6824 83.0016L33.6824 79.2894L29.5236 76.889L35.999 73.1489L48.2242 80.2105L15.875 98.8831L15.875 102.623L19.1127 104.493L54.6996 83.9506L64.4127 89.5328L32.0635 108.233L32.0635 111.974L35.3012 113.844L48.9499 105.945L48.9499 113.425L45.0144 115.686L45.0144 119.426L48.2521 121.296L62.7938 112.895L62.7938 109.154L59.5561 107.284L55.4253 109.685L55.4253 102.205L67.6504 95.143L67.6504 132.488L70.8602 134.358L74.0979 132.488L74.0979 91.4029L83.811 85.8206L83.811 123.166L87.0487 125.036L90.2865 123.166L90.2865 107.396L96.7619 111.136L96.7619 115.686L99.9717 117.556L103.209 115.686L103.209 98.8831L99.9717 97.0131L96.7619 98.8831L96.7619 103.684L90.2865 99.9438L90.2865 85.8206L122.636 104.493L125.873 102.623L125.873 98.8831L90.2865 78.3404L90.2865 67.148L122.636 85.8206L125.873 83.9506L125.873 80.2105L112.197 72.3116L118.672 68.5994L122.608 70.8602L125.845 68.9902L125.845 65.25L111.304 56.8767L108.066 58.7467L108.066 62.4589L112.197 64.8593L105.749 68.5715L93.5521 61.5378L125.873 42.8652L125.873 39.1251L122.636 37.255L87.0487 57.7977L77.3356 52.1876L109.685 33.5149L109.685 29.7748L106.447 27.9048L92.7985 35.7757L92.7985 28.3234L96.734 26.0626L96.734 22.3225L93.4962 20.4524L78.9545 28.8537L78.9545 32.5659L82.1922 34.436L86.3231 32.0635L86.3231 39.5158L74.0979 46.5774L74.0979 9.23212L70.8602 7.38997ZM70.8602 55.9277L83.811 63.4079L83.811 78.3404L70.8602 85.8206L57.9373 78.3404L58.021 63.4358L70.8602 55.9277Z" fill="#2effb1" fill-rule="evenodd" opacity="1" stroke="none"/>
</g>
</g>
</svg>
