<?xml version="1.0" encoding="UTF-8" standalone="no"?>
<!DOCTYPE svg PUBLIC "-//W3C//DTD SVG 1.1//EN" "http://www.w3.org/Graphics/SVG/1.1/DTD/svg11.dtd">

<!-- Created with Vectornator (http://vectornator.io/) -->
<svg height="100%" stroke-miterlimit="10" style="fill-rule:nonzero;clip-rule:evenodd;stroke-linecap:round;stroke-linejoin:round;" version="1.1" viewBox="0 0 153.09 153.09" width="100%" xml:space="preserve" xmlns="http://www.w3.org/2000/svg" xmlns:vectornator="http://vectornator.io" xmlns:xlink="http://www.w3.org/1999/xlink">
<metadata>
<vectornator:setting key="IsTimeLapseWatermarkDisabled" value="false"/>
<vectornator:setting key="UndoHistoryDisabled" value="true"/>
<vectornator:setting key="VNDimensionsVisible" value="true"/>
<vectornator:setting key="VNSnapToGuides" value="true"/>
<vectornator:setting key="WDCMYKEnabledKey" value="false"/>
<vectornator:setting key="WDDisplayWhiteBackground" value="false"/>
<vectornator:setting key="WDDynamicGuides" value="false"/>
<vectornator:setting key="WDGuidesVisible" value="true"/>
<vectornator:setting key="WDIsolateActiveLayer" value="false"/>
<vectornator:setting key="WDOutlineMode" value="false"/>
<vectornator:setting key="WDRulersVisible" value="true"/>
<vectornator:setting key="WDSnapToEdges" value="false"/>
<vectornator:setting key="WDSnapToGrid" value="true"/>
<vectornator:setting key="WDSnapToPoints" value="false"/>
<vectornator:setting key="WDUnits" value="Centimeters"/>
</metadata>
<defs/>
<g id="Layer-3" vectornator:layerName="Layer 3">
<g opacity="1">
<path d="M142.45 140.185C139.17 139.808 138.519 139.56 137.333 138.944C136.2 138.365 135.111 137.705 134.073 136.971C133.628 136.639 133.111 136.42 132.563 136.333C132.19 136.297 131.816 136.384 131.496 136.581C130.803 136.984 130.31 137.66 130.139 138.444C129.344 141.845 129.109 144.591 124.653 144.585L97.7483 144.585C83.0741 144.591 86.0057 138.118 96.2233 133.546C96.5804 133.4 96.3443 133.052 96.1425 132.9C88.6816 124.047 84.5134 117.714 84.3487 104.1C84.3475 101.638 84.572 99.1812 85.0195 96.7603L85.0195 96.7572C85.9526 91.6701 87.8686 86.8137 90.6602 82.4598L90.6633 82.4536C92.2395 79.9917 94.0765 77.7069 96.1425 75.6388C100.935 71.048 100.926 62.7702 96.1425 58.1608C96.1145 58.1608 96.1145 58.1608 96.1145 58.1328C90.831 54.3558 87.1006 53.9178 84.594 54.3092C84.1871 54.3713 80.0156 55.0484 78.7949 53.8091L78.7844 53.7985C78.0522 53.049 78.1279 51.9393 78.1488 51.7116C78.1522 51.5846 78.1718 51.4586 78.2073 51.3366C80.4293 44.4999 86.3989 40.4873 93.4122 39.7422C93.8462 39.7082 94.2647 39.5662 94.6298 39.3291C98.0454 36.9609 100.931 35.5772 102.114 35.1926C106.114 33.8916 110.784 34.2877 115.502 35.9222C117.791 36.6539 119.899 37.861 121.688 39.4643C123.389 40.9947 124.743 42.8701 125.661 44.9653C126.954 48.0324 126.899 50.8133 126.866 52.532C126.849 53.3569 126.789 54.1804 126.684 54.9988C126.404 57.1818 125.867 58.7872 125.44 60.7582C124.023 67.2888 123.812 72.3976 129.182 88.8916C130.164 91.9089 132.774 97.3966 135.276 104.778C137.356 110.915 137.864 119.989 137.739 127.085C137.689 129.898 138.498 132.164 139.617 134.522C139.889 135.095 140.836 136.448 142.408 136.599C145.333 136.881 145.275 140.51 142.45 140.185Z" fill="#ffffff" fill-rule="evenodd" opacity="1" stroke="#ffffff" stroke-linecap="round" stroke-linejoin="round" stroke-width="6"/>
<path d="M91.074 43.5067C85.7655 43.6378 82.6309 49.4378 82.4429 50.2161C82.388 50.4467 82.3943 50.6876 82.4609 50.9151C82.5406 51.1621 82.7129 51.3686 82.9417 51.4912C83.1393 51.5876 83.3656 51.6071 83.5768 51.5459C83.9409 51.4756 84.1693 51.4115 84.5608 51.353C85.9054 51.1521 89.7334 51.6196 92.9321 52.4768C93.1524 52.5365 93.3874 52.5056 93.5848 52.391C93.7822 52.2764 93.9256 52.0876 93.983 51.8667C94.6599 49.2414 94.7824 44.5485 92.1692 43.6342C91.8156 43.5222 91.4439 43.4789 91.074 43.5067Z" fill="#ffffff" fill-rule="evenodd" opacity="1" stroke="#ffffff" stroke-linecap="round" stroke-linejoin="round" stroke-width="6"/>
<path d="M103.849 45.3435C101.292 45.3136 101.297 41.3851 103.849 41.3716C106.436 41.3797 106.439 45.319 103.849 45.3435Z" fill="#ffffff" fill-rule="evenodd" opacity="1" stroke="#ffffff" stroke-linecap="round" stroke-linejoin="round" stroke-width="6"/>
<path d="M98.0141 80.9886C97.4355 81.7042 96.8358 82.5433 96.8358 82.5433C96.4029 83.149 96.0648 83.6631 95.8387 84.0164L95.8361 84.0217C93.4446 87.7516 91.8032 91.9119 91.0039 96.2699L91.0039 96.2726C90.6206 98.3465 90.4282 100.451 90.4292 102.56C90.4099 106.704 91.1013 110.819 92.4734 114.729C93.7597 118.186 95.6243 121.398 97.9877 124.23C99.7841 126.396 102.173 127.991 104.863 128.819C104.881 128.825 104.899 128.83 104.918 128.836C105.684 129.068 115.005 131.402 119.393 128.02C123.288 125.017 116.076 107.137 113.825 102.66C112.076 99.181 110.212 95.725 109.425 93.601C107.608 88.7006 107.709 84.2256 106.217 78.5471C106.051 77.9124 105.632 77.0012 104.798 76.6754C102.521 75.7857 98.6773 80.1683 98.0141 80.9886Z" fill="#ffffff" fill-rule="evenodd" opacity="1" stroke="#ffffff" stroke-linecap="round" stroke-linejoin="round" stroke-width="6"/>
</g>
<path d="M21.1995 19.4969C12.0827 22.0367 6.66476 31.8884 9.07946 41.4778C11.4942 51.0672 20.83 56.7745 29.9468 54.2346L51.1756 48.3205C51.1756 48.3205 58.1923 57.6947 65.8884 56.6131C60.692 51.0481 60.2129 45.8027 60.2129 45.8027L66.7029 43.9947C75.8197 41.4548 81.2457 31.635 78.831 22.0456C76.4163 12.4562 67.0724 6.71707 57.9555 9.25694L21.1995 19.4969Z" fill="#ffffff" fill-rule="evenodd" opacity="1" stroke="#ffffff" stroke-linecap="round" stroke-linejoin="round" stroke-width="8.7"/>
<g opacity="1">
<path d="M29.4042 39.1004C29.6565 39.0335 29.8888 39.0577 30.101 39.1728C30.3133 39.288 30.4528 39.4717 30.5196 39.724C30.5839 39.9667 30.5523 40.1905 30.4249 40.3956C30.2975 40.6007 30.1076 40.7367 29.8553 40.8035L25.1243 42.0566C24.872 42.1234 24.6384 42.0944 24.4236 41.9696C24.2088 41.8447 24.068 41.6561 24.0011 41.4038L21.7726 32.99C21.7058 32.7376 21.7372 32.5034 21.8669 32.2873C21.9966 32.0712 22.1973 31.9272 22.4691 31.8552C22.702 31.7935 22.9307 31.8238 23.1552 31.9461C23.3797 32.0684 23.5254 32.2557 23.5922 32.508L25.6704 40.3541L25.2846 40.1915L29.4042 39.1004Z" fill="#ffffff" fill-rule="evenodd" opacity="1" stroke="#ffffff" stroke-linecap="round" stroke-linejoin="round" stroke-width="8.7"/>
<path d="M39.0549 38.5227C38.3174 38.718 37.5924 38.7646 36.8799 38.6626C36.1674 38.5605 35.505 38.3335 34.8925 37.9816C34.28 37.6298 33.752 37.1751 33.3083 36.6176C32.8647 36.06 32.5465 35.4173 32.3537 34.6895C32.1609 33.9616 32.1193 33.2457 32.2288 32.5416C32.3383 31.8376 32.572 31.1811 32.93 30.5722C33.288 29.9633 33.7513 29.4382 34.3198 28.9968C34.8883 28.5554 35.5414 28.2371 36.2789 28.0417C36.735 27.9209 37.1894 27.8525 37.6422 27.8364C38.0949 27.8204 38.5264 27.8619 38.9369 27.9609C39.1031 27.9999 39.2399 28.0753 39.3473 28.1871C39.4548 28.2988 39.5266 28.4226 39.5626 28.5585C39.6242 28.7914 39.6019 29.0206 39.4954 29.2461C39.389 29.4716 39.2145 29.6165 38.9719 29.6808C38.8942 29.7013 38.8116 29.7128 38.724 29.7153C38.6363 29.7177 38.5486 29.7098 38.4606 29.6915C38.1897 29.649 37.9107 29.6347 37.6236 29.6484C37.3364 29.6622 37.0424 29.7089 36.7416 29.7886C36.1108 29.9556 35.5776 30.2656 35.1419 30.7185C34.7063 31.1715 34.4056 31.7028 34.24 32.3127C34.0744 32.9226 34.0764 33.5478 34.2461 34.1883C34.4131 34.819 34.7202 35.3608 35.1673 35.8136C35.6143 36.2664 36.1392 36.5817 36.742 36.7596C37.3447 36.9375 37.9615 36.9429 38.5923 36.7758C38.8834 36.6987 39.1959 36.5848 39.5299 36.434C39.8638 36.2833 40.1295 36.1298 40.327 35.9736L40.3117 36.445L39.6524 33.9558L39.9577 34.1086L38.3419 34.5366C38.0896 34.6034 37.8566 34.5768 37.6431 34.4569C37.4296 34.3369 37.2894 34.1507 37.2226 33.8984C37.1558 33.6461 37.1854 33.4149 37.3115 33.205C37.4377 32.995 37.6269 32.8566 37.8792 32.7898L40.2665 32.1575C40.5189 32.0906 40.75 32.1203 40.96 32.2464C41.1699 32.3726 41.3083 32.5618 41.3751 32.8141L42.1925 35.9002C42.2439 36.0942 42.2402 36.2666 42.1815 36.4172C42.1227 36.5677 42.0454 36.6973 41.9495 36.8057C41.575 37.1957 41.1446 37.5408 40.6581 37.841C40.1716 38.1412 39.6372 38.3684 39.0549 38.5227Z" fill="#ffffff" fill-rule="evenodd" opacity="1" stroke="#ffffff" stroke-linecap="round" stroke-linejoin="round" stroke-width="8.7"/>
<path d="M49.3711 35.6345C49.0994 35.7065 48.8537 35.6807 48.634 35.5571C48.4144 35.4335 48.2711 35.2456 48.2043 34.9933L45.9681 26.5503L47.8605 26.0491L50.0967 34.4921C50.1635 34.7444 50.1297 34.9792 49.9951 35.1966C49.8606 35.414 49.6526 35.56 49.3711 35.6345ZM43.8986 27.9708C43.6463 28.0377 43.4146 28.0159 43.2037 27.9056C42.9927 27.7953 42.8538 27.614 42.787 27.3617C42.7202 27.1094 42.7517 26.8855 42.8817 26.6901C43.0117 26.4947 43.2029 26.3636 43.4552 26.2968L49.9184 24.5849C50.1707 24.5181 50.4024 24.5398 50.6133 24.6501C50.8243 24.7604 50.9632 24.9417 51.03 25.194C51.0968 25.4463 51.0653 25.6702 50.9353 25.8656C50.8053 26.061 50.6141 26.1921 50.3618 26.259L43.8986 27.9708Z" fill="#ffffff" fill-rule="evenodd" opacity="1" stroke="#ffffff" stroke-linecap="round" stroke-linejoin="round" stroke-width="8.7"/>
<path d="M55.189 23.1734C55.3249 23.1374 55.4776 23.1359 55.6473 23.1688C55.817 23.2017 55.9561 23.2662 56.0646 23.3621L61.0439 27.8694L60.3083 28.0331L62.4987 21.6579C62.6137 21.347 62.8168 21.1531 63.1079 21.0759C63.3408 21.0143 63.5713 21.0415 63.7994 21.1576C64.0275 21.2738 64.1762 21.4628 64.2456 21.7249L66.478 30.1533C66.5448 30.4056 66.5182 30.6385 66.3982 30.852C66.2782 31.0656 66.0824 31.2083 65.8107 31.2803C65.5389 31.3523 65.2957 31.3258 65.0808 31.201C64.866 31.0761 64.7252 30.8875 64.6584 30.6352L62.8424 23.7789L63.4448 23.7596L61.6743 29.0733C61.6153 29.2032 61.5305 29.3243 61.42 29.4366C61.3096 29.549 61.1852 29.6183 61.0467 29.6446C60.9231 29.6877 60.7856 29.6878 60.634 29.6448C60.4824 29.6019 60.3488 29.5386 60.2332 29.455L56.2885 25.7953L56.4626 24.9235L58.4135 32.2893C58.4803 32.5416 58.4586 32.7732 58.3483 32.9842C58.238 33.1951 58.0567 33.334 57.8044 33.4008C57.5618 33.4651 57.3403 33.4329 57.1401 33.3042C56.9398 33.1755 56.8063 32.985 56.7395 32.7326L54.5071 24.3042C54.4428 24.0616 54.4773 23.8292 54.6106 23.607C54.7439 23.3847 54.9367 23.2402 55.189 23.1734Z" fill="#ffffff" fill-rule="evenodd" opacity="1" stroke="#ffffff" stroke-linecap="round" stroke-linejoin="round" stroke-width="8.7"/>
</g>
</g>
<g id="Layer-1" vectornator:layerName="Layer 1">
<g opacity="1">
<path d="M142.45 140.185C139.17 139.808 138.519 139.56 137.333 138.944C136.2 138.365 135.111 137.705 134.073 136.971C133.628 136.639 133.111 136.42 132.563 136.333C132.19 136.297 131.816 136.384 131.496 136.581C130.803 136.984 130.31 137.66 130.139 138.444C129.344 141.845 129.109 144.591 124.653 144.585L97.7483 144.585C83.0741 144.591 86.0057 138.118 96.2233 133.546C96.5804 133.4 96.3443 133.052 96.1425 132.9C88.6816 124.047 84.5134 117.714 84.3487 104.1C84.3475 101.638 84.572 99.1812 85.0195 96.7603L85.0195 96.7572C85.9526 91.6701 87.8686 86.8137 90.6602 82.4598L90.6633 82.4536C92.2395 79.9917 94.0765 77.7069 96.1425 75.6388C100.935 71.048 100.926 62.7702 96.1425 58.1608C96.1145 58.1608 96.1145 58.1608 96.1145 58.1328C90.831 54.3558 87.1006 53.9178 84.594 54.3092C84.1871 54.3713 80.0156 55.0484 78.7949 53.8091L78.7844 53.7985C78.0522 53.049 78.1279 51.9393 78.1488 51.7116C78.1522 51.5846 78.1718 51.4586 78.2073 51.3366C80.4293 44.4999 86.3989 40.4873 93.4122 39.7422C93.8462 39.7082 94.2647 39.5662 94.6298 39.3291C98.0454 36.9609 100.931 35.5772 102.114 35.1926C106.114 33.8916 110.784 34.2877 115.502 35.9222C117.791 36.6539 119.899 37.861 121.688 39.4643C123.389 40.9947 124.743 42.8701 125.661 44.9653C126.954 48.0324 126.899 50.8133 126.866 52.532C126.849 53.3569 126.789 54.1804 126.684 54.9988C126.404 57.1818 125.867 58.7872 125.44 60.7582C124.023 67.2888 123.812 72.3976 129.182 88.8916C130.164 91.9089 132.774 97.3966 135.276 104.778C137.356 110.915 137.864 119.989 137.739 127.085C137.689 129.898 138.498 132.164 139.617 134.522C139.889 135.095 140.836 136.448 142.408 136.599C145.333 136.881 145.275 140.51 142.45 140.185Z" fill="#4242db" fill-rule="evenodd" opacity="1" stroke="none"/>
<path d="M91.074 43.5067C85.7655 43.6378 82.6309 49.4378 82.4429 50.2161C82.388 50.4467 82.3943 50.6876 82.4609 50.9151C82.5406 51.1621 82.7129 51.3686 82.9417 51.4912C83.1393 51.5876 83.3656 51.6071 83.5768 51.5459C83.9409 51.4756 84.1693 51.4115 84.5608 51.353C85.9054 51.1521 89.7334 51.6196 92.9321 52.4768C93.1524 52.5365 93.3874 52.5056 93.5848 52.391C93.7822 52.2764 93.9256 52.0876 93.983 51.8667C94.6599 49.2414 94.7824 44.5485 92.1692 43.6342C91.8156 43.5222 91.4439 43.4789 91.074 43.5067Z" fill="#cccc33" fill-rule="evenodd" opacity="1" stroke="none"/>
<path d="M103.849 45.3435C101.292 45.3136 101.297 41.3851 103.849 41.3716C106.436 41.3797 106.439 45.319 103.849 45.3435Z" fill="#ffffff" fill-rule="evenodd" opacity="1" stroke="none"/>
<path d="M98.0141 80.9886C97.4355 81.7042 96.8358 82.5433 96.8358 82.5433C96.4029 83.149 96.0648 83.6631 95.8387 84.0164L95.8361 84.0217C93.4446 87.7516 91.8032 91.9119 91.0039 96.2699L91.0039 96.2726C90.6206 98.3465 90.4282 100.451 90.4292 102.56C90.4099 106.704 91.1013 110.819 92.4734 114.729C93.7597 118.186 95.6243 121.398 97.9877 124.23C99.7841 126.396 102.173 127.991 104.863 128.819C104.881 128.825 104.899 128.83 104.918 128.836C105.684 129.068 115.005 131.402 119.393 128.02C123.288 125.017 116.076 107.137 113.825 102.66C112.076 99.181 110.212 95.725 109.425 93.601C107.608 88.7006 107.709 84.2256 106.217 78.5471C106.051 77.9124 105.632 77.0012 104.798 76.6754C102.521 75.7857 98.6773 80.1683 98.0141 80.9886Z" fill="#ffffff" fill-rule="evenodd" opacity="1" stroke="none"/>
</g>
</g>
<g id="Layer-2" vectornator:layerName="Layer 2">
<path d="M21.6132 19.363C12.4964 21.9028 7.07846 31.7545 9.49317 41.3439C11.9079 50.9333 21.2437 56.6406 30.3605 54.1007L51.5893 48.1866C51.5893 48.1866 58.606 57.5608 66.3021 56.4792C61.1057 50.9142 60.6266 45.6688 60.6266 45.6688L67.1166 43.8608C76.2334 41.3209 81.6594 31.5011 79.2447 21.9117C76.83 12.3223 67.4861 6.58318 58.3693 9.12305L21.6132 19.363Z" fill="#ffffff" fill-rule="evenodd" opacity="1" stroke="#4242db" stroke-linecap="round" stroke-linejoin="round" stroke-width="2.4"/>
<path d="M29.8179 38.9665C30.0702 38.8997 30.3025 38.9238 30.5147 39.039C30.727 39.1541 30.8665 39.3378 30.9333 39.5901C30.9976 39.8328 30.966 40.0566 30.8386 40.2617C30.7112 40.4668 30.5213 40.6028 30.269 40.6696L25.538 41.9227C25.2857 41.9895 25.0521 41.9605 24.8373 41.8357C24.6225 41.7108 24.4817 41.5222 24.4148 41.2699L22.1863 32.8561C22.1195 32.6037 22.1509 32.3695 22.2806 32.1534C22.4103 31.9373 22.6111 31.7933 22.8828 31.7213C23.1157 31.6596 23.3444 31.6899 23.5689 31.8122C23.7934 31.9345 23.9391 32.1218 24.0059 32.3741L26.0841 40.2202L25.6983 40.0576L29.8179 38.9665Z" fill="#4242db" fill-rule="evenodd" opacity="1" stroke="#4242db" stroke-linecap="round" stroke-linejoin="round" stroke-width="0.3"/>
<path d="M39.4686 38.3888C38.7311 38.5841 38.0061 38.6307 37.2936 38.5287C36.5811 38.4266 35.9187 38.1996 35.3062 37.8478C34.6937 37.4959 34.1657 37.0412 33.722 36.4837C33.2784 35.9261 32.9602 35.2834 32.7674 34.5556C32.5746 33.8277 32.533 33.1118 32.6425 32.4077C32.752 31.7037 32.9857 31.0472 33.3437 30.4383C33.7017 29.8294 34.165 29.3043 34.7335 28.8629C35.302 28.4216 35.9551 28.1032 36.6926 27.9078C37.1487 27.787 37.6032 27.7186 38.0559 27.7026C38.5086 27.6865 38.9402 27.728 39.3506 27.827C39.5168 27.866 39.6536 27.9414 39.761 28.0532C39.8685 28.1649 39.9403 28.2887 39.9763 28.4246C40.0379 28.6575 40.0156 28.8867 39.9091 29.1122C39.8027 29.3377 39.6282 29.4826 39.3856 29.5469C39.3079 29.5674 39.2253 29.5789 39.1377 29.5814C39.05 29.5838 38.9623 29.5759 38.8743 29.5576C38.6035 29.5152 38.3244 29.5008 38.0373 29.5145C37.7501 29.5283 37.4561 29.575 37.1553 29.6547C36.5245 29.8217 35.9913 30.1317 35.5556 30.5846C35.12 31.0376 34.8193 31.5689 34.6537 32.1788C34.4881 32.7887 34.4901 33.4139 34.6598 34.0544C34.8268 34.6852 35.1339 35.2269 35.581 35.6797C36.028 36.1325 36.5529 36.4479 37.1557 36.6257C37.7584 36.8036 38.3752 36.809 39.006 36.6419C39.2971 36.5648 39.6096 36.4509 39.9436 36.3001C40.2775 36.1494 40.5432 35.9959 40.7407 35.8398L40.7254 36.3112L40.0661 33.8219L40.3714 33.9747L38.7556 34.4027C38.5033 34.4695 38.2704 34.443 38.0568 34.323C37.8433 34.203 37.7031 34.0168 37.6363 33.7645C37.5695 33.5122 37.5991 33.281 37.7252 33.0711C37.8514 32.8611 38.0406 32.7227 38.2929 32.6559L40.6802 32.0236C40.9326 31.9568 41.1637 31.9864 41.3737 32.1125C41.5836 32.2387 41.722 32.4279 41.7888 32.6802L42.6062 35.7663C42.6576 35.9604 42.6539 36.1327 42.5952 36.2833C42.5364 36.4338 42.4591 36.5634 42.3632 36.6719C41.9887 37.0618 41.5583 37.4069 41.0718 37.7071C40.5853 38.0073 40.0509 38.2345 39.4686 38.3888Z" fill="#4242db" fill-rule="evenodd" opacity="1" stroke="#4242db" stroke-linecap="round" stroke-linejoin="round" stroke-width="0.3"/>
<path d="M50.3438 24.4375L43.875 26.1562C43.6227 26.2231 43.4112 26.3671 43.2812 26.5625C43.1513 26.7579 43.1207 26.9664 43.1875 27.2188C43.2543 27.4711 43.414 27.671 43.625 27.7812C43.836 27.8915 44.0602 27.9106 44.3125 27.8438L46.5938 27.25L48.625 34.875C48.6918 35.1273 48.8428 35.3139 49.0625 35.4375C49.2822 35.5611 49.5095 35.572 49.7812 35.5C50.0627 35.4255 50.2717 35.2799 50.4062 35.0625C50.5408 34.8451 50.5668 34.5961 50.5 34.3438L48.5 26.7188L50.7812 26.125C51.0336 26.0582 51.2138 25.9142 51.3438 25.7188C51.4737 25.5233 51.5043 25.3148 51.4375 25.0625C51.3707 24.8102 51.2422 24.6415 51.0312 24.5312C50.8203 24.421 50.5961 24.3707 50.3438 24.4375Z" fill="#4242db" fill-rule="evenodd" opacity="1" stroke="#4242db" stroke-linecap="round" stroke-linejoin="round" stroke-width="0.3"/>
<path d="M55.6027 23.0395C55.7386 23.0035 55.8913 23.002 56.061 23.0349C56.2307 23.0679 56.3698 23.1323 56.4783 23.2282L61.4576 27.7355L60.722 27.8992L62.9124 21.524C63.0274 21.2131 63.2305 21.0192 63.5216 20.9421C63.7545 20.8804 63.985 20.9076 64.2131 21.0237C64.4412 21.1399 64.5899 21.329 64.6593 21.591L66.8917 30.0194C66.9585 30.2717 66.9319 30.5046 66.8119 30.7181C66.6919 30.9317 66.4961 31.0744 66.2244 31.1464C65.9526 31.2184 65.7094 31.1919 65.4946 31.0671C65.2797 30.9422 65.1389 30.7536 65.0721 30.5013L63.2561 23.6451L63.8585 23.6257L62.088 28.9394C62.029 29.0693 61.9442 29.1904 61.8337 29.3027C61.7233 29.4151 61.5989 29.4844 61.4604 29.5107C61.3368 29.5538 61.1993 29.5539 61.0477 29.5109C60.8961 29.468 60.7625 29.4047 60.6469 29.3211L56.7022 25.6614L56.8763 24.7896L58.8272 32.1554C58.894 32.4077 58.8723 32.6393 58.762 32.8503C58.6517 33.0612 58.4704 33.2001 58.2181 33.267C57.9755 33.3312 57.7541 33.299 57.5538 33.1703C57.3535 33.0416 57.22 32.8511 57.1532 32.5988L54.9208 24.1703C54.8565 23.9277 54.891 23.6953 55.0243 23.4731C55.1576 23.2508 55.3504 23.1063 55.6027 23.0395Z" fill="#4242db" fill-rule="evenodd" opacity="1" stroke="#4242db" stroke-linecap="round" stroke-linejoin="round" stroke-width="0.3"/>
</g>
</svg>
