<?xml version="1.0" encoding="utf-8"?>
<!-- Generator: Adobe Illustrator 27.0.0, SVG Export Plug-In . SVG Version: 6.00 Build 0)  -->
<svg version="1.1" id="Layer_1" xmlns:vectornator="http://vectornator.io"
	 xmlns="http://www.w3.org/2000/svg" xmlns:xlink="http://www.w3.org/1999/xlink" x="0px" y="0px" viewBox="0 0 1024 1024"
	 style="enable-background:new 0 0 1024 1024;" xml:space="preserve">
<style type="text/css">
	.st0{fill-rule:evenodd;clip-rule:evenodd;fill:#4242DB;}
	.st1{fill-rule:evenodd;clip-rule:evenodd;fill:#CCCC33;}
	.st2{fill-rule:evenodd;clip-rule:evenodd;fill:#FFFFFF;}
</style>
<g id="Layer-1" vectornator:layerName="Layer 1">
	<path class="st0" d="M484.3,32c-11.7,0-21.8,8.5-23.7,20.1l-14.7,88.4c-21.5,3.8-42.5,9.4-62.6,16.7L326.5,88
		c-7.4-9.1-20.4-11.4-30.5-5.5l-47.9,27.7c-10.2,5.9-14.6,18.2-10.5,29.2l31.4,84c-16.5,13.9-31.8,29.2-45.7,45.8l-84-31.4
		c-10.9-4.1-23.3,0.3-29.2,10.5l-27.7,47.9C76.6,306.1,79,319,88,326.5l69.1,56.9c-7.3,20.1-12.9,41-16.7,62.6l-88.4,14.7
		c-11.6,2-20.1,12-20.1,23.7v55.3c0,11.7,8.5,21.8,20.1,23.7l88.4,14.7c3.8,21.5,9.4,42.5,16.7,62.6L88,697.5
		c-9.1,7.4-11.4,20.4-5.5,30.5l27.7,47.9c5.9,10.2,18.2,14.6,29.2,10.5l84-31.4c13.9,16.5,29.2,31.8,45.8,45.7l-31.4,83.9
		c-4.1,11,0.3,23.3,10.5,29.2l47.9,27.7c10.2,5.9,23.1,3.5,30.5-5.5l41.2-50.1c-32-42.7-49.9-82.9-50.8-153.4c0-1.4,0.1-2.7,0.1-4.1
		c-59.1-53.3-96.3-130.5-96.3-216.4c0-160.9,130.4-291.3,291.3-291.3c160.9,0,291.3,130.4,291.3,291.3c0,84.5-36,160.6-93.5,213.8
		c12,39.2,15.1,94.4,14.3,138c-0.3,18,4.9,32.5,12,47.7c1.7,3.7,7.8,12.3,17.9,13.3c0.8,0.1,1.4,0.3,2.1,0.5l19.8-11.4
		c10.2-5.9,14.6-18.2,10.5-29.2l-31.4-84c16.5-13.9,31.8-29.2,45.7-45.8l83.9,31.4c11,4.1,23.3-0.3,29.2-10.5l27.7-47.9
		c5.9-10.2,3.5-23.1-5.5-30.5l-69.1-56.9c7.3-20.1,12.9-41,16.7-62.6l88.4-14.7c11.6-2,20.1-12,20.1-23.7v-55.3
		c0-11.7-8.5-21.8-20.1-23.7l-88.4-14.7c-3.8-21.5-9.4-42.5-16.7-62.6l69.1-56.9c9.1-7.4,11.4-20.4,5.5-30.5l-27.7-47.9
		c-5.9-10.2-18.2-14.6-29.2-10.5l-84,31.4c-13.9-16.5-29.2-31.8-45.8-45.7l31.4-83.9c4.1-11-0.3-23.3-10.5-29.2l-47.9-27.7
		c-10.2-5.9-23.1-3.5-30.5,5.5l-56.9,69.1c-20.1-7.3-41-12.9-62.6-16.7l-14.7-88.4c-2-11.6-12-20.1-23.7-20.1H484.3z"/>
</g>
<g id="Layer-2" vectornator:layerName="Layer 2">
	<g>
		<path class="st0" d="M722.3,963.8c-21-2.4-25.2-4-32.8-8c-7.3-3.7-14.2-7.9-20.9-12.6c-2.8-2.1-6.2-3.5-9.7-4.1
			c-2.4-0.2-4.8,0.3-6.8,1.6c-4.4,2.6-7.6,6.9-8.7,11.9c-5.1,21.8-6.6,39.4-35.2,39.4H435.8c-94.1,0-75.3-41.5-9.8-70.8
			c2.3-0.9,0.8-3.2-0.5-4.1c-47.8-56.7-74.5-97.3-75.6-184.6c0-15.8,1.4-31.5,4.3-47v0c6-32.6,18.3-63.7,36.2-91.6l0,0
			c10.1-15.8,21.9-30.4,35.1-43.7c30.7-29.4,30.7-82.5,0-112c-0.2,0-0.2,0-0.2-0.2c-33.9-24.2-57.8-27-73.8-24.5
			c-2.6,0.4-29.3,4.7-37.2-3.2l-0.1-0.1c-4.7-4.8-4.2-11.9-4.1-13.4c0-0.8,0.1-1.6,0.4-2.4c14.2-43.8,52.5-69.5,97.5-74.3
			c2.8-0.2,5.5-1.1,7.8-2.6c21.9-15.2,40.4-24,48-26.5c25.6-8.3,55.6-5.8,85.8,4.7c14.7,4.7,28.2,12.4,39.6,22.7
			c10.9,9.8,19.6,21.8,25.5,35.3c8.3,19.7,7.9,37.5,7.7,48.5c-0.1,5.3-0.5,10.6-1.2,15.8c-1.8,14-5.2,24.3-8,36.9
			c-9.1,41.9-10.4,74.6,24,180.3c6.3,19.3,23,54.5,39.1,101.8c13.3,39.3,16.6,97.5,15.8,143c-0.3,18,4.9,32.6,12,47.7
			c1.7,3.7,7.8,12.3,17.9,13.3C740.8,942.6,740.4,965.9,722.3,963.8z"/>
		<path class="st1" d="M393,344.1c-34,0.8-54.1,38-55.3,43c-0.4,1.5-0.3,3,0.1,4.5c0.5,1.6,1.6,2.9,3.1,3.7c1.3,0.6,2.7,0.7,4.1,0.3
			c2.3-0.4,3.8-0.9,6.3-1.2c8.6-1.3,33.2,1.7,53.7,7.2c1.4,0.4,2.9,0.2,4.2-0.6c1.3-0.7,2.2-1.9,2.6-3.4
			c4.3-16.8,5.1-46.9-11.6-52.8C397.8,344.2,395.4,344,393,344.1z"/>
		<path class="st2" d="M476.9,359.9c-16.4-0.2-16.4-25.4,0-25.5C493.5,334.5,493.5,359.8,476.9,359.9z"/>
		<path class="st2" d="M437.5,584.4c-3.7,4.6-7.6,10-7.6,10c-2.8,3.9-4.9,7.2-6.4,9.4l0,0c-15.3,23.9-25.8,50.6-31,78.5v0
			c-2.5,13.3-3.7,26.8-3.7,40.3c-0.1,26.6,4.3,52.9,13.1,78c8.2,22.2,20.2,42.7,35.3,60.9c11.5,13.9,26.8,24.1,44.1,29.4
			c0.1,0,0.2,0.1,0.4,0.1c4.9,1.5,64.7,16.4,92.8-5.2c25-19.2-21.3-133.8-35.7-162.5c-11.2-22.3-23.2-44.5-28.2-58.1
			c-11.6-31.4-11-60.1-20.6-96.5c-1.1-4.1-3.8-9.9-9.1-12C466.4,551,441.8,579.1,437.5,584.4z"/>
	</g>
</g>
</svg>
