<?xml version="1.0" encoding="UTF-8" standalone="no"?>
<!DOCTYPE svg PUBLIC "-//W3C//DTD SVG 1.1//EN" "http://www.w3.org/Graphics/SVG/1.1/DTD/svg11.dtd">
<!-- Created with Vectornator (http://vectornator.io/) -->
<svg height="100%" stroke-miterlimit="10" style="fill-rule:nonzero;clip-rule:evenodd;stroke-linecap:round;stroke-linejoin:round;" version="1.1" viewBox="0 0 1024 1024" width="100%" xml:space="preserve" xmlns="http://www.w3.org/2000/svg" xmlns:xlink="http://www.w3.org/1999/xlink">
<defs/>
<g id="Layer-1">
<path d="M688.656 694.312C701.536 694.312 713.216 696.343 723.719 700.406C734.222 704.47 742.457 710.464 748.438 718.438L720.625 743.531C717.558 739.085 713.384 735.365 708.094 732.375C702.804 729.385 696.095 727.875 687.969 727.875C679.995 727.875 672.573 729.564 665.75 732.938C658.927 736.311 653.046 740.875 648.062 746.625C643.079 752.375 639.149 759.035 636.312 766.625C633.476 774.215 632.063 782.223 632.062 790.656C632.062 796.636 633.004 802.207 634.844 807.344C636.684 812.48 639.445 816.931 643.125 820.688C646.805 824.444 651.321 827.368 656.688 829.438C662.054 831.508 668.194 832.531 675.094 832.531C679.694 832.378 683.934 831.94 687.844 831.25C691.754 830.56 695.408 829.374 698.781 827.688L704.062 797.125L672.312 797.125L678.062 765.594L745 765.594L730.062 851.625C721.782 855.918 712.444 859.362 702.094 861.969C691.744 864.575 681.071 865.875 670.031 865.875C658.378 865.875 647.74 864.234 638.156 860.938C628.573 857.641 620.403 852.915 613.656 846.781C606.91 840.648 601.663 833.209 597.906 824.469C596.028 820.099 594.624 815.469 593.688 810.562C593.812 809.899 593.977 809.262 594.094 808.594C594.094 808.594 600.169 773.678 605.438 743.406C609.434 736.178 614.14 729.532 619.75 723.625C628.413 714.502 638.614 707.338 650.344 702.125C662.074 696.912 674.856 694.313 688.656 694.312ZM312.375 698.656L350.781 698.656L327.781 828.156L376.344 828.156C377.567 836.882 379.91 845.28 383.656 853.156C384.464 854.855 385.463 856.433 386.375 858.062L385.75 861.5L283.625 861.5L312.375 698.656ZM434.375 698.656L472.344 698.656L454.875 797.344C454.568 798.877 454.358 800.469 454.281 802.156C454.205 803.843 454.156 805.401 454.156 806.781C454.156 810.155 454.66 813.371 455.656 816.438C456.653 819.504 458.228 822.217 460.375 824.594C462.522 826.97 465.348 828.839 468.875 830.219C472.402 831.599 476.625 832.312 481.531 832.312C487.971 832.312 493.315 831.257 497.531 829.188C501.748 827.117 505.192 824.453 507.875 821.156C510.558 817.86 512.589 814.157 513.969 810.094C515.349 806.03 516.421 801.953 517.188 797.812L534.906 698.656L572.625 698.656L567.125 730.312C565.407 733.821 563.766 737.371 562.312 741.062C555.617 758.066 552.281 776.133 552.281 795.031C552.281 799.614 552.56 804.11 553.031 808.531C551.361 815.475 549.294 822.082 546.406 828.031C542.573 835.928 537.554 842.636 531.344 848.156C525.134 853.676 517.712 857.996 509.125 861.062C500.538 864.129 490.662 865.656 479.469 865.656C469.655 865.656 460.803 864.471 452.906 862.094C445.01 859.717 438.253 856.339 432.656 851.969C431.257 850.876 429.955 849.714 428.719 848.5L431.094 835.219C433.774 820.272 427.732 806.162 417.031 797.344L434.375 698.656Z" fill="#ffffff" fill-rule="nonzero" opacity="1" stroke="none"/>
<g opacity="1">
<path d="M283.63 861.507L312.38 698.667L350.79 698.667L327.79 828.157L391.73 828.157L385.75 861.507L283.63 861.507Z" fill="#000000" fill-rule="nonzero" opacity="1" stroke="none"/>
<path d="M554.68 801.707C552.993 811.367 550.233 820.146 546.4 828.042C542.567 835.939 537.545 842.647 531.335 848.167C525.125 853.687 517.727 857.981 509.14 861.047C500.553 864.114 490.663 865.647 479.47 865.647C469.657 865.647 460.802 864.459 452.905 862.082C445.008 859.706 438.262 856.332 432.665 851.962C427.068 847.592 422.775 842.264 419.785 835.977C416.795 829.691 415.3 822.637 415.3 814.817C415.3 812.671 415.415 810.371 415.645 807.917C415.875 805.464 416.143 803.087 416.45 800.787L434.39 698.667L472.34 698.667L454.86 797.337C454.553 798.871 454.362 800.481 454.285 802.167C454.208 803.854 454.17 805.387 454.17 806.767C454.17 810.141 454.668 813.361 455.665 816.427C456.662 819.494 458.233 822.216 460.38 824.592C462.527 826.969 465.363 828.847 468.89 830.227C472.417 831.607 476.633 832.297 481.54 832.297C487.98 832.297 493.308 831.262 497.525 829.192C501.742 827.122 505.192 824.439 507.875 821.142C510.558 817.846 512.59 814.166 513.97 810.102C515.35 806.039 516.423 801.937 517.19 797.797L534.9 698.667L572.62 698.667L554.68 801.707Z" fill="#000000" fill-rule="nonzero" opacity="1" stroke="none"/>
<path d="M675.08 832.527C679.68 832.374 683.935 831.952 687.845 831.262C691.755 830.572 695.397 829.384 698.77 827.697L704.06 797.107L672.32 797.107L678.07 765.597L745 765.597L730.05 851.617C721.77 855.911 712.455 859.361 702.105 861.967C691.755 864.574 681.06 865.877 670.02 865.877C658.367 865.877 647.748 864.229 638.165 860.932C628.582 857.636 620.417 852.921 613.67 846.787C606.923 840.654 601.672 833.217 597.915 824.477C594.158 815.737 592.28 805.924 592.28 795.037C592.28 781.084 594.695 767.974 599.525 755.707C604.355 743.441 611.102 732.746 619.765 723.622C628.428 714.499 638.625 707.331 650.355 702.117C662.085 696.904 674.85 694.297 688.65 694.297C701.53 694.297 713.222 696.329 723.725 700.392C734.228 704.456 742.47 710.474 748.45 718.447L720.62 743.517C717.553 739.071 713.375 735.352 708.085 732.362C702.795 729.372 696.087 727.877 687.96 727.877C679.987 727.877 672.588 729.564 665.765 732.937C658.942 736.311 653.038 740.872 648.055 746.622C643.072 752.372 639.162 759.042 636.325 766.632C633.488 774.222 632.07 782.234 632.07 790.667C632.07 796.647 632.99 802.206 634.83 807.342C636.67 812.479 639.43 816.926 643.11 820.682C646.79 824.439 651.313 827.352 656.68 829.422C662.047 831.492 668.18 832.527 675.08 832.527Z" fill="#000000" fill-rule="nonzero" opacity="1" stroke="none"/>
</g>
<path d="M484.312 14C463.794 14 446.236 28.8751 442.875 49.125L430.188 125.25C416.286 128.164 402.651 131.769 389.344 136.094L340.375 76.5938C327.354 60.7165 304.71 56.6079 286.906 66.9375L239.062 94.5625C221.274 104.799 213.504 126.445 220.75 145.656L247.812 217.938C237.356 227.344 227.434 237.343 218 247.844L145.625 220.75C126.458 213.52 104.814 221.279 94.5625 239.094L66.9062 286.938C56.5936 304.712 60.7224 327.333 76.625 340.375L136.094 389.344C131.769 402.651 128.164 416.285 125.25 430.188L49.0938 442.875C28.8057 446.326 14 463.813 14 484.344L14 539.688C14 560.206 28.8751 577.764 49.125 581.125L125.25 593.812C128.164 607.714 131.769 621.349 136.094 634.656L76.5938 683.625C60.7382 696.628 56.6618 719.229 66.9062 737.031L94.5625 784.938C104.799 802.726 126.446 810.495 145.656 803.25L218.156 776.094C226.526 785.402 238.904 798.63 251.75 812.125L259.531 767.938C249.408 757.145 240.649 747.633 237.062 743.375C232.156 737.551 224.1 735.455 216.969 738.125L133 769.562C130.266 770.593 127.202 769.492 125.75 766.969L98.0938 719.062C96.6281 716.516 97.1946 713.277 99.4375 711.438L168.562 654.562C174.447 649.719 176.66 641.696 174.062 634.531C167.145 615.452 161.82 595.52 158.188 574.969C156.86 567.458 150.962 561.596 143.438 560.344L55.0312 545.625C52.1544 545.147 50 542.611 50 539.688L50 484.344C50 481.391 52.1469 478.876 55.0938 478.375L143.438 463.656C150.962 462.404 156.86 456.542 158.188 449.031C161.82 428.48 167.145 408.548 174.062 389.469C176.66 382.304 174.447 374.281 168.562 369.438L99.4688 312.562C97.1826 310.688 96.5967 307.495 98.0625 304.969L125.75 257.062C127.217 254.513 130.276 253.422 132.969 254.438L217 285.875C224.131 288.544 232.188 286.448 237.094 280.625C250.396 264.836 264.946 250.271 280.625 237.062C286.449 232.156 288.545 224.1 285.875 216.969L254.438 133C253.406 130.266 254.507 127.202 257.031 125.75L304.938 98.0938C307.493 96.6109 310.708 97.1767 312.562 99.4375L369.438 168.562C374.281 174.447 382.304 176.66 389.469 174.062C408.548 167.145 428.48 161.82 449.031 158.188C456.542 156.86 462.403 150.962 463.656 143.438L478.375 55.0312C478.853 52.1544 481.389 50 484.312 50C484.745 50 539.224 50 539.656 50C542.609 50 545.124 52.1469 545.625 55.0938L560.344 143.438C561.596 150.962 567.458 156.86 574.969 158.188C595.52 161.82 615.452 167.145 634.531 174.062C641.695 176.66 649.719 174.444 654.562 168.562L711.438 99.5C713.292 97.2509 716.544 96.6574 719.094 98.125L766.938 125.781C769.471 127.246 770.585 130.31 769.562 133.031L738.125 217C735.454 224.132 737.551 232.187 743.375 237.094C759.164 250.396 773.729 264.946 786.938 280.625C791.844 286.449 799.9 288.545 807.031 285.875L891 254.438C893.734 253.406 896.798 254.508 898.25 257.031L925.906 304.938C927.372 307.484 926.805 310.723 924.562 312.562L855.438 369.438C849.553 374.281 847.34 382.304 849.938 389.469C856.855 408.548 862.18 428.48 865.812 449.031C867.14 456.542 873.039 462.403 880.562 463.656L968.969 478.375C971.846 478.853 974 481.389 974 484.312L974 539.656C974 542.609 971.853 545.124 968.906 545.625L880.562 560.344C873.038 561.596 867.14 567.457 865.812 574.969C862.181 595.518 856.856 615.45 849.938 634.531C847.34 641.695 849.556 649.719 855.438 654.562L924.5 711.438C926.749 713.292 927.343 716.543 925.875 719.094L898.219 766.938C896.754 769.471 893.69 770.585 890.969 769.562L807 738.125C799.868 735.454 791.844 737.551 786.938 743.375C785.143 745.505 783.22 747.513 781.375 749.594C784.488 756.495 785.822 764.294 784.406 772.438L779.062 803.125C788.413 794.539 797.483 785.636 806 776.156L878.312 803.25C897.519 810.463 919.14 802.691 929.406 784.938L957.062 737.062C967.309 719.257 963.186 696.691 947.375 683.656L887.906 634.656C892.231 621.348 895.836 607.714 898.75 593.812L974.906 581.125C995.194 577.674 1010 560.187 1010 539.656L1010 484.312C1010 463.794 995.125 446.236 974.875 442.875L898.75 430.188C895.836 416.286 892.231 402.651 887.906 389.344L947.406 340.375C963.261 327.372 967.337 304.771 957.094 286.969L929.438 239.062C919.201 221.274 897.555 213.504 878.344 220.75L806.062 247.812C796.656 237.356 786.657 227.434 776.156 218L803.25 145.688C810.463 126.481 802.692 104.859 784.938 94.5938L737.062 66.9375C719.257 56.6907 696.692 60.8148 683.656 76.625L634.656 136.094C621.349 131.769 607.714 128.164 593.812 125.25L581.125 49.0938C577.674 28.8057 560.187 14 539.656 14C539.224 14 484.745 14 484.312 14ZM512 202.688C341.173 202.688 202.688 341.173 202.688 512C202.688 583.237 227.074 650.655 270.656 705L273 691.719C274.745 681.833 280.091 673.407 287.469 667.5C256.034 622.319 238.688 568.545 238.688 512C238.688 361.056 361.056 238.688 512 238.688C662.944 238.687 785.313 361.056 785.312 512C785.312 566.914 768.947 619.212 739.188 663.562C750.767 668.18 760.935 674.613 769.594 682.656C802.911 632.663 821.312 573.79 821.312 512C821.313 341.173 682.827 202.688 512 202.688ZM493.719 267.938C481.448 268.195 469.716 270.08 458.719 273.656C447.277 277.378 427.43 287.957 407.906 301.406C407.865 301.41 407.822 301.402 407.781 301.406C355.088 307.004 312.88 338.12 297.156 386.5C297.098 386.679 297.053 386.85 297 387.031C296.448 388.93 296.253 390.844 296.125 392.75L296 392.75C295.973 393.048 295.99 393.385 295.969 393.688C295.966 393.771 295.94 393.854 295.938 393.938L295.969 393.938C295.797 396.634 295.834 399.508 296.406 402.812C297.506 409.159 300.186 415.134 305.031 420.094L305.156 420.188C305.188 420.22 305.218 420.25 305.25 420.281C309.567 424.622 314.91 427.159 321.094 428.625C325.327 429.629 329.929 430.098 334.906 430.188C340.166 430.282 345.583 429.964 351 429.344C352.412 429.182 353.733 428.992 355 428.812C355.471 428.746 357.156 428.49 357.094 428.5C372.054 426.164 390.433 431.255 414.906 448.469C436.965 470.454 436.823 510.029 414.375 531.531C414.28 531.623 414.187 531.719 414.094 531.812C400.213 545.707 387.865 561.031 377.281 577.562C377.231 577.642 377.205 577.733 377.156 577.812C361.22 602.713 349.58 630.04 342.594 658.656L350.781 658.656C361.047 658.656 370.146 662.628 377.156 668.844C383.162 643.414 393.435 619.145 407.594 597.062C407.632 597.003 407.65 596.935 407.688 596.875C416.785 582.685 427.349 569.485 439.25 557.531L439.531 557.25C476.334 521.673 476.547 459.071 440.312 422.969C440.302 422.958 440.292 422.948 440.281 422.938C440.262 422.915 440.238 422.897 440.219 422.875C439.903 422.561 439.634 422.216 439.312 421.906C438.974 421.58 438.579 421.328 438.219 421.031C437.84 420.71 437.533 420.323 437.125 420.031C404.689 396.843 376.62 389.03 351.594 392.938C351.673 392.925 350.292 393.137 349.938 393.188C348.979 393.324 347.98 393.44 346.906 393.562C342.94 394.017 339.036 394.281 335.562 394.219C334.377 394.197 333.718 394.026 332.75 393.938C344.777 361.849 373.866 341.227 411.594 337.219L411.594 337.188C417.129 336.672 422.489 334.843 427.156 331.812C427.309 331.713 427.444 331.604 427.594 331.5C444.713 319.63 461.964 310.47 469.844 307.906C477.386 305.453 485.632 304.123 494.469 303.938C509.206 303.628 525.418 306.47 542.375 312.344C542.511 312.391 542.675 312.456 542.812 312.5C554.761 316.321 565.76 322.606 575.094 330.969C583.769 338.778 590.706 348.381 595.438 359.094C595.47 359.167 595.499 359.24 595.531 359.312C600.793 371.888 601.928 382.156 601.594 399.219C601.506 403.658 601.181 408.162 600.594 412.75C599.789 419.026 598.708 424.148 596.469 433.094C596.306 433.743 595.751 435.997 595.719 436.125C594.509 440.945 593.77 443.938 593.031 447.344C587.36 473.496 585.803 492.524 588.5 517.875C591.522 546.281 600.29 581.922 617 633.25C619.387 640.58 620.895 644.452 630.312 667.531C631.604 666.905 632.806 666.149 634.125 665.562C643.885 661.225 654.13 658.295 664.719 656.469C654.449 631.312 653.347 628.566 651.25 622.125C635.249 572.975 627.021 539.522 624.312 514.062C622.062 492.913 623.306 477.625 628.219 454.969C628.855 452.034 629.503 449.347 630.625 444.875C630.654 444.76 631.208 442.479 631.375 441.812C633.93 431.605 635.256 425.312 636.281 417.312C637.03 411.461 637.48 405.659 637.594 399.906C637.783 390.262 637.662 384.631 636.812 377C635.6 366.103 633.026 355.534 628.625 345.094C628.592 345.016 628.565 344.952 628.531 344.875C621.744 329.386 611.695 315.502 599.125 304.188C586.097 292.514 570.795 283.722 554.188 278.344C554.146 278.329 554.104 278.327 554.062 278.312C553.956 278.278 553.857 278.222 553.75 278.188L553.75 278.219C533.098 271.114 512.823 267.536 493.719 267.938ZM415.156 888.469C410.899 893.106 405.536 896.575 399.594 898.812C400.171 899.532 400.63 900.147 401.219 900.875C374.268 915.87 357.117 933.252 355.625 951.812C354.346 967.726 364.201 980.122 380.656 986.969C393.895 992.477 412.57 995.135 436.906 995.125L605.719 995.125C622.365 995.147 635.054 990.165 643.719 979.656C650.06 971.965 652.736 964.453 656.031 949.906C656.1 949.604 656.524 947.681 656.969 945.719C663.389 950.106 670.032 954.15 676.938 957.688C676.982 957.711 677.018 957.727 677.062 957.75C687.604 963.216 694.539 964.988 715.312 967.375C733.873 969.508 748.724 957.048 748.75 939.688C748.774 923.755 736.211 910.767 718.812 909.094C718.169 909.032 716.381 907.384 715.844 906.25C714.844 904.143 714.121 902.292 713.281 900.344C712.805 900.468 712.354 900.629 711.875 900.75C700.403 903.64 688.628 905.241 676.625 905.688C678.234 910.079 680.132 914.582 682.312 919.312C680.032 917.885 677.77 916.46 675.562 914.906C675.446 914.824 675.335 914.739 675.219 914.656C670.179 910.98 664.352 908.55 658.188 907.562C657.805 907.501 657.417 907.474 657.031 907.438C650.943 906.862 644.845 908.255 639.594 911.375L639.562 911.344C639.491 911.385 639.446 911.458 639.375 911.5C639.327 911.529 639.267 911.533 639.219 911.562L639.219 911.594C630.78 916.641 624.797 924.907 622.625 934.5C622.624 934.503 622.594 934.497 622.594 934.5C622.587 934.529 622.571 934.653 622.562 934.688C622.557 934.71 622.536 934.727 622.531 934.75C622.203 936.168 621.018 941.447 620.906 941.938C618.84 951.059 617.487 954.901 615.938 956.781C614.755 958.216 612.389 959.134 605.75 959.125L436.906 959.125C416.895 959.133 402.553 957.082 394.469 953.719C393.349 953.253 393.311 953.076 392.688 952.719C392.729 952.656 392.737 952.627 392.781 952.562C394.368 950.246 396.931 947.488 400.438 944.531C408.446 937.778 420.277 930.73 434.688 924.281L434.656 924.219C443.732 920.213 448.175 910.691 445.812 901.5C444.335 901.118 442.825 900.811 441.375 900.375C431.837 897.505 423.08 893.535 415.156 888.469Z" fill="#000000" fill-rule="nonzero" opacity="1" stroke="none"/>
</g>
</svg>
