<?xml version="1.0" encoding="utf-8"?>
<!-- Generator: Adobe Illustrator 27.0.0, SVG Export Plug-In . SVG Version: 6.00 Build 0)  -->
<svg version="1.1" id="Layer_1" xmlns="http://www.w3.org/2000/svg" xmlns:xlink="http://www.w3.org/1999/xlink" x="0px" y="0px"
	 viewBox="0 0 1024 1024" style="enable-background:new 0 0 1024 1024;" xml:space="preserve">
<style type="text/css">
	.st0{clip-path:url(#SVGID_00000124873098909466440640000007284653063491853734_);}
	.st1{clip-path:url(#SVGID_00000012445086953698810110000010775675958798311592_);}
</style>
<g>
	<defs>
		<path id="SVGID_1_" d="M413.2,793.4c7.1-7.6,12.7-16.5,16.7-26.7c4-10.2,5.9-21.1,5.9-32.8c0-9.2-1.5-17.6-4.6-25.1
			c-3.1-7.5-7.4-14-13.1-19.3c-5.7-5.3-12.7-9.4-20.9-12.3c-8.2-2.9-17.6-4.3-28-4.3c-11.9,0-22.9,2.2-32.8,6.5
			c-9.9,4.4-18.5,10.3-25.8,17.9c-7.3,7.6-12.9,16.5-16.9,26.7c-4,10.2-6,21.1-6,32.8c0,9.2,1.5,17.6,4.6,25.1
			c3.1,7.5,7.5,14,13.2,19.3c5.8,5.3,12.8,9.4,21.1,12.3c8.3,2.9,17.7,4.3,28.2,4.3c11.9,0,22.9-2.2,32.8-6.5
			C397.5,806.9,406,801,413.2,793.4z M375.7,784.2c-5.6,2.9-12,4.4-19.2,4.4c-5.7,0-10.7-0.9-15.1-2.7c-4.4-1.8-8-4.3-11-7.4
			c-3-3.1-5.3-6.8-6.8-11c-1.6-4.2-2.3-8.7-2.3-13.5c0-6.6,1.1-13.1,3.2-19.3c2.1-6.2,5.2-11.8,9.2-16.7c4-4.9,8.8-8.8,14.4-11.8
			c5.6-3,12-4.5,19-4.5c5.6,0,10.6,0.9,15,2.7c4.4,1.8,8.1,4.3,11,7.4c2.9,3.1,5.2,6.8,6.7,11c1.6,4.2,2.3,8.7,2.3,13.5
			c0,6.6-1,13.1-3.1,19.4c-2.1,6.3-5.1,11.9-9,16.8C386.1,777.4,381.3,781.3,375.7,784.2z M508.7,708.1c-1.4,2.1-2,4.6-2,7.6
			c0,3.9,1.5,7,4.6,9.3c3.1,2.3,7.3,4.4,12.8,6.3c6,2.1,11.3,4.4,16,6.9c4.7,2.5,8.6,5.4,11.9,8.7c3.2,3.2,5.7,6.9,7.4,11
			c1.7,4.1,2.5,8.7,2.5,13.9c0,8.3-1.7,15.4-5.2,21.2c-3.4,5.8-7.9,10.6-13.3,14.3c-5.5,3.7-11.6,6.4-18.3,8.1
			c-6.8,1.7-13.4,2.5-20.1,2.5c-4.9,0-9.9-0.5-14.8-1.4c-4.9-0.9-9.7-2.2-14.2-4c-4.5-1.8-8.8-4-12.7-6.7c-3.9-2.7-7.2-5.8-9.9-9.4
			l24-19.5c2.7,4.2,6.8,7.5,12.1,10.1c5.3,2.6,10.7,3.9,16.2,3.9c2.9,0,5.6-0.3,8.3-0.9s5-1.6,7.1-2.9c2.1-1.4,3.7-3.1,5-5.3
			c1.2-2.1,1.9-4.7,1.9-7.7c0-4.8-1.9-8.6-5.8-11.4c-3.9-2.8-9.1-5.3-15.6-7.5c-4.5-1.6-8.8-3.3-12.8-5.3c-4-1.9-7.4-4.3-10.3-7.2
			c-2.9-2.9-5.3-6.3-7-10.2c-1.8-4-2.6-8.7-2.6-14.3c0-7,1.5-13.3,4.4-19c2.9-5.6,6.9-10.5,12-14.4c5.1-4,11-7,17.7-9.2
			c6.8-2.1,14-3.2,21.6-3.2c4,0,8.1,0.4,12.3,1.2c4.2,0.8,8.1,1.9,12,3.4c3.8,1.5,7.4,3.3,10.6,5.6c3.2,2.2,6,4.7,8.2,7.6l-22,19.5
			c-2.6-3.5-5.8-6.2-9.7-8c-3.9-1.8-8.2-2.7-13.1-2.7c-2.2,0-4.5,0.3-7,0.9c-2.5,0.6-4.7,1.6-6.7,2.9
			C511.7,704.4,510.1,706.1,508.7,708.1z M660.9,676.4l-87.9,137.9h37l16.6-27.5h53.2l4.7,27.5h34.1l-26.1-137.9H660.9z
			 M640.5,760.7l28.8-48.9l7.2,48.9H640.5z M933.8,494.8v46.9c0,17.4-12.5,32.2-29.7,35.1l-64.5,10.7c-2.5,11.8-5.5,23.3-9.2,34.6
			l50.4,41.5c13.4,11,16.9,30.2,8.2,45.2l-23.4,40.5c-8.7,15-27,21.6-43.3,15.5L761,742c-8,8.9-16.6,17.3-25.5,25.3l-6.7-35.7
			c5.5-5.6,11-11.4,16.1-17.4c4.2-4.9,11-6.7,17-4.4l71.1,26.6c2.3,0.9,4.9-0.1,6.1-2.2l23.4-40.5c1.2-2.2,0.7-4.9-1.2-6.5
			L802.9,639c-5-4.1-6.9-10.9-4.7-17c5.9-16.2,10.4-33,13.4-50.4c1.1-6.4,6.1-11.3,12.5-12.4l74.8-12.5c2.5-0.4,4.3-2.6,4.3-5.1
			v-46.9c0-2.5-1.8-4.6-4.3-5l-74.9-12.5c-6.4-1.1-11.4-6-12.5-12.4c-3.1-17.4-7.6-34.3-13.4-50.4c-2.2-6.1-0.3-12.9,4.7-17
			l58.5-48.2c1.9-1.6,2.4-4.3,1.1-6.5l-23.4-40.6c-1.2-2.1-3.8-3.1-6.1-2.2l-71.1,26.6c-6,2.3-12.9,0.5-17-4.4
			c-11.2-13.3-23.5-25.6-36.9-36.9c-4.9-4.2-6.7-11-4.4-17l26.6-71.1c0.9-2.3-0.1-4.9-2.2-6.1l-40.5-23.4c-2.2-1.2-4.9-0.7-6.5,1.2
			l-48.2,58.5c-4.1,5-10.9,6.9-17,4.7c-16.2-5.9-33-10.4-50.4-13.4c-6.4-1.1-11.3-6.1-12.4-12.5l-12.5-74.8
			c-0.4-2.5-2.6-4.3-5.1-4.3c-0.4,0-46.5,0-46.9,0c-2.5,0-4.6,1.8-5,4.3l-12.5,74.9c-1.1,6.4-6,11.4-12.4,12.5
			c-17.4,3.1-34.3,7.6-50.4,13.4c-6.1,2.2-12.9,0.3-17-4.7l-48.2-58.5c-1.6-1.9-4.3-2.4-6.5-1.1l-40.6,23.4
			c-2.1,1.2-3.1,3.8-2.2,6.1l26.6,71.1c2.3,6,0.5,12.9-4.4,17c-13.3,11.2-25.6,23.5-36.9,36.9c-4.2,4.9-11,6.7-17,4.4L191,300.2
			c-2.3-0.9-4.9,0.1-6.1,2.2L161.4,343c-1.2,2.1-0.7,4.8,1.2,6.4l58.5,48.2c5,4.1,6.9,10.9,4.7,17c-5.9,16.2-10.4,33-13.4,50.4
			c-1.1,6.4-6.1,11.3-12.5,12.4L125,489.8c-2.5,0.4-4.3,2.6-4.3,5.1v46.9c0,2.5,1.8,4.6,4.3,5l74.9,12.5c6.4,1.1,11.4,6,12.5,12.4
			c3.1,17.4,7.6,34.3,13.4,50.4c2.2,6.1,0.3,12.9-4.7,17l-58.5,48.2c-1.9,1.6-2.4,4.3-1.1,6.5l23.4,40.6c1.2,2.1,3.8,3.1,6.1,2.2
			l71.1-26.6c3.3-1.2,6.8-1.2,10-0.1c-0.8,1.7-1.6,3.3-2.2,5c-3.4,8.7-5.6,17.8-6.8,27.3l-61.4,23c-16.3,6.1-34.6-0.4-43.3-15.5
			L135,708.9c-8.7-15.1-5.2-34.2,8.2-45.2l50.4-41.5c-3.7-11.3-6.7-22.8-9.2-34.6L120,576.8c-17.2-2.8-29.7-17.7-29.7-35.1v-46.9
			c0-17.4,12.5-32.2,29.7-35.1l64.5-10.7c2.5-11.8,5.5-23.3,9.2-34.6l-50.4-41.5c-13.5-11-17-30.2-8.2-45.3l23.4-40.5
			c8.7-15.1,27-21.7,43.2-15.5l61.3,22.9c8-8.9,16.4-17.4,25.2-25.3L265.3,208c-6.1-16.3,0.4-34.6,15.5-43.3l40.5-23.4
			c15.1-8.7,34.3-5.3,45.3,8.2l41.5,50.4c11.3-3.7,22.8-6.7,34.6-9.2l10.7-64.5c2.8-17.2,17.7-29.7,35.1-29.7c0.4,0,46.5,0,46.9,0
			c17.4,0,32.2,12.5,35.1,29.7l10.7,64.5c11.8,2.5,23.3,5.5,34.6,9.2l41.5-50.4c11-13.4,30.2-16.9,45.2-8.2l40.5,23.4
			c15,8.7,21.6,27,15.5,43.3l-22.9,61.2c8.9,8,17.4,16.4,25.3,25.2l61.2-22.9c16.3-6.1,34.6,0.4,43.3,15.5l23.4,40.6
			c8.7,15.1,5.2,34.2-8.2,45.2l-50.4,41.5c3.7,11.3,6.7,22.8,9.2,34.6l64.5,10.7C921.2,462.6,933.8,477.5,933.8,494.8z M774,518.3
			c0,59-19.8,114.9-55.2,160.4l-1.3-7c-1.8-9.3-8.4-16.5-17-19.3c27.7-38.7,43-85.2,43-134c0-127.8-103.6-231.5-231.5-231.5
			S280.5,390.5,280.5,518.3c0,50.5,16.3,98.3,45.7,137.8c0,0-0.1,0-0.1,0c-9.5,4.2-18.1,9.6-25.9,16.1
			C268,627.9,250,574.5,250,518.3c0-144.7,117.3-262,262-262S774,373.6,774,518.3z M329,418.3L329,418.3c0-0.1,0-0.1,0-0.2
			c0-0.2,0-0.5,0-0.8h0.1c0.1-1.6,0.3-3.3,0.7-4.9c0-0.2,0.1-0.3,0.2-0.4c13.3-41,49-67.3,93.7-72.1c0,0,0.1,0,0.1,0
			c16.5-11.4,33.4-20.4,43.1-23.5c9-2.9,18.5-4.5,28.5-4.8c16.5-0.5,34,2.5,52,8.7v0c0.1,0,0.2,0.1,0.3,0.1
			c14.1,4.6,27,12,38.1,21.9c10.6,9.6,19.1,21.3,24.9,34.5c0,0.1,0.1,0.1,0.1,0.2c3.7,8.8,5.9,17.8,6.9,27
			c0.7,6.5,0.8,11.2,0.7,19.4c-0.1,4.9-0.5,9.8-1.1,14.7c-0.9,6.8-2,12.1-4.2,20.8c-0.1,0.6-0.6,2.5-0.7,2.6c-0.9,3.8-1.5,6.1-2,8.5
			c-4.2,19.2-5.2,32.1-3.3,50c2.3,21.6,9.3,49.9,22.8,91.5c1.8,5.6,2.6,7.5,11.7,29.9c2.1,5.2,3.7,9.3,5.5,13.8
			c-3,2-5.7,4.4-7.6,7.5l-13.8,21.6c-3.6-9.6-7.4-19.3-12.3-31.4c-9.7-23.6-10.3-25.3-12.5-32c-14.2-43.5-21.6-73.7-24.1-97.7
			c-2.3-21.5-0.9-37.6,3.9-59.7c0.6-2.9,1.2-5.4,2.3-9.5c0-0.1,0.5-2,0.6-2.6c1.9-7.6,2.8-11.9,3.5-17.3c0.5-3.8,0.8-7.6,0.8-11.5
			c0.3-14.5-0.7-23.2-5.1-33.8c0,0,0,0,0,0c-4-9.1-9.9-17.3-17.3-24c-7.9-7.1-17.2-12.4-27.3-15.6c-0.1,0-0.2-0.1-0.3-0.1
			c-14.5-5-28.2-7.4-40.6-7.1c-7.5,0.2-14.5,1.3-20.9,3.3c-6.7,2.2-21.3,10-35.8,20c-0.1,0.1-0.3,0.2-0.4,0.3
			c-4,2.6-8.5,4.1-13.2,4.6v0c-32,3.4-56.6,20.9-66.8,48c0.8,0.1,1.4,0.2,2.4,0.2c2.9,0.1,6.3-0.2,9.6-0.6c0.9-0.1,1.8-0.2,2.6-0.3
			c0.3,0,1.4-0.2,1.4-0.2c21.2-3.3,45,3.3,72.4,23c0.3,0.2,0.5,0.5,0.7,0.7c0.4,0.3,0.8,0.6,1.1,0.9c0.3,0.3,0.5,0.6,0.8,0.9
			c30.7,30.6,30.6,83.6-0.6,113.7l-0.2,0.2c-10,10.1-19,21.2-26.7,33.2c-0.1,0.1-0.1,0.2-0.2,0.3c-11.9,18.6-20.6,39.1-25.7,60.6
			c-9-2.3-18.5-3.5-28.7-3.5c-0.6,0-1.2,0.1-1.7,0.1c5.7-26,15.9-50.9,30.3-73.3c0.1-0.1,0.1-0.2,0.2-0.3c0,0,0,0,0,0
			c9-14,19.4-27,31.2-38.8c0.1-0.1,0.2-0.2,0.2-0.2c19-18.2,19.2-51.7,0.5-70.3c-20.8-14.6-36.4-18.9-49-17c0,0-1.4,0.2-1.8,0.3
			c-1.1,0.2-2.2,0.3-3.4,0.5c-4.6,0.5-9.2,0.8-13.6,0.7c-4.2-0.1-8.1-0.5-11.7-1.3c-5.3-1.2-9.8-3.4-13.5-7.1l-0.1-0.1
			c-4.1-4.2-6.4-9.2-7.3-14.6C328.9,423,328.9,420.6,329,418.3z M712.5,880.6c0,14.7-12.6,25.3-28.3,23.4c-17.6-2-23.4-3.5-32.4-8.2
			c0,0,0,0-0.1-0.1c-5.9-3-11.5-6.4-16.9-10.1c-0.4,1.7-0.7,3.3-0.8,3.5c-2.8,12.3-5.1,18.7-10.4,25.2c-7.3,8.9-18.1,13.1-32.2,13.1
			h-143c-20.6,0-36.5-2.2-47.7-6.9c-13.9-5.8-22.3-16.3-21.2-29.8c1.3-15.7,15.8-30.4,38.6-43.1c-4.8-5.9-9.1-11.5-13-16.8
			c9.1-4.9,17.3-10.9,24.5-18.2c6.1,8.3,13,17,21.9,27.6l-0.1,0.1c1.8,1.9,3.4,4.1,4.3,6.9c2.6,8.1-1.2,16.7-9.2,20.2l0,0
			c-12.2,5.5-22.2,11.4-29,17.2c-3,2.5-5.2,4.8-6.5,6.8c0,0.1,0,0.1-0.1,0.1c0.5,0.3,0.6,0.4,1.5,0.8c6.8,2.8,19,4.6,35.9,4.6h143
			c5.6,0,7.7-0.8,8.7-2c1.3-1.6,2.5-4.8,4.2-12.5c0.1-0.4,1.1-4.9,1.4-6.1c0,0,0,0,0-0.1c0,0,0-0.1,0-0.2c0,0,0,0,0,0
			c1.8-8.1,6.9-15.1,14.1-19.4l0,0c0.1,0,0.1-0.1,0.2-0.1c0,0,0.1-0.1,0.1-0.1v0c4.4-2.6,9.6-3.8,14.8-3.4c0.3,0,0.7,0.1,1,0.1
			c5.2,0.8,10.2,2.9,14.4,6c0.1,0.1,0.2,0.1,0.3,0.2c1.9,1.3,3.8,2.5,5.7,3.7c-7.3-15.9-10.8-28.9-10.6-44.3c0-2.3,0-4.5,0-6.7h12.7
			l1.1,6.3c1.8,10.5,9.9,18.5,20,20.6c1.3,4,3,8.2,5.2,13c0.5,1,2,2.4,2.5,2.4C701.9,856,712.5,867.1,712.5,880.6z"/>
	</defs>
	<clipPath id="SVGID_00000170263367230929553570000004224888030721493137_">
		<use xlink:href="#SVGID_1_"  style="overflow:visible;"/>
	</clipPath>
	<g style="clip-path:url(#SVGID_00000170263367230929553570000004224888030721493137_);">
		<g>
			<defs>
				<circle id="SVGID_00000071520854877818756300000006653423370900018305_" cx="512" cy="512" r="565.1"/>
			</defs>
			<clipPath id="SVGID_00000070094052273930363780000013370610010806752179_">
				<use xlink:href="#SVGID_00000071520854877818756300000006653423370900018305_"  style="overflow:visible;"/>
			</clipPath>
			<g style="clip-path:url(#SVGID_00000070094052273930363780000013370610010806752179_);">
				<g>
					<defs>
						<rect id="SVGID_00000100354819562424798300000003175386148568088718_" x="-58.1" y="-58.1" width="1140.1" height="1140.1"/>
					</defs>
					<clipPath id="SVGID_00000078032549238897270550000015447674360666213044_">
						<use xlink:href="#SVGID_00000100354819562424798300000003175386148568088718_"  style="overflow:visible;"/>
					</clipPath>
					<g style="clip-path:url(#SVGID_00000078032549238897270550000015447674360666213044_);">
						
							<image style="overflow:visible;" width="2376" height="2376" xlink:href="FD6C5D3800046E05.jpg"  transform="matrix(0.48 0 0 0.48 -58.08 -58.4)">
						</image>
					</g>
				</g>
			</g>
		</g>
	</g>
</g>
</svg>
