<?xml version="1.0" encoding="UTF-8"?><svg id="Layer_1" xmlns="http://www.w3.org/2000/svg" viewBox="0 0 1024 1024"><defs><style>.cls-1{stroke-width:0px;}</style></defs><path class="cls-1" d="m456.7415,485.0015c-3.4491-5.8142-5.5791-10.6072-6.7585-13.6042-4.186-10.6364-6.3085-22.2428-6.3085-34.4968,0-20.8969,5.2274-39.0825,15.513-54.0907-2.0882-2.2817-4.2502-4.4906-6.5017-6.6113-13.5523-12.7618-29.2683-22.3698-47.1478-28.8323-17.8831-6.4583-37.0672-9.6895-57.5464-9.6895-26.3142,0-50.7336,4.9263-73.2623,14.7706-22.5329,9.8485-42.2257,23.7145-59.0825,41.5941-16.861,17.8837-30.0139,38.8763-39.4671,62.9819-9.4532,24.1063-14.1798,50.3389-14.1798,78.6985,0,24.264,3.8179,45.7299,11.462,64.3999,7.64,18.6701,18.2748,34.386,31.9045,47.1478,13.6256,12.7618,29.3823,22.3734,47.266,28.8323,17.8795,6.4577,37.063,9.6895,57.5464,9.6895,26.1511,0,50.4931-4.9629,73.026-14.8888,22.5293-9.9259,42.2629-23.789,59.2007-41.5941,16.9342-17.8027,30.0919-38.7581,39.4671-62.8638,5.1346-13.2073,8.8541-27.0576,11.1766-41.5418-15.6929-12.3307-27.9101-25.7459-36.3077-39.9015Zm-39.7415,57.2195c-6.6172,28.2816-15.638,53.1364-27.0598,74.5621-11.4254,21.428-24.4602,38.1295-39.1126,50.102-14.6525,11.9748-30.0139,17.9611-46.0843,17.9611-22.6877,0-40.6488-9.7675-53.8832-29.3049-13.2345-19.535-19.8517-47.266-19.8517-83.1882,0-28.6739,3.0315-56.9154,9.0987-84.7243,6.063-27.806,14.6525-52.9385,25.76-75.3899,11.1075-22.4513,24.0649-40.3309,38.8763-53.6469,14.8073-13.3119,31.0366-19.9699,48.684-19.9699,22.5287,0,40.4124,9.7303,53.6469,29.1868,13.2345,19.4606,19.8517,47.1478,19.8517,83.07,0,32.6141-3.3086,63.0629-9.9259,91.3421Z"/><path class="cls-1" d="m464.7245,683.6296c-12.8434-1.7323-24.6599-4.1736-35.4495-7.3262-10.7932-3.1503-19.7336-6.6952-26.8235-10.6348l-10.8865-9.1578,6.05-16.9401c3.63-8.4701,22.4029-15.1015,29.6511.8106,7.2447,15.9145,17.0158,27.4143,29.3049,34.5042s25.76,10.6348,40.4124,10.6348c12.7618,0,24.4602-2.5228,35.095-7.5626,10.6348-5.0409,19.1427-12.3671,25.5236-21.9787,6.3809-9.6092,9.5714-21.3477,9.5714-35.2132s-2.9541-26.5068-8.8624-37.931c-5.9082-11.4218-15.7159-22.6475-29.4231-33.677l-32.3772-25.5236c-16.2288-12.9178-28.5593-26.3106-36.9856-40.1761-8.4299-13.8625-12.6437-29.3829-12.6437-46.5576,0-20.797,5.1993-38.5584,15.5978-53.2924,10.3985-14.7299,24.6965-26.0329,42.8939-33.9134,18.1974-7.8763,38.8763-11.8165,62.0366-11.8165,22.5293,0,41.2396,2.5222,56.1284,7.5626,14.8888,5.0445,26.8235,11.2664,35.804,18.6701l-13.4708,86.2604h-.2363c-.9453-36.7085-7.7209-64.4366-20.3244-83.1882-12.607-18.7475-29.7776-28.1233-51.5199-28.1233-20.797,0-36.9856,5.7535-48.5658,17.2521-11.5802,11.5028-17.3703,26.7053-17.3703,45.6117,0,12.2892,2.836,23.5556,8.5079,33.7952,5.6719,10.2437,15.0436,20.5607,28.1233,30.9592l32.3772,25.7606c17.9611,14.1798,31.0774,28.6763,39.3489,43.4847,8.2715,14.8108,12.4073,31.0396,12.4073,48.684,0,16.2288-3.3902,30.6851-10.1622,43.3666-6.7756,12.6838-16.0338,23.3589-27.7688,32.0227-11.7385,8.6662-25.1691,15.2055-40.2943,19.6154-15.1251,4.4076-30.9592,6.6172-47.5023,6.6172-12.607,0-25.3275-.8685-38.1673-2.5996Z"/><path class="cls-1" d="m849.12,679.732c-3.8628-2.836-7.1301-7.7587-9.8077-14.7706-2.6812-7.0095-4.8849-17.2119-6.6172-30.6047l-13.2285-108.3857c-19.1144.6462-42.6754,1.9384-66.5251,4.487l11.2179,103.6623c1.1001,11.1879.8638,20.3646-.709,27.5324-1.5763,7.1703-4.7266,12.6437-9.4532,16.4249s-11.3438,6.3029-19.8517,7.5626v.2363h127.8545v-.2363c-4.7266-1.1013-9.0207-3.0723-12.88-5.9082Z"/><path class="cls-1" d="m667.4619,537.019l71.2149-138.3772-.0411-.3795h.2363l-.1953.3795,13.9265,128.6916c29.0635-2.7138,50.5944-3.9475,66.4981-4.3547l-21.8558-179.0723h-28.8323l-154.3235,279.8153c-9.5631,8.151-23.9684,22.5562-31.3433,29.9312-10.8901,10.8901-27.5525,18.4716-32.6703,21.7802-5.1213,3.3086-37.261,9.6304-43.5603,10.8901l50.8547-.4467h75.1529v-.2363c-9.4532-1.574-16.2701-4.2138-20.4425-7.9171-4.176-3.7009-5.4356-9.7273-3.7813-18.0792,1.6543-8.3495,6.4175-20.166,14.298-35.4495l37.4742-72.8159c23.0064-10.8653,58.2269-17.2186,92.8696-20.9205l-.3382-3.1246c-23.2425,2.1702-51.3168,5.2913-85.1414,9.6856Z"/></svg>