<?xml version="1.0" encoding="UTF-8"?><svg id="Layer_1" xmlns="http://www.w3.org/2000/svg" viewBox="0 0 1024 1024"><defs><style>.cls-1{stroke-width:0px;}</style></defs><path class="cls-1" d="m595.366,578.96c33.8245-4.3943,61.8988-7.5153,85.1414-9.6856l-13.9265-128.6915-71.2148,138.3771Z"/><path class="cls-1" d="m392.6284,725.5707c-12.8433-1.7323-24.6598-4.1736-35.4495-7.3262-10.7932-3.1503-19.7335-6.6952-26.8235-10.6348l-3.2565-2.7394c-5.1646,2.891-10.4927,5.5515-15.9901,7.9735-22.533,9.9258-46.875,14.8888-73.026,14.8888-20.4833,0-39.6669-3.2318-57.5464-9.6896-17.8837-6.4589-33.6404-16.0704-47.266-28.8322-13.6298-12.7618-24.2646-28.4778-31.9045-47.1479-1.2236-2.9888-2.3384-6.0574-3.366-9.1895v95.1266h323.1421c-9.4399-.3294-18.9435-1.139-28.5137-2.4293Z"/><path class="cls-1" d="m281.3313,380.5632c-17.6475,0-33.8767,6.658-48.6841,19.9698-14.8113,13.316-27.7688,31.1956-38.8762,53.6469-11.1075,22.4514-19.6969,47.5839-25.76,75.3899-6.0671,27.809-9.0986,56.0504-9.0986,84.7243,0,35.9222,6.6172,63.6531,19.8517,83.1882,13.2345,19.5374,31.1956,29.3049,53.8832,29.3049,16.0706,0,31.4319-5.9862,46.0845-17.9611,14.6523-11.9725,27.6873-28.6739,39.1125-50.1019,11.4219-21.4257,20.4426-46.2805,27.0598-74.5621,6.6172-28.2792,9.9258-58.728,9.9258-91.3422,0-35.9221-6.6172-63.6094-19.8517-83.0699-13.2345-19.4565-31.1182-29.1868-53.6469-29.1868Z"/><polygon class="cls-1" points="666.5397 440.2034 666.5808 440.5829 666.776 440.2034 666.5397 440.2034"/><path class="cls-1" d="m98,296v221.0363c1.7466-6.1505,3.7716-12.1758,6.0837-18.0718,9.4532-24.1057,22.6062-45.0983,39.467-62.9819,16.8569-17.8795,36.5497-31.7456,59.0825-41.5941,22.5288-9.8444,46.9482-14.7706,73.2625-14.7706,20.479,0,39.6631,3.2312,57.5463,9.6895,17.8795,6.4625,33.5956,16.0704,47.1478,28.8323,2.2515,2.1206,4.4135,4.3295,6.5017,6.6113-10.2856,15.0082-15.5131,33.1938-15.5131,54.0906,0,12.254,2.1224,23.8604,6.3085,34.4968,1.1794,2.997,3.3094,7.79,6.7585,13.6042,8.3976,14.1556,20.6147,27.5708,36.3077,39.9015-2.3225,14.4843-6.042,28.3345-11.1766,41.5418-9.3752,24.1057-22.533,45.061-39.467,62.8638-4.4922,4.7222-9.1871,9.1586-14.0725,13.3264,7.1277,14.7463,16.5393,25.5012,28.238,32.2505,12.2892,7.0899,25.76,10.6348,40.4125,10.6348,12.7618,0,24.4601-2.5228,35.095-7.5626,10.6349-5.0409,19.1427-12.3671,25.5236-21.9786,6.381-9.6092,9.5715-21.3477,9.5715-35.2132s-2.9542-26.5068-8.8624-37.931c-5.9083-11.4218-15.7159-22.6475-29.4231-33.677l-32.3772-25.5237c-16.2289-12.9178-28.5593-26.3106-36.9857-40.1761-8.4299-13.8625-12.6436-29.3829-12.6436-46.5576,0-20.797,5.1992-38.5584,15.5977-53.2924,10.3986-14.7299,24.6965-26.033,42.894-33.9134,18.1973-7.8763,38.8762-11.8165,62.0366-11.8165,22.5293,0,41.2395,2.5222,56.1283,7.5626,14.8888,5.0444,26.8235,11.2664,35.8041,18.67l-13.4709,86.2604h-.2363c-.9453-36.7086-7.7208-64.4365-20.3243-83.1882-12.6071-18.7474-29.7776-28.1232-51.5199-28.1232-20.7971,0-36.9856,5.7534-48.5659,17.2521-11.5801,11.5027-17.3701,26.7053-17.3701,45.6117,0,12.2892,2.8359,23.5556,8.5078,33.7952,5.6719,10.2437,15.0436,20.5607,28.1233,30.9592l32.3772,25.7606c17.9611,14.1798,31.0774,28.6763,39.3489,43.4847,8.2716,14.8108,12.4075,31.0396,12.4075,48.684,0,5.0141-.3258,9.8578-.9728,14.5334l140.7666-255.2344h28.8323l21.8558,179.0723c-15.9037.4072-37.4346,1.6409-66.498,4.3547l.3381,3.1246c23.8496-2.5486,47.4106-3.8408,66.5251-4.487l13.2285,108.3857c1.7322,13.3928,3.936,23.5952,6.6172,30.6047,2.6776,7.0119,5.9448,11.9346,9.8076,14.7706,3.8594,2.8359,8.1534,4.8069,12.88,5.9082v.2364h-127.8545v-.2364c8.5079-1.2596,15.1251-3.7812,19.8517-7.5626,4.7266-3.7812,7.877-9.2546,9.4532-16.4249,1.5728-7.1678,1.8091-16.3445.709-27.5324l-11.2179-103.6624c-34.6427,3.702-69.8633,10.0552-92.8696,20.9205l-37.4741,72.8159c-7.8805,15.2835-12.6437,27.1-14.2981,35.4495-1.6543,8.3519-.3945,14.3783,3.7814,18.0792,4.1725,3.7033,10.9894,6.3431,20.4425,7.9171v.2364h-75.1528l-20.7644.1824h461.4897v-432H98Z"/></svg>