<?xml version="1.0" encoding="UTF-8"?><svg id="Layer_1" xmlns="http://www.w3.org/2000/svg" viewBox="0 0 1024 1024"><defs><style>.cls-1{stroke-width:0px;}</style></defs><path class="cls-1" d="m154,577.795c0-22.7754,2.5306-51.1186,11.641-92.113,23.2808-103.7534,76.9288-156.3888,161.4494-156.3888,72.3742,0,110.8386,40.489,110.8386,116.9118,0,22.7754-2.5306,51.1174-11.6398,92.1124-23.282,103.7534-76.93,156.3894-161.4506,156.3894-72.3742,0-110.8386-40.4896-110.8386-116.9118Zm206.4948-34.9218l11.1344-56.6852c3.5426-16.7016,5.0612-29.3546,5.0612-37.9584,0-44.5382-18.2208-65.7944-57.1918-65.7944-49.5988,0-73.8916,26.824-88.0632,98.6916l-11.1344,56.6852c-3.5426,16.701-5.0612,29.354-5.0612,37.9578,0,44.5388,18.2208,65.7944,57.1906,65.7944,49.5988,0,73.8928-26.8234,88.0644-98.691Z"/><path class="cls-1" d="m389.4672,631.1039l44.2007-32.7943c.8946-.6637,2.1645-.3333,2.6456.6714,14.1255,29.4956,34.1918,42.5831,65.8912,42.5831,43.019,0,69.337-22.7754,69.337-59.7212,0-23.7862-10.6278-35.9338-38.971-45.5496l-22.7742-8.0972c-50.612-16.1968-72.8808-43.0202-72.8808-88.0644,0-66.807,49.0934-110.8386,123.9982-110.8386,47.9601,0,84.0839,17.2595,103.9932,49.8326.4503.7368.2929,1.6987-.3606,2.2631l-41.7505,36.0564c-.8515.7353-2.1542.486-2.7009-.4973-13.5738-24.4145-32.1385-34.5128-62.7238-34.5128-38.4656,0-59.7224,17.7136-59.7224,50.6108,0,21.7628,9.617,32.8972,35.4284,41.5016l22.7754,7.5912c54.1534,18.2208,76.9288,45.5508,76.9288,91.6058,0,72.3742-53.1414,120.9622-133.1074,120.9622-54.0793,0-92.8012-21.3035-110.7734-61.4584-.3382-.7557-.0985-1.6512.5665-2.1445Z"/><path class="cls-1" d="m802.4652,595.508l1.0574,16.8364,5.2743,74.6472c.0653.9243.8342,1.6407,1.7608,1.6407h57.6771c1.0325,0,1.8446-.8824,1.7591-1.9113l-7.4449-89.5941c-.076-.915-.8409-1.619-1.7591-1.619h-58.3246Z"/><path class="cls-1" d="m799.2775,544.7601c.0584.9301.8298,1.6545,1.7617,1.6545h55.3779c1.0325,0,1.8446-.8824,1.7591-1.9113l-17.2442-207.5179c-.076-.915-.8409-1.619-1.7591-1.619h-77.7361c-.6789,0-1.2976.3893-1.5914,1.0014l-167.8534,349.7357c-.5624,1.1718.2916,2.5289,1.5914,2.5289h60.3248c.6969,0,1.3286-.4101,1.6123-1.0466l32.5367-73.0082,8.032-18.0229c.2837-.6366.9154-1.0466,1.6123-1.0466h104.7637l-3.0839-49.0934h-75.3513c-1.2667,0-2.1211-1.2948-1.6229-2.4595l3.7792-8.8334,37.1756-86.8921,21.8437-59.0742c.2562-.6929.9168-1.153,1.6556-1.153h3.1227c.9575,0,1.7405.7634,1.7646,1.7207l1.4752,58.5065"/></svg>