<?xml version="1.0" encoding="UTF-8"?><svg id="Layer_1" xmlns="http://www.w3.org/2000/svg" viewBox="0 0 1024 1024"><defs><style>.cls-1{fill:#9c9;}.cls-1,.cls-2,.cls-3,.cls-4,.cls-5{stroke-width:0px;}.cls-2{fill:#c9f;}.cls-3{fill:#0fc;}.cls-4{fill:#0f9;}.cls-5{fill:#6cf;}</style></defs><path class="cls-2" d="m449.8308,641.5647c-31.6995,0-51.7659-13.0874-65.8914-42.583-.4812-1.0048-1.751-1.3352-2.6455-.6715l-44.2007,32.7943c-.665.4933-.9048,1.3889-.5667,2.1445,12.1199,27.0792,33.6885,45.5706,63.0276,54.7516h-138.7422c57.0029-17.1798,94.6221-67.3234,113.103-149.6826,7.9961-35.985,10.9224-62.2191,11.5186-83.4984,4.5662,36.3201,27.1438,59.0259,71.989,73.3772l22.7742,8.0972c28.3433,9.6158,38.9709,21.7634,38.9709,45.5496,0,36.9458-26.3181,59.7212-69.3369,59.7212Z"/><path class="cls-2" d="m461.5654,335.9297l-142.8303-.4121c39.6946,12.7085,62.281,44.7314,66.199,94.5117,3.5872-46.4033,32.0315-80.417,76.6313-94.0996Z"/><path class="cls-5" d="m308.1208,542.8738l11.1343-56.6852c3.5427-16.7015,5.0613-29.3546,5.0613-37.9584,0-44.5382-18.2207-65.7944-57.1919-65.7944-49.5986,0-73.8916,26.824-88.063,98.6917l-11.1345,56.6852c-3.5427,16.7009-5.0613,29.3539-5.0613,37.9578,0,44.5388,18.2209,65.7943,57.1907,65.7943,49.5989,0,73.8928-26.8232,88.0645-98.6909Z"/><path class="cls-1" d="m556.4097,336.2034c24.4517,7.8586,43.5332,22.3245,56.1235,42.9231.4502.7367.293,1.6986-.3606,2.2631l-41.7507,36.0563c-.8513.7354-2.1541.4861-2.7007-.4973-13.5737-24.4144-32.1384-34.5127-62.7239-34.5127-38.4656,0-59.7224,17.7136-59.7224,50.6108,0,21.7627,9.6169,32.8972,35.4285,41.5016l22.7754,7.5912c54.1533,18.2208,76.9287,45.5508,76.9287,91.6057,0,14.3164-2.0872,27.6975-6.0422,39.9604l132.9763-277.0667-150.9319-.4355Z"/><path class="cls-1" d="m539.6179,686.104l21.5405-44.8812c-14.6824,22.0697-37.1917,38.2897-65.5371,46.7778h44.2505c-.4238-.5028-.5757-1.2262-.2539-1.8966Z"/><path class="cls-4" d="m751.1487,612.345l-1.0574-16.8364h-104.7639c-.6968,0-1.3284.4102-1.6121,1.0466l-8.0322,18.0229-32.5366,73.0082c-.0681.1526-.1582.2903-.2625.4143h153.9546c-.2332-.2765-.3884-.6221-.4158-1.0084l-5.2742-74.6472Z"/><path class="cls-4" d="m748.665,546.4152c-.9319,0-1.7031-.7245-1.7617-1.6544l-6.0535-96.5305-1.4753-58.5066c-.0239-.9573-.8069-1.7207-1.7644-1.7207h-3.1228c-.7388,0-1.3994.4602-1.6555,1.1531l-21.8438,59.0742-37.1755,86.8921-3.7793,8.8334c-.4983,1.1647.3562,2.4595,1.6228,2.4595h75.3513"/><path class="cls-3" d="m747.0073,546.4152l3.084,49.0934h58.3245c.9182,0,1.6831.704,1.759,1.619l7.4451,89.5941c.0403.4861-.1243.9358-.4133,1.2789h7.2588c21.5645,0,38.4722-18.5194,36.5144-39.9948l-25.3232-277.7649c-1.7178-18.8413-17.4893-33.2821-36.4087-33.3367l-10.7102-.031c.0059.0381.0171.074.0203.1127l17.2441,207.5179c.0857,1.0289-.7266,1.9113-1.759,1.9113h-55.3779"/></svg>