<?xml version="1.0" encoding="UTF-8"?><svg id="Layer_1" xmlns="http://www.w3.org/2000/svg" viewBox="0 0 1024 1024"><defs><style>.cls-1{stroke-width:0px;}</style></defs><path class="cls-1" d="m336.5267,633.2491c-.3381-.7557-.0984-1.6512.5667-2.1445l44.2007-32.7943c.8945-.6637,2.1643-.3333,2.6455.6714,14.1255,29.4956,34.1919,42.5831,65.8914,42.5831,43.0188,0,69.3369-22.7754,69.3369-59.7212,0-23.7861-10.6277-35.9338-38.9709-45.5496l-22.7742-8.0972c-44.8452-14.3513-67.4229-37.0572-71.989-73.3772-.5962,21.2792-3.5225,47.5134-11.5186,83.4984-18.481,82.3593-56.1001,132.5027-113.103,149.6826h138.7422c-29.3391-9.181-50.9077-27.6724-63.0276-54.7516Z"/><path class="cls-1" d="m384.9341,430.0293c3.5872-46.4034,32.0315-80.4169,76.6313-94.0996l-142.8303-.4122c39.6946,12.7086,62.281,44.7316,66.199,94.5118Z"/><path class="cls-1" d="m324.3165,448.2302c0-44.5381-18.2207-65.7944-57.1919-65.7944-49.5986,0-73.8916,26.824-88.063,98.6916l-11.1345,56.6852c-3.5427,16.7009-5.0613,29.3539-5.0613,37.9578,0,44.5388,18.2209,65.7944,57.1907,65.7944,49.5989,0,73.8928-26.8234,88.0645-98.691l11.1343-56.6852c3.5427-16.7016,5.0613-29.3546,5.0613-37.9584Z"/><path class="cls-1" d="m612.5333,379.1264c.4502.7368.293,1.6987-.3606,2.2631l-41.7507,36.0563c-.8513.7354-2.1541.486-2.7007-.4973-13.5737-24.4145-32.1384-34.5128-62.7239-34.5128-38.4656,0-59.7224,17.7136-59.7224,50.6108,0,21.7628,9.6169,32.8972,35.4285,41.5016l22.7754,7.5912c54.1533,18.2208,76.9287,45.5508,76.9287,91.6058,0,14.3164-2.0872,27.6974-6.0422,39.9603l132.9763-277.0665-150.9319-.4355c24.4517,7.8585,43.5332,22.3244,56.1235,42.923Z"/><path class="cls-1" d="m539.618,686.1041l21.5405-44.8813c-14.6824,22.0696-37.1917,38.2897-65.5371,46.7778h44.2505c-.4238-.5029-.5757-1.2261-.2539-1.8965Z"/><path class="cls-1" d="m751.1487,612.3451l-1.0574-16.8365h-104.7639c-.6968,0-1.3284.4101-1.6121,1.0466l-8.0322,18.0229-32.5366,73.0082c-.0681.1526-.1582.2903-.2625.4143h153.9546c-.2332-.2766-.3884-.6221-.4158-1.0084l-5.2742-74.6472Z"/><path class="cls-1" d="m860.9798,648.0058l-25.3232-277.7648c-1.7178-18.8414-17.4893-33.2822-36.4087-33.3368l-10.7102-.0309c.0059.038.0171.0739.0203.1126l17.2441,207.5179c.0857,1.029-.7266,1.9113-1.759,1.9113h-55.3779c-.9319,0-1.7031-.7244-1.7617-1.6545l-6.0535-96.5305-1.4753-58.5065c-.0239-.9572-.8069-1.7206-1.7644-1.7206h-3.1228c-.7388,0-1.3994.4601-1.6555,1.153l-21.8438,59.0742-37.1755,86.8922-3.7793,8.8334c-.4983,1.1647.3562,2.4595,1.6228,2.4595h75.3513l3.084,49.0934h58.3245c.9182,0,1.6831.704,1.759,1.619l7.4451,89.5941c.0403.4862-.1243.9359-.4133,1.279h7.2588c21.5645,0,38.4722-18.5195,36.5144-39.9948Z"/></svg>