<svg xmlns="http://www.w3.org/2000/svg" viewBox="0 0 512 512"><defs><style>.a{fill:#4242db;}.b{fill:#cc3;}.c{fill:#fff;}</style></defs><path class="a" d="M384.3458,465.2786c-13.5454-1.5569-16.2336-2.579-21.1322-5.1259a109.8744,109.8744,0,0,1-13.46-8.1467,14.1671,14.1671,0,0,0-6.2324-2.6348,7.1364,7.1364,0,0,0-4.4065,1.0241,11.825,11.825,0,0,0-5.6047,7.6952c-3.2832,14.0437-4.2514,25.38-22.6495,25.3556H199.7681c-60.5909.0247-48.4862-26.7029-6.2972-45.581,1.4748-.6029.5-2.0393-.3335-2.6677C162.331,398.6453,145.12,372.4944,144.44,316.2811a166.299,166.299,0,0,1,2.77-30.3062v-.0127a164.28,164.28,0,0,1,23.2907-59.035l.0128-.0256a167.93,167.93,0,0,1,22.6239-28.1387c19.7894-18.9558,19.7509-53.1352,0-72.168-.1155,0-.1155,0-.1155-.1154-21.8158-15.5956-37.2189-17.404-47.569-15.788-1.68.2566-18.9045,3.0525-23.9449-2.0648l-.0432-.0439c-3.0233-3.0946-2.7106-7.6766-2.6244-8.6169a6.1318,6.1318,0,0,1,.2414-1.5482c9.1749-28.2295,33.8239-44.7978,62.7822-47.8742a10.7786,10.7786,0,0,0,5.0275-1.7057c14.1032-9.7786,26.0191-15.4919,30.901-17.08,16.5175-5.3716,35.7989-3.7364,55.2835,3.0127a70.4141,70.4141,0,0,1,25.5424,14.6256A66.4384,66.4384,0,0,1,315.0211,72.11c5.3382,12.6645,5.1133,24.1469,4.9743,31.2433a95.175,95.175,0,0,1-.75,10.1859c-1.1552,9.0137-3.3737,15.6424-5.1385,23.7806-5.8477,26.9654-6.72,48.06,15.4523,116.1647,4.0562,12.4588,14.8308,35.1179,25.162,65.5948,8.5907,25.3424,10.6889,62.8079,10.17,92.1077-.2057,11.6168,3.1357,20.97,7.7547,30.707,1.1235,2.3683,5.0334,7.9544,11.5233,8.5784C396.2464,451.6338,396.0075,466.619,384.3458,465.2786Z"/><path class="b" d="M172.2093,66.0874c-21.9193.5412-34.862,24.49-35.6384,27.7035a5.6316,5.6316,0,0,0,.0744,2.8863,4.14,4.14,0,0,0,1.9851,2.3786,3.6585,3.6585,0,0,0,2.6225.2258c1.5035-.29,2.4463-.5549,4.063-.7965,5.552-.8295,21.3579,1.1012,34.5656,4.6406a3.53,3.53,0,0,0,4.3392-2.5194c2.7952-10.84,3.3009-30.2172-7.4891-33.9923A11.9941,11.9941,0,0,0,172.2093,66.0874Z"/><path class="c" d="M224.9573,73.6716c-10.5591-.1235-10.5366-16.3442,0-16.4C235.64,57.3049,235.6512,73.5705,224.9573,73.6716Z"/><path class="c" d="M200.8652,220.8527c-2.389,2.9548-4.865,6.4192-4.8651,6.4193-1.7876,2.5011-3.1835,4.6237-4.1169,6.0826l-.011.022A140.7336,140.7336,0,0,0,171.92,283.95v.011a142.4566,142.4566,0,0,0-2.3732,25.9624,149.6169,149.6169,0,0,0,8.4407,50.2449,134.331,134.331,0,0,0,22.769,39.23,59.72,59.72,0,0,0,28.3876,18.95q.1132.0346.2269.0691c3.1626.9587,41.6517,10.5948,59.7692-3.37,16.084-12.3979-13.6953-86.2248-22.99-104.7118C258.927,295.97,251.2332,281.7,247.9813,272.93c-7.503-20.2342-7.0854-38.7115-13.2444-62.1587-.6885-2.6207-2.4179-6.3828-5.86-7.7281C219.476,199.3693,203.6037,217.4656,200.8652,220.8527Z"/></svg>