<?xml version="1.0" encoding="UTF-8" standalone="no"?>
<!DOCTYPE svg PUBLIC "-//W3C//DTD SVG 1.1//EN" "http://www.w3.org/Graphics/SVG/1.1/DTD/svg11.dtd">

<!-- Created with Vectornator (http://vectornator.io/) -->
<svg height="100%" stroke-miterlimit="10" style="fill-rule:nonzero;clip-rule:evenodd;stroke-linecap:round;stroke-linejoin:round;" version="1.1" viewBox="0 0 181.44 181.44" width="100%" xml:space="preserve" xmlns="http://www.w3.org/2000/svg" xmlns:vectornator="http://vectornator.io" xmlns:xlink="http://www.w3.org/1999/xlink">
<metadata>
<vectornator:setting key="IsTimeLapseWatermarkDisabled" value="false"/>
<vectornator:setting key="UndoHistoryDisabled" value="true"/>
<vectornator:setting key="VNDimensionsVisible" value="true"/>
<vectornator:setting key="VNSnapToGuides" value="true"/>
<vectornator:setting key="WDCMYKEnabledKey" value="false"/>
<vectornator:setting key="WDDisplayWhiteBackground" value="false"/>
<vectornator:setting key="WDDynamicGuides" value="false"/>
<vectornator:setting key="WDGuidesVisible" value="true"/>
<vectornator:setting key="WDIsolateActiveLayer" value="false"/>
<vectornator:setting key="WDOutlineMode" value="false"/>
<vectornator:setting key="WDRulersVisible" value="true"/>
<vectornator:setting key="WDSnapToEdges" value="false"/>
<vectornator:setting key="WDSnapToGrid" value="true"/>
<vectornator:setting key="WDSnapToPoints" value="false"/>
<vectornator:setting key="WDUnits" value="Centimeters"/>
</metadata>
<defs/>
<g id="Layer-2" vectornator:layerName="Layer 2">
<path d="M53.7176 110.83C53.2583 110.849 52.7888 110.859 52.3093 110.859" fill="#4242db" fill-rule="evenodd" opacity="1" stroke="none"/>
<path d="M53.9407 116.04C59.2891 117.411 68.0043 118.355 80.2766 117.726C88.2847 117.315 69.3193 105.189 69.3193 105.189C69.3193 105.189 64.1187 110.39 53.7176 110.83" fill="#4242db" fill-rule="evenodd" opacity="1" stroke="none"/>
</g>
<g id="Layer-1" vectornator:layerName="Layer 1">
<g opacity="1">
<path d="M85.8141 5.67C83.7389 5.67 81.9572 7.17512 81.617 9.22482L79.009 24.8893C75.195 25.5634 71.4853 26.5493 67.9237 27.8406L57.8462 15.598C56.5279 13.9906 54.2395 13.5719 52.4364 14.618L43.9536 19.5183C42.1505 20.5559 41.3672 22.7453 42.0986 24.6844L47.669 39.5626C44.7423 42.0281 42.0338 44.7424 39.5682 47.669L24.6844 42.0986C22.7453 41.3672 20.5559 42.1505 19.5183 43.9536L14.618 52.4364C13.5719 54.2395 13.9906 56.5279 15.598 57.8462L27.8406 67.9237C26.5493 71.4853 25.5634 75.195 24.8893 79.009L9.22482 81.617C7.17512 81.9657 5.67 83.7359 5.67 85.8197L5.67 95.6259C5.67 97.7011 7.17512 99.4828 9.22482 99.823L24.8893 102.431C25.5634 106.245 26.5493 109.955 27.8406 113.516L15.598 123.594C13.9906 124.912 13.5804 127.201 14.618 129.004L19.5183 137.486C20.5559 139.289 22.7453 140.073 24.6844 139.341L39.5626 133.771C42.0281 136.698 44.7424 139.406 47.669 141.872L42.0986 156.744C41.3672 158.692 42.159 160.879 43.9536 161.916L52.4364 166.816C54.2395 167.854 56.5279 167.435 57.8462 165.836L65.1496 156.966C59.4794 149.395 56.3029 142.281 56.1518 129.79C56.1517 129.548 56.1643 129.306 56.1684 129.064C45.6901 119.617 39.1031 105.939 39.1031 90.72C39.1031 62.2131 62.2131 39.1031 90.72 39.1031C119.227 39.1031 142.337 62.2131 142.337 90.72C142.337 105.697 135.953 119.176 125.764 128.605C127.898 135.544 128.443 145.325 128.306 153.062C128.249 156.257 129.167 158.828 130.438 161.506C130.747 162.158 131.82 163.694 133.605 163.865C133.742 163.878 133.85 163.923 133.976 163.948L137.486 161.922C139.289 160.884 140.073 158.695 139.341 156.756L133.771 141.877C136.698 139.412 139.406 136.698 141.872 133.771L156.744 139.341C158.692 140.073 160.879 139.281 161.916 137.486L166.816 129.004C167.854 127.201 167.435 124.912 165.836 123.594L153.599 113.516C154.891 109.955 155.877 106.245 156.551 102.431L172.215 99.823C174.265 99.4743 175.77 97.7041 175.77 95.6203L175.77 85.8141C175.77 83.7389 174.265 81.9572 172.215 81.617L156.551 79.009C155.877 75.195 154.891 71.4853 153.599 67.9237L165.842 57.8462C167.449 56.5279 167.86 54.2395 166.822 52.4364L161.922 43.9536C160.884 42.1505 158.695 41.3672 156.756 42.0986L141.877 47.669C139.412 44.7423 136.698 42.0338 133.771 39.5682L139.341 24.6955C140.073 22.7479 139.281 20.5615 137.486 19.5238L129.004 14.6235C127.201 13.5859 124.912 14.0046 123.594 15.6036L113.516 27.8406C109.955 26.5493 106.245 25.5634 102.431 24.8893L99.823 9.22482C99.4743 7.17512 97.7041 5.67 95.6203 5.67L85.8141 5.67Z" fill="#4242db" fill-rule="evenodd" opacity="1" stroke="none"/>
<g opacity="1">
<path d="M127.986 170.773C124.26 170.345 123.521 170.064 122.173 169.363C120.887 168.706 119.65 167.957 118.471 167.123C117.967 166.746 117.379 166.497 116.757 166.398C116.333 166.358 115.908 166.457 115.545 166.68C114.757 167.138 114.198 167.906 114.004 168.796C113.101 172.659 112.834 175.777 107.774 175.77L77.2185 175.77C60.5532 175.777 63.8825 168.425 75.4864 163.233C75.8921 163.067 75.624 162.672 75.3947 162.499C66.9215 152.446 62.1877 145.253 62.0007 129.792C61.9994 126.996 62.2544 124.206 62.7626 121.456L62.7626 121.453C63.8222 115.675 65.9982 110.16 69.1686 105.216L69.1721 105.208C70.9621 102.413 73.0484 99.8178 75.3947 97.4691C80.8377 92.2554 80.8271 82.8545 75.3947 77.6196C75.363 77.6196 75.363 77.6196 75.363 77.5878C69.3626 73.2983 65.126 72.8009 62.2793 73.2454C61.8172 73.316 57.0797 74.085 55.6934 72.6775L55.6815 72.6654C54.8499 71.8142 54.9359 70.554 54.9596 70.2954C54.9635 70.1512 54.9858 70.0081 55.026 69.8695C57.5496 62.1051 64.3292 57.5481 72.294 56.7019C72.7869 56.6633 73.2622 56.502 73.6768 56.2328C77.5558 53.5432 80.8333 51.9718 82.176 51.535C86.7191 50.0576 92.0223 50.5073 97.3815 52.3636C99.9805 53.1947 102.375 54.5655 104.407 56.3863C106.338 58.1244 107.876 60.2542 108.918 62.6337C110.387 66.117 110.325 69.2752 110.286 71.227C110.268 72.1639 110.199 73.0991 110.08 74.0286C109.762 76.5078 109.152 78.331 108.667 80.5694C107.058 87.9861 106.819 93.7881 112.917 112.52C114.033 115.947 116.996 122.179 119.838 130.562C122.201 137.532 122.778 147.837 122.635 155.895C122.578 159.091 123.497 161.663 124.768 164.341C125.077 164.993 126.152 166.529 127.937 166.701C131.259 167.02 131.193 171.142 127.986 170.773Z" fill="#4242db" fill-rule="evenodd" opacity="1" stroke="none"/>
<path d="M69.6385 60.9772C63.6097 61.1261 60.0499 67.7131 59.8363 68.5969C59.7741 68.8588 59.7811 69.1325 59.8568 69.3908C59.9473 69.6713 60.143 69.9058 60.4028 70.045C60.6272 70.1545 60.8843 70.1766 61.1241 70.1071C61.5376 70.0274 61.7969 69.9545 62.2416 69.8881C63.7687 69.6599 68.116 70.1909 71.7487 71.1644C71.9989 71.2322 72.2659 71.1971 72.49 71.0669C72.7142 70.9368 72.877 70.7224 72.9422 70.4715C73.711 67.49 73.8501 62.1604 70.8824 61.122C70.4808 60.9948 70.0586 60.9456 69.6385 60.9772Z" fill="#cccc33" fill-rule="evenodd" opacity="1" stroke="none"/>
<path d="M84.501 63.772C81.5968 63.738 81.603 59.2766 84.501 59.2612C87.4393 59.2704 87.4423 63.7442 84.501 63.772Z" fill="#ffffff" fill-rule="evenodd" opacity="1" stroke="none"/>
<path d="M77.5202 103.545C76.8631 104.357 76.1821 105.31 76.1821 105.31C75.6904 105.998 75.3065 106.582 75.0498 106.983L75.0467 106.989C72.3307 111.225 70.4667 115.95 69.559 120.899L69.559 120.902C69.1236 123.258 68.9051 125.648 68.9062 128.043C68.8843 132.749 69.6695 137.423 71.2278 141.863C72.6886 145.789 74.8063 149.437 77.4903 152.653C79.5305 155.113 82.244 156.924 85.2982 157.865C85.319 157.871 85.3398 157.878 85.3606 157.884C86.2305 158.148 96.8167 160.798 101.8 156.957C106.224 153.547 98.0331 133.241 95.4766 128.157C93.4899 124.205 91.3737 120.281 90.4793 117.868C88.4156 112.303 88.5305 107.221 86.8365 100.772C86.6471 100.051 86.1715 99.0164 85.2247 98.6463C82.639 97.6358 78.2734 102.613 77.5202 103.545Z" fill="#ffffff" fill-rule="evenodd" opacity="1" stroke="none"/>
</g>
</g>
</g>
<g id="Layer-3" vectornator:layerName="Layer 3">
<path d="M25.5545 132.785C25.4754 132.736 25.391 132.695 25.3028 132.665C23.1776 132.193 21.9027 130.74 21.7344 128.551C21.349 123.539 20.973 118.527 20.6063 113.514C20.5768 113.109 20.5314 113.006 20.077 113.121C19.3359 113.315 18.547 113.169 17.9247 112.722C17.3024 112.275 16.9113 111.575 16.8576 110.811C16.7415 109.697 16.6783 108.578 16.5979 107.461C16.4166 104.94 16.1637 102.421 16.0789 99.8971C15.9643 96.4876 18.4909 93.2707 21.7949 92.4491C22.2074 92.3254 22.6332 92.2511 23.0633 92.2277C23.4884 92.2323 23.8781 91.9918 24.0646 91.6098C25.2316 89.8556 27.068 88.658 29.1437 88.2974C31.2195 87.9367 33.3523 88.4448 35.0425 89.7025C35.2074 89.8586 35.452 89.8955 35.6556 89.795C37.3395 89.0951 39.2823 89.5506 40.4796 90.9261C40.5954 91.1203 40.8429 91.19 41.0431 91.0849C42.9335 90.3682 45.0678 91.0667 46.1688 92.7624C47.2697 94.4581 47.0392 96.692 45.6152 98.1271C45.4912 98.2712 45.4231 98.4549 45.423 98.6449C45.4447 99.2902 45.5293 99.9335 45.5496 100.579C45.5598 100.901 45.683 100.936 45.9643 100.912C47.2089 100.803 48.4555 100.715 49.7014 100.624C52.2827 100.434 54.2843 102.068 54.4982 104.65C54.8999 109.502 55.2662 114.357 55.5969 119.214C55.773 121.798 54.0382 123.717 51.4592 123.917C50.2279 124.012 48.997 124.12 47.764 124.185C47.3892 124.205 47.3311 124.327 47.3663 124.669C47.4471 125.454 47.514 126.243 47.5279 127.032C47.5999 129.045 46.241 130.829 44.2812 131.294C44.2506 131.302 44.2304 131.349 44.2054 131.378L25.5545 132.785ZM42.3202 127.199C42.406 126.556 42.6524 126.312 43.2809 126.261C43.9251 126.209 44.5693 126.137 45.2143 126.124C45.6328 126.116 45.7531 126.011 45.7183 125.56C45.0541 116.969 44.4019 108.376 43.7619 99.7826C43.7544 99.7256 43.7504 99.6682 43.75 99.6108C43.7637 99.3314 43.6772 99.2419 43.3726 99.3143C43.0389 99.3996 42.6934 99.4289 42.3502 99.4008C41.9834 99.3623 41.9226 99.4639 41.9512 99.8067C42.1045 101.639 42.2352 103.472 42.3727 105.306C42.5067 106.287 42.0513 107.256 41.21 107.779C40.9568 107.905 40.8199 108.186 40.8762 108.463C41.2152 112.831 41.5464 117.199 41.8699 121.567C41.8896 121.753 41.8941 121.939 41.8833 122.125C41.8557 122.579 41.4673 122.924 41.0141 122.899C40.5046 122.894 40.2072 122.542 40.1559 121.866C39.9002 118.5 39.646 115.135 39.3934 111.769C39.3102 110.666 39.2323 109.563 39.1369 108.461C39.1254 108.329 39.0495 108.129 38.9513 108.089C37.7138 107.586 37.2374 106.625 37.1715 105.349C37.107 104.102 36.9854 102.857 36.8597 101.615C36.829 100.924 36.3231 100.348 35.6426 100.228C35.1635 100.148 34.6802 100.096 34.1951 100.072C33.9069 100.051 33.6276 100.178 33.4532 100.408C32.3614 101.61 30.7569 102.211 29.1441 102.023C28.1385 101.923 27.1844 101.53 26.3999 100.893C25.998 100.582 25.9261 100.612 25.7135 101.048C25.0071 102.584 23.672 103.74 22.051 104.219C21.7205 104.321 21.6419 104.445 21.6674 104.778C22.2442 112.296 22.8108 119.815 23.367 127.334C23.3946 127.709 23.5148 127.76 23.8556 127.734C27.922 127.415 31.9891 127.106 36.0569 126.806C36.7293 126.755 37.0032 126.947 37.1913 127.585C37.0987 128.245 36.8565 128.475 36.186 128.526C32.1477 128.832 28.1092 129.134 24.0704 129.434C23.7232 129.46 23.6762 129.545 23.8712 129.822C24.3951 130.641 25.3358 131.096 26.3035 130.997C28.6953 130.821 31.0869 130.641 33.4782 130.458C36.7862 130.208 40.0946 129.963 43.4021 129.706C44.3587 129.651 45.2037 129.064 45.5898 128.187C45.7257 127.915 45.7309 127.779 45.3491 127.822C44.7075 127.895 44.0612 127.928 43.4166 127.974C42.7838 128.018 42.503 127.817 42.3201 127.199L42.3202 127.199ZM18.1578 105.164L18.1805 105.465C18.3093 107.169 18.4325 108.873 18.5695 110.576C18.5626 110.825 18.6618 111.064 18.8421 111.234C19.0224 111.405 19.2669 111.491 19.5142 111.47C19.7613 111.456 19.9919 111.342 20.1524 111.153C20.3129 110.965 20.3893 110.719 20.3637 110.473C20.3632 110.316 20.3441 110.158 20.3323 110.001C20.178 107.953 20.0201 105.905 19.871 103.857C19.8191 103.144 20.0936 102.824 20.7995 102.727C20.9846 102.706 21.1681 102.673 21.349 102.628C22.6523 102.3 23.7227 101.374 24.2338 100.131C24.4996 99.3869 25.2274 98.9107 26.0153 98.9649C26.5908 99.0092 27.1375 99.2342 27.5774 99.6079C28.9695 100.713 30.9803 100.551 32.1762 99.2353C32.6564 98.6498 33.3819 98.3215 34.1386 98.3474C34.6116 98.3462 35.0843 98.3753 35.5536 98.4345C37.0779 98.6819 38.1516 99.4909 38.5088 101.044C38.6315 101.707 38.7091 102.378 38.7408 103.052C38.8176 103.91 38.862 104.771 38.9432 105.629C38.9409 105.9 39.0679 106.156 39.2854 106.319C39.5029 106.481 39.7847 106.53 40.0442 106.451C40.476 106.332 40.6843 105.956 40.6392 105.35C40.4742 103.13 40.3073 100.911 40.1386 98.6913C40.1216 98.5343 40.1148 98.3764 40.1183 98.2186C40.1209 97.948 40.2533 97.6951 40.4742 97.5387C40.6951 97.3824 40.9776 97.3416 41.2337 97.4292C41.4539 97.4913 41.668 97.5791 41.8909 97.6276C43.0802 97.9053 44.3055 97.3352 44.859 96.2465C45.3821 95.1869 45.1174 93.9072 44.217 93.142C43.3165 92.3767 42.0109 92.322 41.0496 93.0092C40.3992 93.4373 39.9432 93.3218 39.5743 92.6355C39.2609 91.9957 38.6954 91.5152 38.0135 91.3092C37.3316 91.1031 36.5946 91.1901 35.9794 91.5493C35.2272 91.9908 35.0775 91.9777 34.4282 91.4147C33.0419 90.1845 31.1632 89.667 29.3425 90.014C27.5218 90.361 25.9651 91.5331 25.1285 93.187C24.935 93.6609 24.4581 93.9562 23.9476 93.918C22.2297 93.8708 20.5738 94.5622 19.3996 95.8172C18.2254 97.0721 17.6455 98.7702 17.8067 100.481C17.914 102.043 18.0404 103.603 18.1578 105.164ZM53.3344 112.074C53.2599 111.086 53.1877 110.098 53.1103 109.11C52.989 107.563 52.9067 106.012 52.7279 104.473C52.5514 103.187 51.4151 102.254 50.1197 102.331C48.7433 102.408 47.3698 102.537 45.9941 102.628C45.7562 102.643 45.7106 102.733 45.7343 102.945C45.7741 103.301 45.8088 103.66 45.8132 104.019C45.8167 104.295 45.9023 104.378 46.1908 104.352C47.421 104.243 48.6535 104.159 49.8852 104.067C50.706 104.006 51.0226 104.27 51.0847 105.09C51.4443 109.83 51.8018 114.571 52.1572 119.311C52.2166 120.104 51.9366 120.422 51.1484 120.483C49.9025 120.578 48.6569 120.679 47.4099 120.758C47.1429 120.775 47.0646 120.856 47.1032 121.118C47.1525 121.431 47.176 121.746 47.1734 122.063C47.1668 122.409 47.2657 122.522 47.64 122.485C48.826 122.367 50.0165 122.295 51.2052 122.205C53.0464 122.066 54.0026 120.959 53.8654 119.121C53.6901 116.772 53.5131 114.423 53.3344 112.074ZM49.8968 112.322C49.7424 110.275 49.5827 108.228 49.4399 106.181C49.4207 105.906 49.3493 105.825 49.064 105.852C48.1355 105.941 47.2044 106.008 46.2733 106.064C46.026 106.079 45.9731 106.157 45.9919 106.398C46.3102 110.519 46.6212 114.642 46.9247 118.764C46.9424 119.005 47.0067 119.075 47.2533 119.052C48.168 118.968 49.084 118.891 50.0012 118.848C50.3303 118.832 50.391 118.734 50.3648 118.418C50.1958 116.387 50.0501 114.354 49.8968 112.322Z" fill="#4242db" fill-rule="evenodd" opacity="1" stroke="none"/>
<path d="M37.1912 127.585C37.003 126.947 36.7293 126.755 36.0569 126.806C31.9895 127.112 27.9224 127.421 23.8556 127.734C23.5148 127.76 23.3946 127.709 23.3669 127.334C22.8123 119.815 22.2457 112.296 21.6673 104.778C21.6418 104.445 21.7205 104.321 22.0509 104.219C23.672 103.74 25.0071 102.584 25.7134 101.048C25.9261 100.612 25.9978 100.582 26.3998 100.893C27.1844 101.53 28.1386 101.923 29.1442 102.023C30.7571 102.211 32.3616 101.61 33.4533 100.408C33.6277 100.177 33.907 100.051 34.1952 100.072C34.6803 100.096 35.1636 100.148 35.6427 100.228C36.3232 100.348 36.8291 100.924 36.8598 101.615C36.9855 102.857 37.1071 104.102 37.1716 105.349C37.2375 106.625 37.7139 107.586 38.9514 108.089C39.0497 108.129 39.1255 108.329 39.137 108.461C39.2323 109.563 39.3103 110.666 39.3935 111.769C39.6474 115.135 39.9015 118.5 40.1559 121.866C40.2073 122.542 40.5047 122.894 41.0141 122.899C41.4674 122.924 41.8558 122.579 41.8834 122.125C41.8942 121.939 41.8897 121.753 41.87 121.567C41.542 117.199 41.2107 112.831 40.8763 108.463C40.82 108.186 40.9569 107.905 41.2101 107.779C42.0514 107.256 42.5068 106.287 42.3728 105.306C42.2353 103.472 42.1046 101.639 41.9513 99.8067C41.9227 99.4639 41.9835 99.3623 42.3503 99.4008C42.6935 99.4288 43.039 99.3996 43.3727 99.3143C43.6772 99.2419 43.764 99.3314 43.7501 99.6107C43.7505 99.6682 43.7545 99.7256 43.762 99.7825C44.4102 108.375 45.0623 116.968 45.7184 125.56C45.7532 126.011 45.633 126.116 45.2144 126.124C44.5692 126.137 43.9251 126.209 43.281 126.261C42.6526 126.312 42.4062 126.556 42.3203 127.198L40.628 127.325C40.4967 126.741 40.1573 126.432 39.6857 126.468C39.2141 126.504 38.9241 126.861 38.883 127.457L37.1912 127.585ZM25.8007 114.914C25.9982 117.533 26.1962 120.152 26.3947 122.772C26.4032 122.958 26.4287 123.143 26.471 123.324C26.5721 123.716 26.9431 123.975 27.3452 123.935C27.891 123.896 28.1846 123.497 28.1342 122.824C27.7343 117.484 27.3317 112.146 26.9262 106.807C26.8759 106.143 26.515 105.768 25.9879 105.804C25.4621 105.84 25.1592 106.27 25.1985 106.927C25.2045 107.027 25.2133 107.127 25.2209 107.227L25.8007 114.914ZM34.4086 114.308C34.2099 111.675 34.0112 109.041 33.8123 106.407C33.7539 105.636 33.4144 105.241 32.8542 105.286C32.2954 105.332 32.0263 105.77 32.0848 106.547C32.4806 111.8 32.8772 117.053 33.2744 122.306C33.2822 122.463 33.3034 122.62 33.3377 122.774C33.432 123.2 33.8422 123.479 34.2734 123.41C34.7922 123.347 35.0586 122.956 35.0096 122.295C34.8121 119.633 34.6118 116.97 34.4086 114.308L34.4086 114.308Z" fill="#cccc33" fill-rule="evenodd" opacity="1" stroke="none"/>
<path d="M18.158 105.164C18.0404 103.603 17.9139 102.043 17.8067 100.481C17.6454 98.7701 18.2253 97.072 19.3995 95.817C20.5738 94.5621 22.2296 93.8706 23.9475 93.9179C24.458 93.9561 24.9349 93.6608 25.1284 93.1869C25.965 91.533 27.5217 90.3608 29.3424 90.0139C31.1631 89.6669 33.0418 90.1843 34.4281 91.4146C35.0774 91.9778 35.2271 91.9907 35.9793 91.5491C36.5946 91.19 37.3315 91.103 38.0134 91.3091C38.6953 91.5151 39.2608 91.9956 39.5742 92.6354C39.9431 93.3217 40.3991 93.4372 41.0495 93.0091C42.0108 92.3219 43.3164 92.3766 44.2169 93.1419C45.1173 93.9071 45.382 95.1867 44.8589 96.2464C44.3054 97.3351 43.0801 97.9052 41.8908 97.6275C41.6679 97.579 41.4538 97.4912 41.2336 97.429C40.9775 97.3415 40.695 97.3823 40.4741 97.5386C40.2532 97.6949 40.1208 97.9478 40.1182 98.2184C40.1147 98.3763 40.1215 98.5342 40.1385 98.6911C40.3051 100.911 40.472 103.13 40.6391 105.35C40.6842 105.956 40.4759 106.332 40.0441 106.451C39.7846 106.53 39.5028 106.481 39.2853 106.319C39.0679 106.156 38.9408 105.9 38.9431 105.629C38.8619 104.771 38.8175 103.91 38.7407 103.052C38.709 102.378 38.6314 101.707 38.5087 101.044C38.1516 99.4909 37.0778 98.6818 35.5535 98.4344C35.0842 98.3753 34.6116 98.3462 34.1385 98.3473C33.3818 98.3214 32.6563 98.6497 32.1761 99.2352C30.9802 100.55 28.9694 100.713 27.5773 99.6079C27.1374 99.2342 26.5907 99.0091 26.0152 98.9648C25.2273 98.9106 24.4995 99.3869 24.2337 100.131C23.7226 101.374 22.6522 102.3 21.3489 102.628C21.168 102.673 20.9845 102.706 20.7994 102.727C20.0935 102.824 19.819 103.144 19.8709 103.857C20.02 105.905 20.1779 107.953 20.3322 110.001C20.344 110.158 20.3631 110.316 20.3636 110.473C20.3892 110.719 20.3128 110.965 20.1523 111.153C19.9918 111.342 19.7612 111.456 19.5141 111.47C19.2668 111.49 19.0223 111.405 18.842 111.234C18.6617 111.064 18.5625 110.824 18.5694 110.576C18.4324 108.873 18.3091 107.169 18.1804 105.465C18.1729 105.364 18.1655 105.264 18.158 105.164Z" fill="#fde3ca" fill-rule="evenodd" opacity="1" stroke="none"/>
<path d="M53.3344 112.074C53.5116 114.423 53.6886 116.772 53.8655 119.121C54.0027 120.959 53.0465 122.066 51.2052 122.205C50.0165 122.295 48.8262 122.367 47.6401 122.485C47.2658 122.522 47.1669 122.409 47.1735 122.063C47.1761 121.747 47.1526 121.431 47.1033 121.118C47.0647 120.856 47.143 120.775 47.41 120.759C48.6569 120.679 49.9025 120.578 51.1485 120.483C51.9367 120.422 52.2166 120.104 52.1572 119.311C51.8023 114.571 51.4448 109.83 51.0848 105.09C51.0226 104.27 50.7062 104.006 49.8853 104.067C48.6535 104.159 47.4211 104.243 46.1909 104.353C45.9023 104.378 45.8168 104.295 45.8133 104.019C45.8088 103.66 45.7742 103.302 45.7343 102.945C45.7106 102.733 45.7561 102.643 45.9942 102.628C47.3699 102.537 48.7434 102.408 50.1198 102.331C51.4151 102.254 52.5515 103.187 52.728 104.473C52.9068 106.013 52.9891 107.563 53.1103 109.11C53.1877 110.098 53.2599 111.086 53.3344 112.074Z" fill="#94e6ed" fill-rule="evenodd" opacity="1" stroke="none"/>
<path d="M37.1912 127.585L38.8829 127.457C39.0925 127.999 39.3527 128.205 39.7937 128.181C40.2547 128.155 40.4978 127.905 40.6279 127.325L42.3201 127.199C42.5031 127.817 42.7837 128.018 43.4165 127.974C44.0612 127.928 44.7075 127.895 45.3491 127.822C45.7308 127.779 45.7257 127.915 45.5898 128.187C45.2036 129.064 44.3587 129.651 43.402 129.706C40.0946 129.964 36.7862 130.208 33.4781 130.458C31.0866 130.638 28.695 130.818 26.3034 130.997C25.3358 131.096 24.395 130.642 23.8712 129.822C23.6761 129.545 23.7232 129.46 24.0704 129.434C28.1095 129.139 32.148 128.837 36.186 128.526C36.8565 128.475 37.0987 128.245 37.1912 127.585Z" fill="#fde3ca" fill-rule="evenodd" opacity="1" stroke="none"/>
<path d="M25.8007 114.914L25.2209 107.227C25.2133 107.127 25.2044 107.027 25.1985 106.927C25.1592 106.27 25.4623 105.84 25.9879 105.804C26.515 105.768 26.8759 106.143 26.9262 106.807C27.3313 112.146 27.734 117.485 28.1342 122.824C28.1846 123.497 27.891 123.897 27.3452 123.935C26.9431 123.975 26.5721 123.715 26.471 123.324C26.4287 123.143 26.4032 122.958 26.3947 122.772C26.1952 120.152 25.9971 117.533 25.8007 114.914Z" fill="#4242db" fill-rule="evenodd" opacity="1" stroke="none"/>
<path d="M34.4086 114.308C34.6094 116.971 34.8097 119.633 35.0096 122.295C35.0586 122.956 34.7922 123.347 34.2735 123.41C33.8423 123.479 33.4321 123.2 33.3378 122.774C33.3034 122.62 33.2822 122.463 33.2744 122.306C32.8769 117.053 32.4804 111.8 32.0848 106.547C32.0263 105.77 32.2955 105.332 32.8543 105.286C33.4145 105.241 33.7539 105.636 33.8124 106.407C34.0117 109.041 34.2105 111.675 34.4086 114.308Z" fill="#4242db" fill-rule="evenodd" opacity="1" stroke="none"/>
<path d="M40.6279 127.325C40.4978 127.906 40.2547 128.155 39.7937 128.181C39.3526 128.205 39.0925 127.999 38.8829 127.457C38.9239 126.861 39.2143 126.504 39.6857 126.468C40.157 126.433 40.4965 126.741 40.6279 127.325Z" fill="#4242db" fill-rule="evenodd" opacity="1" stroke="none"/>
</g>
<g id="Layer-4" vectornator:layerName="Layer 4">
<path d="M50.3454 114.505C49.841 114.836 49.2726 115.182 48.6384 115.541" fill="#4242db" fill-rule="evenodd" opacity="1" stroke="none"/>
<path d="M49.9742 110.815C55.8342 109.882 56.5157 111.611 50.4814 114.505" fill="#4242db" fill-rule="evenodd" opacity="1" stroke="none"/>
</g>
</svg>
