<?xml version="1.0" encoding="utf-8"?>
<!-- Generator: Adobe Illustrator 27.0.0, SVG Export Plug-In . SVG Version: 6.00 Build 0)  -->
<svg version="1.1" id="Layer_1" xmlns:vectornator="http://vectornator.io"
	 xmlns="http://www.w3.org/2000/svg" xmlns:xlink="http://www.w3.org/1999/xlink" x="0px" y="0px" viewBox="0 0 1024 1024"
	 style="enable-background:new 0 0 1024 1024;" xml:space="preserve">
<style type="text/css">
	.st0{fill:none;stroke:#4242DB;stroke-width:72;stroke-linejoin:round;stroke-miterlimit:10;}
	.st1{clip-path:url(#SVGID_00000067939290151798970970000014563080210813064361_);}
	.st2{fill:#4242DB;}
	.st3{fill:#CCCC33;}
	.st4{fill:#FFFFFF;}
</style>
<g id="Layer-1" vectornator:layerName="Layer 1">
	<path id="Fill_2_00000163069546776594018370000003784111152878632595_" class="st0" d="M47.7,512C47.7,255.6,255.6,47.7,512,47.7
		S976.3,255.6,976.3,512S768.4,976.3,512,976.3S47.7,768.4,47.7,512z"/>
	<g>
		<defs>
			
				<ellipse id="SVGID_1_" transform="matrix(0.7071 -0.7071 0.7071 0.7071 -212.0777 512.0008)" cx="512" cy="512" rx="500.3" ry="500.3"/>
		</defs>
		<clipPath id="SVGID_00000165227527714852805620000011579314322464657586_">
			<use xlink:href="#SVGID_1_"  style="overflow:visible;"/>
		</clipPath>
		<g style="clip-path:url(#SVGID_00000165227527714852805620000011579314322464657586_);">
			<g vectornator:layerName="Group 1">
				<g vectornator:layerName="(curve) 1">
					<path vectornator:layerName="path" class="st2" d="M958.8,1498.2c-38.7-4.4-46.4-7.4-60.4-14.7c-13.4-6.8-26.2-14.6-38.5-23.3
						c-5.2-3.9-11.4-6.5-17.8-7.5c-4.4-0.4-8.8,0.6-12.6,2.9c-8.2,4.8-14,12.7-16,22c-9.4,40.2-12.2,72.6-64.8,72.5H431.1
						c-173.2,0.1-138.6-76.3-18-130.3c4.2-1.7,1.4-5.8-1-7.6c-88.1-104.5-137.3-179.3-139.2-340c0-29.1,2.6-58.1,7.9-86.6v0
						c11-60.1,33.6-117.4,66.6-168.8l0-0.1c18.6-29.1,40.3-56,64.7-80.4c56.6-54.2,56.5-151.9,0-206.3c-0.3,0-0.3,0-0.3-0.3
						c-62.4-44.6-106.4-49.8-136-45.1c-4.8,0.7-54,8.7-68.5-5.9l-0.1-0.1c-8.6-8.8-7.7-21.9-7.5-24.6c0-1.5,0.3-3,0.7-4.4
						c26.2-80.7,96.7-128.1,179.5-136.9c5.1-0.4,10.1-2.1,14.4-4.9c40.3-28,74.4-44.3,88.3-48.8c47.2-15.4,102.3-10.7,158.1,8.6
						c27,8.6,51.9,22.9,73,41.8c20.1,18.1,36.1,40.2,46.9,64.9c15.3,36.2,14.6,69,14.2,89.3c-0.2,9.7-0.9,19.5-2.1,29.1
						c-3.3,25.8-9.6,44.7-14.7,68c-16.7,77.1-19.2,137.4,44.2,332.1c11.6,35.6,42.4,100.4,71.9,187.5
						c24.6,72.4,30.6,179.6,29.1,263.3c-0.6,33.2,9,60,22.2,87.8c3.2,6.8,14.4,22.8,32.9,24.5
						C992.9,1459.2,992.2,1502.1,958.8,1498.2z"/>
					<path vectornator:layerName="path" class="st3" d="M352.3,357c-62.7,1.5-99.7,70-101.9,79.2c-0.6,2.7-0.6,5.6,0.2,8.3
						c0.9,2.9,3,5.4,5.7,6.8c2.3,1.1,5,1.4,7.5,0.6c4.3-0.8,7-1.6,11.6-2.3c15.9-2.4,61.1,3.1,98.8,13.3c2.6,0.7,5.4,0.3,7.7-1
						c2.3-1.4,4-3.6,4.7-6.2c8-31,9.4-86.4-21.4-97.2C361.1,357.2,356.7,356.7,352.3,357z"/>
					<path vectornator:layerName="path" class="st4" d="M506.8,386c-30.2-0.4-30.1-46.7,0-46.9C537.4,339.2,537.4,385.7,506.8,386z"
						/>
					<path vectornator:layerName="path" class="st4" d="M434.3,799.4c-6.8,8.4-13.9,18.4-13.9,18.4c-5.1,7.1-9.1,13.2-11.8,17.4
						l0,0.1c-28.2,44-47.6,93.1-57,144.6v0c-4.5,24.5-6.8,49.3-6.8,74.2c-0.2,48.9,7.9,97.5,24.1,143.6
						c15.2,40.8,37.2,78.7,65.1,112.2c21.2,25.6,49.4,44.4,81.2,54.2c0.2,0.1,0.4,0.1,0.6,0.2c9,2.7,119.1,30.3,170.9-9.6
						c46-35.4-39.2-246.5-65.7-299.4c-20.7-41.1-42.6-81.9-51.9-106.9c-21.5-57.8-20.3-110.7-37.9-177.7c-2-7.5-6.9-18.2-16.8-22.1
						C487.5,738,442.1,789.8,434.3,799.4z"/>
				</g>
			</g>
		</g>
	</g>
</g>
</svg>
