<?xml version="1.0" encoding="UTF-8" standalone="no"?>
<!DOCTYPE svg PUBLIC "-//W3C//DTD SVG 1.1//EN" "http://www.w3.org/Graphics/SVG/1.1/DTD/svg11.dtd">

<!-- Created with Vectornator (http://vectornator.io/) -->
<svg height="100%" stroke-miterlimit="10" style="fill-rule:nonzero;clip-rule:evenodd;stroke-linecap:round;stroke-linejoin:round;" version="1.1" viewBox="0 0 512 512" width="100%" xml:space="preserve" xmlns="http://www.w3.org/2000/svg" xmlns:vectornator="http://vectornator.io" xmlns:xlink="http://www.w3.org/1999/xlink">
<metadata>
<vectornator:setting key="IsTimeLapseWatermarkDisabled" value="false"/>
<vectornator:setting key="UndoHistoryDisabled" value="true"/>
<vectornator:setting key="VNDimensionsVisible" value="true"/>
<vectornator:setting key="VNSnapToGuides" value="true"/>
<vectornator:setting key="WDCMYKEnabledKey" value="false"/>
<vectornator:setting key="WDDisplayWhiteBackground" value="false"/>
<vectornator:setting key="WDDynamicGuides" value="false"/>
<vectornator:setting key="WDGuidesVisible" value="true"/>
<vectornator:setting key="WDIsolateActiveLayer" value="false"/>
<vectornator:setting key="WDOutlineMode" value="false"/>
<vectornator:setting key="WDRulersVisible" value="true"/>
<vectornator:setting key="WDSnapToEdges" value="false"/>
<vectornator:setting key="WDSnapToGrid" value="false"/>
<vectornator:setting key="WDSnapToPoints" value="false"/>
<vectornator:setting key="WDUnits" value="Points"/>
</metadata>
<defs/>
<g id="Untitled" vectornator:layerName="Untitled">
<g opacity="1">
<path d="M394.389 481.61C379.787 479.932 376.889 478.83 371.608 476.084C366.568 473.507 361.718 470.572 357.098 467.302C355.12 465.826 352.815 464.851 350.379 464.461C348.718 464.304 347.05 464.692 345.629 465.565C342.541 467.362 340.349 470.371 339.587 473.861C336.047 489.001 335.003 501.221 315.17 501.195L195.408 501.195C130.089 501.222 143.138 472.408 188.619 452.057C190.209 451.407 189.159 449.859 188.26 449.181C155.05 409.777 136.496 381.585 135.762 320.985C135.757 310.027 136.757 299.09 138.749 288.314L138.749 288.301C142.902 265.656 151.43 244.039 163.857 224.659L163.871 224.631C170.887 213.673 179.064 203.502 188.26 194.297C209.594 173.862 209.552 137.015 188.26 116.497C188.135 116.497 188.135 116.497 188.135 116.373C164.617 99.56 148.012 97.6105 136.854 99.3526C135.043 99.6292 116.475 102.643 111.041 97.1266L110.994 97.0793C107.735 93.7432 108.072 88.8037 108.165 87.79C108.18 87.2248 108.268 86.6639 108.425 86.121C118.316 55.6886 144.889 37.8274 176.107 34.5109C178.039 34.3594 179.902 33.7273 181.527 32.6721C196.73 22.1304 209.576 15.9713 214.839 14.2592C232.645 8.46846 253.432 10.2313 274.437 17.507C284.623 20.7642 294.007 26.1372 301.972 33.2739C309.54 40.0863 315.568 48.434 319.655 57.7603C325.41 71.4131 325.167 83.7915 325.017 91.4417C324.945 95.1138 324.675 98.7793 324.209 102.422C322.963 112.14 320.572 119.285 318.669 128.059C312.365 157.128 311.425 179.869 335.327 253.288C339.7 266.719 351.316 291.147 362.453 324.002C371.714 351.322 373.976 391.711 373.417 423.297C373.195 435.821 376.797 445.904 381.776 456.401C382.988 458.954 387.203 464.976 394.199 465.648C407.219 466.9 406.961 483.055 394.389 481.61Z" fill="#4242db" fill-rule="evenodd" opacity="1" stroke="none"/>
<path d="M165.699 51.2677C142.069 51.8511 128.116 77.6688 127.279 81.1331C127.035 82.1596 127.063 83.232 127.359 84.2446C127.714 85.3441 128.481 86.2633 129.499 86.8088C130.379 87.2379 131.387 87.3247 132.327 87.0522C133.947 86.7396 134.964 86.454 136.707 86.1936C142.692 85.2994 159.731 87.3807 173.97 91.1963C174.95 91.4619 175.996 91.3243 176.875 90.8141C177.754 90.304 178.392 89.4636 178.647 88.4803C181.661 76.7944 182.206 55.9051 170.574 51.8354C169 51.3367 167.345 51.144 165.699 51.2677Z" fill="#cccc33" fill-rule="evenodd" opacity="1" stroke="none"/>
<path d="M223.952 62.2217C212.569 62.0885 212.593 44.6021 223.952 44.5419C235.468 44.5778 235.48 62.1127 223.952 62.2217Z" fill="#ffffff" fill-rule="evenodd" opacity="1" stroke="none"/>
<path d="M196.591 218.11C194.015 221.296 191.346 225.03 191.346 225.03C189.419 227.727 187.914 230.015 186.908 231.588L186.896 231.611C176.251 248.214 168.945 266.733 165.387 286.131L165.387 286.143C163.68 295.375 162.824 304.744 162.828 314.132C162.742 332.574 165.82 350.895 171.928 368.297C177.653 383.684 185.954 397.985 196.474 410.589C204.47 420.23 215.105 427.33 227.076 431.017C227.158 431.042 227.239 431.067 227.321 431.092C230.73 432.125 272.223 442.514 291.754 427.459C309.093 414.094 276.99 334.506 266.97 314.576C259.183 299.089 250.889 283.706 247.384 274.251C239.295 252.438 239.745 232.519 233.106 207.242C232.363 204.417 230.499 200.361 226.788 198.911C216.654 194.95 199.543 214.459 196.591 218.11Z" fill="#ffffff" fill-rule="evenodd" opacity="1" stroke="none"/>
</g>
</g>
</svg>
