<?xml version="1.0" encoding="UTF-8" standalone="no"?>
<!DOCTYPE svg PUBLIC "-//W3C//DTD SVG 1.1//EN" "http://www.w3.org/Graphics/SVG/1.1/DTD/svg11.dtd">
<!-- Created with Vectornator (http://vectornator.io/) -->
<svg height="100%" stroke-miterlimit="10" style="fill-rule:nonzero;clip-rule:evenodd;stroke-linecap:round;stroke-linejoin:round;" version="1.1" viewBox="0 0 1024 1024" width="100%" xml:space="preserve" xmlns="http://www.w3.org/2000/svg" xmlns:vectornator="http://vectornator.io" xmlns:xlink="http://www.w3.org/1999/xlink">
<defs/>
<clipPath id="ArtboardFrame">
<rect height="1024" width="1024" x="0" y="0"/>
</clipPath>
<g clip-path="url(#ArtboardFrame)" id="Layer-1" vectornator:layerName="Layer 1">
<path d="M98.9949 622.254C63.6396 502.046 295.217 383.605 502.046 332.34C708.875 281.075 890.955 296.985 926.31 417.193" fill="none" opacity="0" stroke="#000000" stroke-linecap="butt" stroke-linejoin="round" stroke-width="4" vectornator:layerName="Curve 3"/>
<path d="M98.9949 622.254C63.6396 502.046 295.217 383.605 502.046 332.34C708.875 281.075 890.955 296.985 926.31 417.193" fill="none" opacity="0" stroke="#000000" stroke-linecap="butt" stroke-linejoin="round" stroke-width="4" vectornator:layerName="Curve 10"/>
<path d="M98.9949 622.254C134.35 742.462 240.416 707.107 360.624 700.036C480.833 692.965 629.325 742.462 763.675 664.68C898.026 586.899 945.981 488.003 926.31 417.193C892.772 296.465 786.829 428.735 580 480C373.171 531.265 63.0474 499.94 98.4027 620.148" fill="#b1a3e3" fill-rule="nonzero" opacity="1" stroke="none" vectornator:layerName="Curve 11"/>
<g opacity="1" vectornator:layerName="Group 2">
<clipPath clip-rule="nonzero" id="ClipPath">
<path d="M0 0L0 638.938C1.01725e-05 638.938 32.005 622.25 99 622.25C134.355 742.458 240.417 707.102 360.625 700.031C480.833 692.96 629.337 742.469 763.688 664.688C898.038 586.906 946.525 485.911 926.312 417.188C992.003 417.188 1024 440.219 1024 440.219L1024 0L0 0Z"/>
</clipPath>
<g clip-path="url(#ClipPath)">
<g opacity="1" vectornator:layerName="(curve)">
<path d="M722.318 963.799C701.292 961.382 697.119 959.795 689.515 955.842C682.257 952.131 675.275 947.905 668.621 943.196C665.774 941.071 662.455 939.668 658.947 939.106C656.555 938.88 654.154 939.438 652.107 940.696C647.661 943.283 644.505 947.616 643.407 952.641C638.31 974.441 636.807 992.038 608.248 992L435.801 992C341.746 992.038 360.536 950.549 426.026 921.245C428.315 920.309 426.802 918.08 425.508 917.104C377.688 860.365 350.971 819.771 349.916 732.512C349.908 716.732 351.348 700.985 354.216 685.468L354.216 685.448C360.196 652.842 372.476 621.715 390.369 593.809L390.389 593.769C400.492 577.99 412.266 563.345 425.508 550.09C456.227 520.665 456.167 467.609 425.508 438.065C425.329 438.065 425.329 438.065 425.329 437.885C391.464 413.677 367.554 410.869 351.488 413.378C348.88 413.776 322.143 418.116 314.319 410.173L314.252 410.105C309.559 405.301 310.044 398.188 310.178 396.729C310.199 395.915 310.325 395.107 310.553 394.325C324.795 350.505 363.057 324.786 408.009 320.011C410.79 319.793 413.473 318.883 415.813 317.363C437.705 302.184 456.202 293.315 463.78 290.85C489.42 282.512 519.35 285.05 549.596 295.527C564.264 300.217 577.775 307.954 589.245 318.23C600.142 328.039 608.822 340.059 614.707 353.488C622.993 373.147 622.644 390.971 622.428 401.987C622.323 407.274 621.935 412.552 621.264 417.798C619.471 431.79 616.027 442.08 613.287 454.713C604.21 496.571 602.856 529.316 637.274 635.034C643.57 654.373 660.296 689.547 676.333 736.856C689.668 776.194 692.925 834.351 692.119 879.833C691.8 897.866 696.987 912.385 704.157 927.499C705.901 931.175 711.97 939.847 722.044 940.815C740.792 942.618 740.421 965.879 722.318 963.799Z" fill="#fff8c8" fill-rule="nonzero" opacity="1" stroke="none" vectornator:layerName="path"/>
</g>
</g>
</g>
<g opacity="1" vectornator:layerName="Group 1">
<clipPath clip-rule="nonzero" id="ClipPath_2">
<path d="M0 0L0 638.938C1.01725e-05 638.938 32.005 622.25 99 622.25C134.355 742.458 240.417 707.102 360.625 700.031C480.833 692.96 629.337 742.469 763.688 664.688C898.038 586.906 946.525 485.911 926.312 417.188C992.003 417.188 1024 440.219 1024 440.219L1024 0L0 0Z"/>
</clipPath>
<g clip-path="url(#ClipPath_2)">
<path d="M484.312 32C472.6 32 462.545 40.4945 460.625 52.0625L445.906 140.469C424.381 144.273 403.444 149.837 383.344 157.125L326.469 88.0312C319.029 78.9592 306.114 76.596 295.938 82.5L248.062 110.156C237.887 116.012 233.466 128.368 237.594 139.312L269.031 223.281C252.514 237.196 237.228 252.515 223.312 269.031L139.312 237.594C128.368 233.466 116.012 237.887 110.156 248.062L82.5 295.938C76.596 306.113 78.9592 319.029 88.0312 326.469L157.125 383.344C149.837 403.444 144.273 424.381 140.469 445.906L52.0625 460.625C40.4945 462.593 32 472.584 32 484.344L32 539.688C32 551.4 40.4945 561.455 52.0625 563.375L140.469 578.094C144.273 599.619 149.837 620.556 157.125 640.656L88.0312 697.531C78.9592 704.971 76.644 717.886 82.5 728.062L110.156 775.938C116.012 786.114 128.369 790.534 139.312 786.406L223.281 754.969C237.196 771.486 252.515 786.772 269.031 800.688L237.594 884.625C233.466 895.617 237.934 907.956 248.062 913.812L295.938 941.469C306.114 947.325 319.029 944.962 326.469 935.938L367.688 885.875C335.686 843.144 317.759 802.998 316.906 732.5C316.906 731.134 316.977 729.772 317 728.406C257.863 675.088 220.688 597.892 220.688 512C220.688 351.114 351.114 220.688 512 220.688C672.886 220.687 803.313 351.114 803.312 512C803.312 596.524 767.283 672.598 709.781 725.812C721.821 764.977 724.898 820.176 724.125 863.844C723.806 881.876 728.986 896.385 736.156 911.5C737.9 915.176 743.957 923.844 754.031 924.812C754.806 924.887 755.415 925.137 756.125 925.281L775.938 913.844C786.114 907.988 790.534 895.631 786.406 884.688L754.969 800.719C771.486 786.804 786.772 771.485 800.688 754.969L884.625 786.406C895.617 790.534 907.956 786.066 913.812 775.938L941.469 728.062C947.325 717.886 944.962 704.971 935.938 697.531L866.875 640.656C874.163 620.556 879.727 599.619 883.531 578.094L971.938 563.375C983.505 561.407 992 551.416 992 539.656L992 484.312C992 472.6 983.505 462.545 971.938 460.625L883.531 445.906C879.727 424.381 874.163 403.444 866.875 383.344L935.969 326.469C945.041 319.029 947.356 306.114 941.5 295.938L913.844 248.062C907.988 237.886 895.631 233.466 884.688 237.594L800.719 269.031C786.804 252.514 771.485 237.228 754.969 223.312L786.406 139.375C790.534 128.383 786.066 116.044 775.938 110.188L728.062 82.5312C717.886 76.6752 704.971 79.0385 697.531 88.0625L640.656 157.125C620.556 149.837 599.619 144.273 578.094 140.469L563.375 52.0625C561.407 40.4945 551.416 32 539.656 32L484.312 32Z" fill="#89d8ff" fill-rule="nonzero" opacity="1" stroke="none" vectornator:layerName="Curve 5"/>
</g>
</g>
<g opacity="1" vectornator:layerName="Group 3">
<clipPath clip-rule="nonzero" id="ClipPath_3">
<path d="M0 0L0 638.938C1.01725e-05 638.938 32.005 622.25 99 622.25C134.355 742.458 240.417 707.102 360.625 700.031C480.833 692.96 629.337 742.469 763.688 664.688C898.038 586.906 946.525 485.911 926.312 417.188C992.003 417.188 1024 440.219 1024 440.219L1024 0L0 0Z"/>
</clipPath>
<g clip-path="url(#ClipPath_3)">
<path d="M484.312 32C472.6 32 462.545 40.4945 460.625 52.0625L445.906 140.469C424.381 144.273 403.444 149.837 383.344 157.125L326.469 88.0312C319.029 78.9592 306.114 76.596 295.938 82.5L248.062 110.156C237.887 116.012 233.466 128.368 237.594 139.312L269.031 223.281C252.514 237.196 237.228 252.515 223.312 269.031L139.312 237.594C128.368 233.466 116.012 237.887 110.156 248.062L82.5 295.938C76.596 306.113 78.9592 319.029 88.0312 326.469L157.125 383.344C149.837 403.444 144.273 424.381 140.469 445.906L52.0625 460.625C40.4945 462.593 32 472.584 32 484.344L32 539.688C32 551.4 40.4945 561.455 52.0625 563.375L140.469 578.094C144.273 599.619 149.837 620.556 157.125 640.656L88.0312 697.531C78.9592 704.971 76.644 717.886 82.5 728.062L110.156 775.938C116.012 786.114 128.369 790.534 139.312 786.406L223.281 754.969C237.196 771.486 252.515 786.772 269.031 800.688L237.594 884.625C233.466 895.617 237.934 907.956 248.062 913.812L295.938 941.469C306.114 947.325 319.029 944.962 326.469 935.938L367.688 885.875C335.686 843.144 317.759 802.998 316.906 732.5C316.906 731.134 316.977 729.772 317 728.406C257.863 675.088 220.688 597.892 220.688 512C220.688 351.114 351.114 220.688 512 220.688C672.886 220.687 803.313 351.114 803.312 512C803.312 596.524 767.283 672.598 709.781 725.812C721.821 764.977 724.898 820.176 724.125 863.844C723.806 881.876 728.986 896.385 736.156 911.5C737.9 915.176 743.957 923.844 754.031 924.812C754.806 924.887 755.415 925.137 756.125 925.281L775.938 913.844C786.114 907.988 790.534 895.631 786.406 884.688L754.969 800.719C771.486 786.804 786.772 771.485 800.688 754.969L884.625 786.406C895.617 790.534 907.956 786.066 913.812 775.938L941.469 728.062C947.325 717.886 944.962 704.971 935.938 697.531L866.875 640.656C874.163 620.556 879.727 599.619 883.531 578.094L971.938 563.375C983.505 561.407 992 551.416 992 539.656L992 484.312C992 472.6 983.505 462.545 971.938 460.625L883.531 445.906C879.727 424.381 874.163 403.444 866.875 383.344L935.969 326.469C945.041 319.029 947.356 306.114 941.5 295.938L913.844 248.062C907.988 237.886 895.631 233.466 884.688 237.594L800.719 269.031C786.804 252.514 771.485 237.228 754.969 223.312L786.406 139.375C790.534 128.383 786.066 116.044 775.938 110.188L728.062 82.5312C717.886 76.6752 704.971 79.0385 697.531 88.0625L640.656 157.125C620.556 149.837 599.619 144.273 578.094 140.469L563.375 52.0625C561.407 40.4945 551.416 32 539.656 32L484.312 32Z" fill="#ffffff" fill-rule="nonzero" opacity="0" stroke="#000000" stroke-linecap="round" stroke-linejoin="round" stroke-width="4" vectornator:layerName="Curve 5"/>
</g>
</g>
<path d="M922.781 407.11C942.272 456.174 952.986 509.678 952.986 565.685C952.986 803.017 760.591 995.412 523.259 995.412C299.24 995.412 115.257 823.995 95.322 605.172" fill="none" opacity="0" stroke="#000000" stroke-linecap="butt" stroke-linejoin="round" stroke-width="4" vectornator:layerName="Oval 1"/>
<path d="M926.312 417.188C946.525 485.911 898.038 586.906 763.688 664.688C629.337 742.469 480.833 692.96 360.625 700.031C240.417 707.102 134.355 742.458 99 622.25C32.005 622.25 1.01725e-05 638.938 0 638.938L0 730.656L0 1024L1024 1024L1024 730.656L1024 440.219C1024 440.219 992.003 417.188 926.312 417.188Z" fill="none" opacity="0" stroke="#000000" stroke-linecap="butt" stroke-linejoin="round" stroke-width="4" vectornator:layerName="Curve 9"/>
<g opacity="1" vectornator:layerName="Group 4"/>
<path d="M94.9688 600.906C94.9148 600.724 95.0163 601.905 95.3125 605.156C115.247 823.98 299.231 995.406 523.25 995.406C524.151 995.406 525.038 995.349 525.938 995.344C361.908 971.414 228.196 857.022 179.656 705.781C142.522 697.101 114.076 674.234 99 622.25C96.7452 614.475 95.1306 601.452 94.9688 600.906Z" fill="#ffd3d0" fill-rule="nonzero" opacity="1" stroke="#ffd3d0" stroke-linecap="butt" stroke-linejoin="round" stroke-width="4" vectornator:layerName="Curve 12"/>
<path d="M925.375 414.156C949.485 487.817 893.839 589.336 763.688 664.688C629.337 742.469 480.833 692.96 360.625 700.031C292.343 704.048 228.488 717.195 179.656 705.781C228.196 857.022 361.908 971.414 525.938 995.344C762.026 993.891 953 802.118 953 565.688C953 512.326 943.151 461.299 925.375 414.156Z" fill="#ffc4bf" fill-rule="nonzero" opacity="1" stroke="#ffc4bf" stroke-linecap="round" stroke-linejoin="round" stroke-width="4" vectornator:layerName="Curve 13"/>
</g>
</svg>
