<svg xmlns="http://www.w3.org/2000/svg" xmlns:xlink="http://www.w3.org/1999/xlink" viewBox="0 0 256 256"><defs><style>.a{fill:none;}.b,.h{fill:#5bcefa;}.b,.c{stroke:#fff;stroke-linecap:round;stroke-linejoin:round;stroke-width:14.1093px;}.b,.c,.d,.e,.f,.g,.h,.j{fill-rule:evenodd;}.c,.g{fill:#fff;}.d,.j{fill:#f5a9b8;}.d{fill-opacity:0;}.e{fill:#4242db;}.f{fill:#cc3;}.i{clip-path:url(#a);}.k{clip-path:url(#b);}.l{opacity:0;}</style><clipPath id="a"><path class="a" d="M121.0781,8a6.0086,6.0086,0,0,0-5.9218,5.0156l-3.68,22.1016a93.7455,93.7455,0,0,0-15.6406,4.1641L81.6172,22.0078a5.9838,5.9838,0,0,0-7.6329-1.3828L62.0157,27.539a5.9793,5.9793,0,0,0-2.6173,7.2891L67.2578,55.82a94.9088,94.9088,0,0,0-11.43,11.4376l-21-7.8594a5.9793,5.9793,0,0,0-7.2891,2.6173L20.625,73.9843a5.9838,5.9838,0,0,0,1.3828,7.6329L39.2813,95.8359a93.7455,93.7455,0,0,0-4.1641,15.6406l-22.1016,3.68A6.0167,6.0167,0,0,0,8,121.086v13.8359a6.0086,6.0086,0,0,0,5.0156,5.9218l22.1016,3.68a93.72,93.72,0,0,0,4.1641,15.64L22.0078,174.3831a5.9982,5.9982,0,0,0-1.3828,7.6331l6.914,11.9676a5.9786,5.9786,0,0,0,7.2891,2.6173l20.9921-7.859a94.9112,94.9112,0,0,0,11.4376,11.43l-7.8594,20.9835a5.998,5.998,0,0,0,2.6173,7.2973l11.9686,6.9136a6.0115,6.0115,0,0,0,7.6329-1.3827l10.3046-12.515c-8-10.6822-12.4821-20.72-12.6953-38.3436,0-.3414.0177-.6829.0234-1.0243a72.8357,72.8357,0,1,1,98.1949-.6477c3.0109,9.79,3.78,23.5909,3.5866,34.5073-.08,4.5079,1.2148,8.1354,3.0081,11.9139a5.9731,5.9731,0,0,0,4.4684,3.3284,4.8523,4.8523,0,0,1,.5235.1171l4.9524-2.8585a5.9787,5.9787,0,0,0,2.6173-7.2889l-7.859-20.9933a94.8127,94.8127,0,0,0,11.43-11.4371l20.9835,7.859a5.9965,5.9965,0,0,0,7.2973-2.6173l6.9136-11.9676a6.0118,6.0118,0,0,0-1.3827-7.6331l-17.2656-14.2194a93.6162,93.6162,0,0,0,4.165-15.64l22.1009-3.68A6.0167,6.0167,0,0,0,248,134.914V121.0781a6.0085,6.0085,0,0,0-5.0159-5.9218l-22.1009-3.68a93.6413,93.6413,0,0,0-4.165-15.6406l17.274-14.2187a5.998,5.998,0,0,0,1.3828-7.6329l-6.9136-11.9686a5.9794,5.9794,0,0,0-7.2889-2.6173l-20.9933,7.8594a94.81,94.81,0,0,0-11.4371-11.43l7.859-20.9844a5.9966,5.9966,0,0,0-2.6173-7.2969l-11.9676-6.914a6.0123,6.0123,0,0,0-7.6331,1.3829L160.1637,39.2813a93.72,93.72,0,0,0-15.64-4.1641l-3.68-22.1016A6.0168,6.0168,0,0,0,134.914,8Z"/></clipPath><clipPath id="b"><path class="a" d="M180.58,240.95c-5.2572-.6038-6.3-1-8.2018-1.9894a42.6255,42.6255,0,0,1-5.2233-3.1605,5.4737,5.4737,0,0,0-2.4183-1.0229,2.77,2.77,0,0,0-1.71.3979,4.5819,4.5819,0,0,0-2.1742,2.9855c-1.2741,5.4505-1.6508,9.85-8.79,9.84H108.95c-23.5137.01-18.8163-10.3633-2.4439-17.6889.5724-.2342.1941-.7915-.1294-1.0356-11.9551-14.1842-18.6342-24.333-18.8981-46.1475a64.56,64.56,0,0,1,1.075-11.7615v-.0042a63.7371,63.7371,0,0,1,9.0385-22.9094l.0049-.0113a65.2213,65.2213,0,0,1,8.78-10.9191c7.68-7.3562,7.6648-20.62,0-28.0063-.0447,0-.0447,0-.0447-.0449-8.4662-6.0522-14.4438-6.754-18.46-6.1268-.652.1-7.3363,1.1846-9.2922-.8013l-.0168-.0171a4.3911,4.3911,0,0,1-1.0186-3.3439,2.39,2.39,0,0,1,.0937-.6009c3.5606-10.9551,13.1262-17.3847,24.364-18.5786a4.183,4.183,0,0,0,1.9511-.6619,55.8923,55.8923,0,0,1,11.9918-6.6283c6.41-2.0845,13.8925-1.45,21.4539,1.1691a27.3264,27.3264,0,0,1,9.9126,5.6758,25.7644,25.7644,0,0,1,6.3647,8.8147,28.2192,28.2192,0,0,1,1.93,12.1245,36.6738,36.6738,0,0,1-.2906,3.9529c-.4487,3.498-1.3094,6.07-1.9937,9.2287-2.27,10.4644-2.6074,18.6507,5.9965,45.08,1.5746,4.8352,5.7552,13.6282,9.7651,25.456,3.334,9.8343,4.1481,24.374,3.9464,35.7433-.08,4.5093,1.2162,8.1382,3.01,11.9167a5.9829,5.9829,0,0,0,4.4712,3.33C185.1979,235.6543,185.1047,241.47,180.58,240.95Z"/></clipPath></defs><path class="b" d="M121.0781,8a6.0086,6.0086,0,0,0-5.9218,5.0156l-3.68,22.1016a93.7455,93.7455,0,0,0-15.6406,4.1641L81.6172,22.0078a5.9838,5.9838,0,0,0-7.6329-1.3828L62.0157,27.539a5.9793,5.9793,0,0,0-2.6173,7.2891L67.2578,55.82a94.9088,94.9088,0,0,0-11.43,11.4376l-21-7.8594a5.9793,5.9793,0,0,0-7.2891,2.6173L20.625,73.9843a5.9838,5.9838,0,0,0,1.3828,7.6329L39.2813,95.8359a93.7455,93.7455,0,0,0-4.1641,15.6406l-22.1016,3.68A6.0167,6.0167,0,0,0,8,121.086v13.8359a6.0086,6.0086,0,0,0,5.0156,5.9218l22.1016,3.68a93.72,93.72,0,0,0,4.1641,15.64L22.0078,174.3831a5.9982,5.9982,0,0,0-1.3828,7.6331l6.914,11.9676a5.9786,5.9786,0,0,0,7.2891,2.6173l20.9921-7.859a94.9112,94.9112,0,0,0,11.4376,11.43l-7.8594,20.9835a5.998,5.998,0,0,0,2.6173,7.2973l11.9686,6.9136a6.0115,6.0115,0,0,0,7.6329-1.3827l10.3046-12.515c-8-10.6822-12.4821-20.72-12.6953-38.3436,0-.3414.0177-.6829.0234-1.0243a72.8357,72.8357,0,1,1,98.1949-.6477c3.0109,9.79,3.78,23.5909,3.5866,34.5073-.08,4.5079,1.2148,8.1354,3.0081,11.9139a5.9731,5.9731,0,0,0,4.4684,3.3284,4.8523,4.8523,0,0,1,.5235.1171l4.9524-2.8585a5.9787,5.9787,0,0,0,2.6173-7.2889l-7.859-20.9933a94.8127,94.8127,0,0,0,11.43-11.4371l20.9835,7.859a5.9965,5.9965,0,0,0,7.2973-2.6173l6.9136-11.9676a6.0118,6.0118,0,0,0-1.3827-7.6331l-17.2656-14.2194a93.6162,93.6162,0,0,0,4.165-15.64l22.1009-3.68A6.0167,6.0167,0,0,0,248,134.914V121.0781a6.0085,6.0085,0,0,0-5.0159-5.9218l-22.1009-3.68a93.6413,93.6413,0,0,0-4.165-15.6406l17.274-14.2187a5.998,5.998,0,0,0,1.3828-7.6329l-6.9136-11.9686a5.9794,5.9794,0,0,0-7.2889-2.6173l-20.9933,7.8594a94.81,94.81,0,0,0-11.4371-11.43l7.859-20.9844a5.9966,5.9966,0,0,0-2.6173-7.2969l-11.9676-6.914a6.0123,6.0123,0,0,0-7.6331,1.3829L160.1637,39.2813a93.72,93.72,0,0,0-15.64-4.1641l-3.68-22.1016A6.0168,6.0168,0,0,0,134.914,8Z"/><path class="b" d="M180.58,240.95c-5.2572-.6038-6.3-1-8.2018-1.9894a42.6255,42.6255,0,0,1-5.2233-3.1605,5.4737,5.4737,0,0,0-2.4183-1.0229,2.77,2.77,0,0,0-1.71.3979,4.5819,4.5819,0,0,0-2.1742,2.9855c-1.2741,5.4505-1.6508,9.85-8.79,9.84H108.95c-23.5137.01-18.8163-10.3633-2.4439-17.6889.5724-.2342.1941-.7915-.1294-1.0356-11.9551-14.1842-18.6342-24.333-18.8981-46.1475a64.56,64.56,0,0,1,1.075-11.7615v-.0042a63.7371,63.7371,0,0,1,9.0385-22.9094l.0049-.0113a65.2213,65.2213,0,0,1,8.78-10.9191c7.68-7.3562,7.6648-20.62,0-28.0063-.0447,0-.0447,0-.0447-.0449-8.4662-6.0522-14.4438-6.754-18.46-6.1268-.652.1-7.3363,1.1846-9.2922-.8013l-.0168-.0171a4.3911,4.3911,0,0,1-1.0186-3.3439,2.39,2.39,0,0,1,.0937-.6009c3.5606-10.9551,13.1262-17.3847,24.364-18.5786a4.183,4.183,0,0,0,1.9511-.6619,55.8923,55.8923,0,0,1,11.9918-6.6283c6.41-2.0845,13.8925-1.45,21.4539,1.1691a27.3264,27.3264,0,0,1,9.9126,5.6758,25.7644,25.7644,0,0,1,6.3647,8.8147,28.2192,28.2192,0,0,1,1.93,12.1245,36.6738,36.6738,0,0,1-.2906,3.9529c-.4487,3.498-1.3094,6.07-1.9937,9.2287-2.27,10.4644-2.6074,18.6507,5.9965,45.08,1.5746,4.8352,5.7552,13.6282,9.7651,25.456,3.334,9.8343,4.1481,24.374,3.9464,35.7433-.08,4.5093,1.2162,8.1382,3.01,11.9167a5.9829,5.9829,0,0,0,4.4712,3.33C185.1979,235.6543,185.1047,241.47,180.58,240.95Z"/><path class="c" d="M98.2554,86.0348c-8.5063.21-13.5289,9.504-13.83,10.7509a2.1877,2.1877,0,0,0,.0289,1.12,1.6067,1.6067,0,0,0,.77.923,1.4193,1.4193,0,0,0,1.0177.0876c.5834-.1124.9493-.2153,1.5767-.309,2.1547-.3219,8.2884.4273,13.4139,1.8008a1.37,1.37,0,0,0,1.684-.9776c1.0847-4.2067,1.281-11.7264-2.9063-13.1915A4.6566,4.6566,0,0,0,98.2554,86.0348Z"/><path class="c" d="M119.2254,89.9781c-4.0976-.0479-4.0889-6.3427,0-6.3644C123.3711,83.6267,123.3754,89.9389,119.2254,89.9781Z"/><path class="c" d="M109.3759,146.0952c-.9271,1.1457-1.8879,2.49-1.8879,2.49-.6938.9708-1.2354,1.7947-1.5976,2.3605l-.0044.0085a54.6162,54.6162,0,0,0-7.7428,19.6261v.0042a55.3062,55.3062,0,0,0-.9211,10.0755,58.06,58.06,0,0,0,3.2757,19.4991,52.1294,52.1294,0,0,0,8.836,15.224,23.1769,23.1769,0,0,0,11.0164,7.3538c.0293.0085.0587.0184.088.0268,1.2274.3725,16.1638,4.1115,23.195-1.3079,6.2419-4.8113-5.3149-33.4618-8.922-40.6349-2.8031-5.5761-5.7889-11.1126-7.0508-14.5172-2.9118-7.8518-2.75-15.0222-5.14-24.1213a4.31,4.31,0,0,0-2.2741-2.9992C116.5982,137.7577,110.4387,144.78,109.3759,146.0952Z"/><path class="d" d="M76.1068,163.7249c7.5462,1.9344,19.8428,3.2663,37.1582,2.3788,11.2989-.58-15.46-17.6889-15.46-17.6889s-7.3377,7.3383-22.013,7.9591"/><path class="e" d="M121.0781,8a6.0086,6.0086,0,0,0-5.9218,5.0156l-3.68,22.1016a93.7455,93.7455,0,0,0-15.6406,4.1641L81.6172,22.0078a5.9838,5.9838,0,0,0-7.6329-1.3828L62.0157,27.539a5.9793,5.9793,0,0,0-2.6173,7.2891L67.2578,55.82a94.9088,94.9088,0,0,0-11.43,11.4376l-21-7.8594a5.9793,5.9793,0,0,0-7.2891,2.6173L20.625,73.9843a5.9838,5.9838,0,0,0,1.3828,7.6329L39.2813,95.8359a93.7455,93.7455,0,0,0-4.1641,15.6406l-22.1016,3.68A6.0167,6.0167,0,0,0,8,121.086v13.8359a6.0086,6.0086,0,0,0,5.0156,5.9218l22.1016,3.68a93.72,93.72,0,0,0,4.1641,15.64L22.0078,174.3831a5.9982,5.9982,0,0,0-1.3828,7.6331l6.914,11.9676a5.9786,5.9786,0,0,0,7.2891,2.6173l20.9921-7.859a94.9112,94.9112,0,0,0,11.4376,11.43l-7.8594,20.9835a5.998,5.998,0,0,0,2.6173,7.2973l11.9686,6.9136a6.0115,6.0115,0,0,0,7.6329-1.3827l10.3046-12.515c-8-10.6822-12.4821-20.72-12.6953-38.3436,0-.3414.0177-.6829.0234-1.0243a72.8357,72.8357,0,1,1,98.1949-.6477c3.0109,9.79,3.78,23.5909,3.5866,34.5073-.08,4.5079,1.2148,8.1354,3.0081,11.9139a5.9731,5.9731,0,0,0,4.4684,3.3284,4.8523,4.8523,0,0,1,.5235.1171l4.9524-2.8585a5.9787,5.9787,0,0,0,2.6173-7.2889l-7.859-20.9933a94.8127,94.8127,0,0,0,11.43-11.4371l20.9835,7.859a5.9965,5.9965,0,0,0,7.2973-2.6173l6.9136-11.9676a6.0118,6.0118,0,0,0-1.3827-7.6331l-17.2656-14.2194a93.6162,93.6162,0,0,0,4.165-15.64l22.1009-3.68A6.0167,6.0167,0,0,0,248,134.914V121.0781a6.0085,6.0085,0,0,0-5.0159-5.9218l-22.1009-3.68a93.6413,93.6413,0,0,0-4.165-15.6406l17.274-14.2187a5.998,5.998,0,0,0,1.3828-7.6329l-6.9136-11.9686a5.9794,5.9794,0,0,0-7.2889-2.6173l-20.9933,7.8594a94.81,94.81,0,0,0-11.4371-11.43l7.859-20.9844a5.9966,5.9966,0,0,0-2.6173-7.2969l-11.9676-6.914a6.0123,6.0123,0,0,0-7.6331,1.3829L160.1637,39.2813a93.72,93.72,0,0,0-15.64-4.1641l-3.68-22.1016A6.0168,6.0168,0,0,0,134.914,8Z"/><path class="e" d="M180.58,240.95c-5.2572-.6038-6.3-1-8.2018-1.9894a42.6255,42.6255,0,0,1-5.2233-3.1605,5.4737,5.4737,0,0,0-2.4183-1.0229,2.77,2.77,0,0,0-1.71.3979,4.5819,4.5819,0,0,0-2.1742,2.9855c-1.2741,5.4505-1.6508,9.85-8.79,9.84H108.95c-23.5137.01-18.8163-10.3633-2.4439-17.6889.5724-.2342.1941-.7915-.1294-1.0356-11.9551-14.1842-18.6342-24.333-18.8981-46.1475a64.56,64.56,0,0,1,1.075-11.7615v-.0042a63.7371,63.7371,0,0,1,9.0385-22.9094l.0049-.0113a65.2213,65.2213,0,0,1,8.78-10.9191c7.68-7.3562,7.6648-20.62,0-28.0063-.0447,0-.0447,0-.0447-.0449-8.4662-6.0522-14.4438-6.754-18.46-6.1268-.652.1-7.3363,1.1846-9.2922-.8013l-.0168-.0171a4.3911,4.3911,0,0,1-1.0186-3.3439,2.39,2.39,0,0,1,.0937-.6009c3.5606-10.9551,13.1262-17.3847,24.364-18.5786a4.183,4.183,0,0,0,1.9511-.6619,55.8923,55.8923,0,0,1,11.9918-6.6283c6.41-2.0845,13.8925-1.45,21.4539,1.1691a27.3264,27.3264,0,0,1,9.9126,5.6758,25.7644,25.7644,0,0,1,6.3647,8.8147,28.2192,28.2192,0,0,1,1.93,12.1245,36.6738,36.6738,0,0,1-.2906,3.9529c-.4487,3.498-1.3094,6.07-1.9937,9.2287-2.27,10.4644-2.6074,18.6507,5.9965,45.08,1.5746,4.8352,5.7552,13.6282,9.7651,25.456,3.334,9.8343,4.1481,24.374,3.9464,35.7433-.08,4.5093,1.2162,8.1382,3.01,11.9167a5.9829,5.9829,0,0,0,4.4712,3.33C185.1979,235.6543,185.1047,241.47,180.58,240.95Z"/><path class="f" d="M98.2554,86.0348c-8.5063.21-13.5289,9.504-13.83,10.7509a2.1877,2.1877,0,0,0,.0289,1.12,1.6067,1.6067,0,0,0,.77.923,1.4193,1.4193,0,0,0,1.0177.0876c.5834-.1124.9493-.2153,1.5767-.309,2.1547-.3219,8.2884.4273,13.4139,1.8008a1.37,1.37,0,0,0,1.684-.9776c1.0847-4.2067,1.281-11.7264-2.9063-13.1915A4.6566,4.6566,0,0,0,98.2554,86.0348Z"/><path class="g" d="M119.2254,89.9781c-4.0976-.0479-4.0889-6.3427,0-6.3644C123.3711,83.6267,123.3754,89.9389,119.2254,89.9781Z"/><path class="g" d="M109.3759,146.0952c-.9271,1.1457-1.8879,2.49-1.8879,2.49-.6938.9708-1.2354,1.7947-1.5976,2.3605l-.0044.0085a54.6162,54.6162,0,0,0-7.7428,19.6261v.0042a55.3062,55.3062,0,0,0-.9211,10.0755,58.06,58.06,0,0,0,3.2757,19.4991,52.1294,52.1294,0,0,0,8.836,15.224,23.1769,23.1769,0,0,0,11.0164,7.3538c.0293.0085.0587.0184.088.0268,1.2274.3725,16.1638,4.1115,23.195-1.3079,6.2419-4.8113-5.3149-33.4618-8.922-40.6349-2.8031-5.5761-5.7889-11.1126-7.0508-14.5172-2.9118-7.8518-2.75-15.0222-5.14-24.1213a4.31,4.31,0,0,0-2.2741-2.9992C116.5982,137.7577,110.4387,144.78,109.3759,146.0952Z"/><path class="h" d="M121.0781,8a6.0086,6.0086,0,0,0-5.9218,5.0156l-3.68,22.1016a93.7455,93.7455,0,0,0-15.6406,4.1641L81.6172,22.0078a5.9838,5.9838,0,0,0-7.6329-1.3828L62.0157,27.539a5.9793,5.9793,0,0,0-2.6173,7.2891L67.2578,55.82a94.9088,94.9088,0,0,0-11.43,11.4376l-21-7.8594a5.9793,5.9793,0,0,0-7.2891,2.6173L20.625,73.9843a5.9838,5.9838,0,0,0,1.3828,7.6329L39.2813,95.8359a93.7455,93.7455,0,0,0-4.1641,15.6406l-22.1016,3.68A6.0167,6.0167,0,0,0,8,121.086v13.8359a6.0086,6.0086,0,0,0,5.0156,5.9218l22.1016,3.68a93.72,93.72,0,0,0,4.1641,15.64L22.0078,174.3831a5.9982,5.9982,0,0,0-1.3828,7.6331l6.914,11.9676a5.9786,5.9786,0,0,0,7.2891,2.6173l20.9921-7.859a94.9112,94.9112,0,0,0,11.4376,11.43l-7.8594,20.9835a5.998,5.998,0,0,0,2.6173,7.2973l11.9686,6.9136a6.0115,6.0115,0,0,0,7.6329-1.3827l10.3046-12.515c-8-10.6822-12.4821-20.72-12.6953-38.3436,0-.3414.0177-.6829.0234-1.0243a72.8357,72.8357,0,1,1,98.1949-.6477c3.0109,9.79,3.78,23.5909,3.5866,34.5073-.08,4.5079,1.2148,8.1354,3.0081,11.9139a5.9731,5.9731,0,0,0,4.4684,3.3284,4.8523,4.8523,0,0,1,.5235.1171l4.9524-2.8585a5.9787,5.9787,0,0,0,2.6173-7.2889l-7.859-20.9933a94.8127,94.8127,0,0,0,11.43-11.4371l20.9835,7.859a5.9965,5.9965,0,0,0,7.2973-2.6173l6.9136-11.9676a6.0118,6.0118,0,0,0-1.3827-7.6331l-17.2656-14.2194a93.6162,93.6162,0,0,0,4.165-15.64l22.1009-3.68A6.0167,6.0167,0,0,0,248,134.914V121.0781a6.0085,6.0085,0,0,0-5.0159-5.9218l-22.1009-3.68a93.6413,93.6413,0,0,0-4.165-15.6406l17.274-14.2187a5.998,5.998,0,0,0,1.3828-7.6329l-6.9136-11.9686a5.9794,5.9794,0,0,0-7.2889-2.6173l-20.9933,7.8594a94.81,94.81,0,0,0-11.4371-11.43l7.859-20.9844a5.9966,5.9966,0,0,0-2.6173-7.2969l-11.9676-6.914a6.0123,6.0123,0,0,0-7.6331,1.3829L160.1637,39.2813a93.72,93.72,0,0,0-15.64-4.1641l-3.68-22.1016A6.0168,6.0168,0,0,0,134.914,8Z"/><g class="i"><path class="h" d="M0-.2661H256V128H0Z"/><path class="j" d="M0,128H256V256H0Z"/></g><path class="h" d="M180.58,240.95c-5.2572-.6038-6.3-1-8.2018-1.9894a42.6255,42.6255,0,0,1-5.2233-3.1605,5.4737,5.4737,0,0,0-2.4183-1.0229,2.77,2.77,0,0,0-1.71.3979,4.5819,4.5819,0,0,0-2.1742,2.9855c-1.2741,5.4505-1.6508,9.85-8.79,9.84H108.95c-23.5137.01-18.8163-10.3633-2.4439-17.6889.5724-.2342.1941-.7915-.1294-1.0356-11.9551-14.1842-18.6342-24.333-18.8981-46.1475a64.56,64.56,0,0,1,1.075-11.7615v-.0042a63.7371,63.7371,0,0,1,9.0385-22.9094l.0049-.0113a65.2213,65.2213,0,0,1,8.78-10.9191c7.68-7.3562,7.6648-20.62,0-28.0063-.0447,0-.0447,0-.0447-.0449-8.4662-6.0522-14.4438-6.754-18.46-6.1268-.652.1-7.3363,1.1846-9.2922-.8013l-.0168-.0171a4.3911,4.3911,0,0,1-1.0186-3.3439,2.39,2.39,0,0,1,.0937-.6009c3.5606-10.9551,13.1262-17.3847,24.364-18.5786a4.183,4.183,0,0,0,1.9511-.6619,55.8923,55.8923,0,0,1,11.9918-6.6283c6.41-2.0845,13.8925-1.45,21.4539,1.1691a27.3264,27.3264,0,0,1,9.9126,5.6758,25.7644,25.7644,0,0,1,6.3647,8.8147,28.2192,28.2192,0,0,1,1.93,12.1245,36.6738,36.6738,0,0,1-.2906,3.9529c-.4487,3.498-1.3094,6.07-1.9937,9.2287-2.27,10.4644-2.6074,18.6507,5.9965,45.08,1.5746,4.8352,5.7552,13.6282,9.7651,25.456,3.334,9.8343,4.1481,24.374,3.9464,35.7433-.08,4.5093,1.2162,8.1382,3.01,11.9167a5.9829,5.9829,0,0,0,4.4712,3.33C185.1979,235.6543,185.1047,241.47,180.58,240.95Z"/><g class="k"><path class="h" d="M0,0H256V101.6981H0Z"/><path class="j" d="M0,128.2661H256V256.2667H0Z"/><path class="h" d="M0,192.4571H256v63.81H0Z"/></g><g class="l"><path class="g" d="M98.2554,86.0348c-8.5063.21-13.5289,9.504-13.83,10.7509a2.1877,2.1877,0,0,0,.0289,1.12,1.6067,1.6067,0,0,0,.77.923,1.4193,1.4193,0,0,0,1.0177.0876c.5834-.1124.9493-.2153,1.5767-.309,2.1547-.3219,8.2884.4273,13.4139,1.8008a1.37,1.37,0,0,0,1.684-.9776c1.0847-4.2067,1.281-11.7264-2.9063-13.1915A4.6566,4.6566,0,0,0,98.2554,86.0348Z"/><path class="g" d="M119.2254,89.9781c-4.0976-.0479-4.0889-6.3427,0-6.3644C123.3711,83.6267,123.3754,89.9389,119.2254,89.9781Z"/><path class="g" d="M109.3759,146.0952c-.9271,1.1457-1.8879,2.49-1.8879,2.49-.6938.9708-1.2354,1.7947-1.5976,2.3605l-.0044.0085a54.6162,54.6162,0,0,0-7.7428,19.6261v.0042a55.3062,55.3062,0,0,0-.9211,10.0755,58.06,58.06,0,0,0,3.2757,19.4991,52.1294,52.1294,0,0,0,8.836,15.224,23.1769,23.1769,0,0,0,11.0164,7.3538c.0293.0085.0587.0184.088.0268,1.2274.3725,16.1638,4.1115,23.195-1.3079,6.2419-4.8113-5.3149-33.4618-8.922-40.6349-2.8031-5.5761-5.7889-11.1126-7.0508-14.5172-2.9118-7.8518-2.75-15.0222-5.14-24.1213a4.31,4.31,0,0,0-2.2741-2.9992C116.5982,137.7577,110.4387,144.78,109.3759,146.0952Z"/></g></svg>