<?xml version="1.0" encoding="UTF-8" standalone="no"?>
<!DOCTYPE svg PUBLIC "-//W3C//DTD SVG 1.1//EN" "http://www.w3.org/Graphics/SVG/1.1/DTD/svg11.dtd">
<!-- Created with Vectornator (http://vectornator.io/) -->
<svg height="100%" stroke-miterlimit="10" style="fill-rule:nonzero;clip-rule:evenodd;stroke-linecap:round;stroke-linejoin:round;" version="1.1" viewBox="0 0 141.75 141.75" width="100%" xml:space="preserve" xmlns="http://www.w3.org/2000/svg" xmlns:vectornator="http://vectornator.io" xmlns:xlink="http://www.w3.org/1999/xlink">
<defs>
<linearGradient gradientTransform="matrix(0.507937 0 0 0.507937 -189.189 -189.189)" gradientUnits="userSpaceOnUse" id="LinearGradient" x1="429.172" x2="559.439" y1="425.815" y2="601.673">
<stop offset="0" stop-color="#f6b4ff"/>
<stop offset="1" stop-color="#e85fd1"/>
</linearGradient>
</defs>
<g id="Layer-2" vectornator:layerName="Layer 2" visibility="hidden">
<path d="M7.10543e-15 7.10543e-15L141.75 7.10543e-15L141.75 141.75L7.10543e-15 141.75L7.10543e-15 7.10543e-15Z" fill="#000000" fill-opacity="0.8" fill-rule="nonzero" opacity="1" stroke="none"/>
</g>
<g id="Layer-1" vectornator:layerName="Layer 1">
<path d="M67.3512 9.9225C65.8611 9.92353 64.5974 10.9925 64.3512 12.4622L62.4782 23.7003C59.774 24.175 57.1238 24.8787 54.5416 25.8114L47.3194 17.0336C46.3743 15.8801 44.7202 15.5866 43.4305 16.3352L37.367 19.8432C36.0765 20.5848 35.5097 22.1484 36.0337 23.5416L40.0178 34.2083C37.9208 35.9761 35.9747 37.9197 34.2083 40.0178L23.5416 36.0337C22.1484 35.5097 20.5848 36.0605 19.8432 37.3511L16.3352 43.4305C15.5865 44.7202 15.8801 46.3743 17.0336 47.3194L25.8114 54.5416C24.8787 57.1239 24.175 59.774 23.7003 62.4782L12.4622 64.3512C10.992 64.5993 9.92332 65.8761 9.9225 67.3671L9.9225 74.3829C9.92354 75.8731 10.9925 77.1526 12.4622 77.3988L23.7003 79.2718C24.1749 81.9759 24.8786 84.6262 25.8114 87.2084L17.0336 94.4306C15.8828 95.3773 15.5897 97.0293 16.3352 98.3195L19.8432 104.383C20.5847 105.674 22.1484 106.24 23.5416 105.716L34.2083 101.732C35.9761 103.829 37.9196 105.759 40.0178 107.526L36.0337 118.193C35.5115 119.587 36.0776 121.146 37.367 121.891L43.4305 125.415C44.7212 126.157 46.3712 125.849 47.3194 124.7L52.5416 118.351C48.4781 112.925 46.2055 107.827 46.0972 98.8751C46.0972 98.7016 46.1101 98.5247 46.113 98.3512C34.7653 88.1314 30.8611 71.991 36.2876 57.7162C41.7142 43.4415 55.35 33.9756 70.621 33.8749C85.8921 33.7742 99.6575 43.054 105.272 57.2559C110.886 71.4579 107.198 87.6493 95.9862 98.0179C97.5155 102.991 97.9098 110.013 97.8116 115.558C97.7709 117.847 98.4245 119.686 99.3354 121.605C99.7667 122.509 100.616 123.133 101.605 123.288C101.695 123.303 101.788 123.327 101.875 123.351L104.383 121.907C105.674 121.165 106.24 119.602 105.716 118.208L101.732 107.542C103.829 105.774 105.775 103.83 107.542 101.732L118.193 105.716C119.587 106.239 121.147 105.673 121.891 104.383L125.415 98.3195C126.157 97.0287 125.849 95.3789 124.701 94.4306L115.939 87.2084C116.872 84.6264 117.575 81.9761 118.05 79.2718L129.272 77.3988C130.742 77.1508 131.827 75.874 131.827 74.3829L131.827 67.3512C131.826 65.861 130.742 64.5974 129.272 64.3512L118.05 62.4782C117.575 59.7739 116.872 57.1238 115.939 54.5416L124.716 47.3194C125.867 46.3727 126.16 44.7207 125.415 43.4305L121.907 37.3511C121.165 36.0607 119.602 35.5098 118.208 36.0337L107.542 40.0178C105.774 37.9207 103.83 35.9745 101.732 34.2083L105.716 23.5574C106.239 22.1631 105.673 20.5876 104.383 19.8432L98.3195 16.3352C97.0287 15.5928 95.3789 15.8855 94.4306 17.0336L87.2084 25.8114C84.6263 24.8786 81.9759 24.175 79.2718 23.7003L77.3988 12.4622C77.1507 10.992 75.8739 9.92329 74.3829 9.9225L67.3512 9.9225ZM69.9861 42.1924C68.1489 42.0779 66.3759 42.2662 64.748 42.7956C62.5873 43.6638 60.5532 44.7928 58.6686 46.1607C58.3715 46.3537 58.0218 46.4663 57.6686 46.494C51.9605 47.1004 47.0962 50.374 45.2876 55.9385C45.2588 56.0378 45.2428 56.1367 45.24 56.24C45.17 56.8534 45.3637 57.4683 45.7638 57.9385L45.7797 57.9385C46.7732 58.9472 50.1628 58.402 50.494 58.3512C52.534 58.0326 55.5747 58.3881 59.875 61.4623C59.875 61.4851 59.8681 61.494 59.8909 61.494C63.7841 65.2458 63.7918 71.9798 59.8909 75.7163C58.2094 77.3995 56.7136 79.2525 55.4305 81.256L55.4305 81.2718C53.1582 84.8153 51.6025 88.7664 50.8432 92.9068C50.4791 94.8773 50.2868 96.8712 50.2877 98.8751C50.4217 109.955 53.8184 115.115 59.8909 122.32C60.0552 122.444 60.2451 122.724 59.9543 122.843C51.6382 126.564 49.249 131.833 61.1924 131.827L83.0972 131.827C86.7235 131.833 86.9104 129.596 87.5576 126.827C87.6966 126.189 88.1041 125.648 88.6687 125.32C88.9286 125.16 89.2379 125.085 89.5417 125.113C89.9873 125.184 90.4027 125.367 90.7639 125.637C91.6088 126.235 92.4931 126.769 93.4147 127.24C94.3807 127.743 94.919 127.933 97.5893 128.24C99.8876 128.504 99.9222 125.564 97.5417 125.335C96.5522 125.18 95.7039 124.541 95.2719 123.637C94.3608 121.718 93.7074 119.88 93.7481 117.589C93.8506 111.814 93.4415 104.426 91.7481 99.4306C89.7113 93.4228 87.5796 88.9501 86.7798 86.4941C82.4095 73.0696 82.5791 68.9204 83.7322 63.6051C84.0797 62.0007 84.5201 60.6835 84.748 58.9067C84.8334 58.2406 84.8779 57.5782 84.8909 56.9067C85.02 54.8068 84.6974 52.704 83.9226 50.748C83.1758 49.0425 82.0684 47.5173 80.6845 46.2718C79.228 44.9668 77.5155 43.9784 75.6528 43.3829C73.7324 42.7177 71.8233 42.3069 69.9861 42.1924Z" fill="#ffffff" fill-opacity="0.8" fill-rule="nonzero" opacity="1" stroke="#ffffff" stroke-linecap="round" stroke-linejoin="round" stroke-width="6"/>
<path d="M67.3512 9.9225C65.8611 9.92353 64.5974 10.9925 64.3512 12.4622L62.4782 23.7003C59.774 24.175 57.1238 24.8787 54.5416 25.8114L47.3194 17.0336C46.3743 15.8801 44.7202 15.5866 43.4305 16.3352L37.367 19.8432C36.0765 20.5848 35.5097 22.1484 36.0337 23.5416L40.0178 34.2083C37.9208 35.9761 35.9747 37.9197 34.2083 40.0178L23.5416 36.0337C22.1484 35.5097 20.5848 36.0605 19.8432 37.3511L16.3352 43.4305C15.5865 44.7202 15.8801 46.3743 17.0336 47.3194L25.8114 54.5416C24.8787 57.1239 24.175 59.774 23.7003 62.4782L12.4622 64.3512C10.992 64.5993 9.92332 65.8761 9.9225 67.3671L9.9225 74.3829C9.92354 75.8731 10.9925 77.1526 12.4622 77.3988L23.7003 79.2718C24.1749 81.9759 24.8786 84.6262 25.8114 87.2084L17.0336 94.4306C15.8828 95.3773 15.5897 97.0293 16.3352 98.3195L19.8432 104.383C20.5847 105.674 22.1484 106.24 23.5416 105.716L34.2083 101.732C35.9761 103.829 37.9196 105.759 40.0178 107.526L36.0337 118.193C35.5115 119.587 36.0776 121.146 37.367 121.891L43.4305 125.415C44.7212 126.157 46.3712 125.849 47.3194 124.7L52.5416 118.351C48.4781 112.925 46.2055 107.827 46.0972 98.8751C46.0972 98.7016 46.1101 98.5247 46.113 98.3512C34.7653 88.1314 30.8611 71.991 36.2876 57.7162C41.7142 43.4415 55.35 33.9756 70.621 33.8749C85.8921 33.7742 99.6575 43.054 105.272 57.2559C110.886 71.4579 107.198 87.6493 95.9862 98.0179C97.5155 102.991 97.9098 110.013 97.8116 115.558C97.7709 117.847 98.4245 119.686 99.3354 121.605C99.7667 122.509 100.616 123.133 101.605 123.288C101.695 123.303 101.788 123.327 101.875 123.351L104.383 121.907C105.674 121.165 106.24 119.602 105.716 118.208L101.732 107.542C103.829 105.774 105.775 103.83 107.542 101.732L118.193 105.716C119.587 106.239 121.147 105.673 121.891 104.383L125.415 98.3195C126.157 97.0287 125.849 95.3789 124.701 94.4306L115.939 87.2084C116.872 84.6264 117.575 81.9761 118.05 79.2718L129.272 77.3988C130.742 77.1508 131.827 75.874 131.827 74.3829L131.827 67.3512C131.826 65.861 130.742 64.5974 129.272 64.3512L118.05 62.4782C117.575 59.7739 116.872 57.1238 115.939 54.5416L124.716 47.3194C125.867 46.3727 126.16 44.7207 125.415 43.4305L121.907 37.3511C121.165 36.0607 119.602 35.5098 118.208 36.0337L107.542 40.0178C105.774 37.9207 103.83 35.9745 101.732 34.2083L105.716 23.5574C106.239 22.1631 105.673 20.5876 104.383 19.8432L98.3195 16.3352C97.0287 15.5928 95.3789 15.8855 94.4306 17.0336L87.2084 25.8114C84.6263 24.8786 81.9759 24.175 79.2718 23.7003L77.3988 12.4622C77.1507 10.992 75.8739 9.92329 74.3829 9.9225L67.3512 9.9225ZM69.9861 42.1924C68.1489 42.0779 66.3759 42.2662 64.748 42.7956C62.5873 43.6638 60.5532 44.7928 58.6686 46.1607C58.3715 46.3537 58.0218 46.4663 57.6686 46.494C51.9605 47.1004 47.0962 50.374 45.2876 55.9385C45.2588 56.0378 45.2428 56.1367 45.24 56.24C45.17 56.8534 45.3637 57.4683 45.7638 57.9385L45.7797 57.9385C46.7732 58.9472 50.1628 58.402 50.494 58.3512C52.534 58.0326 55.5747 58.3881 59.875 61.4623C59.875 61.4851 59.8681 61.494 59.8909 61.494C63.7841 65.2458 63.7918 71.9798 59.8909 75.7163C58.2094 77.3995 56.7136 79.2525 55.4305 81.256L55.4305 81.2718C53.1582 84.8153 51.6025 88.7664 50.8432 92.9068C50.4791 94.8773 50.2868 96.8712 50.2877 98.8751C50.4217 109.955 53.8184 115.115 59.8909 122.32C60.0552 122.444 60.2451 122.724 59.9543 122.843C51.6382 126.564 49.249 131.833 61.1924 131.827L83.0972 131.827C86.7235 131.833 86.9104 129.596 87.5576 126.827C87.6966 126.189 88.1041 125.648 88.6687 125.32C88.9286 125.16 89.2379 125.085 89.5417 125.113C89.9873 125.184 90.4027 125.367 90.7639 125.637C91.6088 126.235 92.4931 126.769 93.4147 127.24C94.3807 127.743 94.919 127.933 97.5893 128.24C99.8876 128.504 99.9222 125.564 97.5417 125.335C96.5522 125.18 95.7039 124.541 95.2719 123.637C94.3608 121.718 93.7074 119.88 93.7481 117.589C93.8506 111.814 93.4415 104.426 91.7481 99.4306C89.7113 93.4228 87.5796 88.9501 86.7798 86.4941C82.4095 73.0696 82.5791 68.9204 83.7322 63.6051C84.0797 62.0007 84.5201 60.6835 84.748 58.9067C84.8334 58.2406 84.8779 57.5782 84.8909 56.9067C85.02 54.8068 84.6974 52.704 83.9226 50.748C83.1758 49.0425 82.0684 47.5173 80.6845 46.2718C79.228 44.9668 77.5155 43.9784 75.6528 43.3829C73.7324 42.7177 71.8233 42.3069 69.9861 42.1924Z" fill="url(#LinearGradient)" fill-rule="nonzero" opacity="1" stroke="none"/>
</g>
</svg>
