<?xml version="1.0" encoding="UTF-8" standalone="no"?>
<!DOCTYPE svg PUBLIC "-//W3C//DTD SVG 1.1//EN" "http://www.w3.org/Graphics/SVG/1.1/DTD/svg11.dtd">
<!-- Created with Vectornator (http://vectornator.io/) -->
<svg height="100%" stroke-miterlimit="10" style="fill-rule:nonzero;clip-rule:evenodd;stroke-linecap:round;stroke-linejoin:round;" version="1.1" viewBox="0 0 1024 257.406" width="100%" xml:space="preserve" xmlns="http://www.w3.org/2000/svg" xmlns:vectornator="http://vectornator.io" xmlns:xlink="http://www.w3.org/1999/xlink">
<defs>
<linearGradient gradientTransform="matrix(13.4356 0 0 13.4356 -1967.85 -3258.46)" gradientUnits="userSpaceOnUse" id="LinearGradient" x1="150.873" x2="187.416" y1="246.936" y2="252.936">
<stop offset="0" stop-color="#5897ff" stop-opacity="0.8"/>
<stop offset="1" stop-color="#0060ff" stop-opacity="0.8"/>
</linearGradient>
<linearGradient gradientTransform="matrix(13.4356 0 0 13.4356 -1967.85 -3258.46)" gradientUnits="userSpaceOnUse" id="LinearGradient_2" x1="150.873" x2="187.416" y1="246.936" y2="252.936">
<stop offset="0" stop-color="#5897ff" stop-opacity="0.8"/>
<stop offset="1" stop-color="#0060ff" stop-opacity="0.8"/>
</linearGradient>
<linearGradient gradientTransform="matrix(13.4356 0 0 13.4356 -1967.85 -3258.46)" gradientUnits="userSpaceOnUse" id="LinearGradient_3" x1="150.873" x2="187.416" y1="246.936" y2="252.936">
<stop offset="0" stop-color="#5897ff" stop-opacity="0.8"/>
<stop offset="1" stop-color="#0060ff" stop-opacity="0.8"/>
</linearGradient>
<linearGradient gradientTransform="matrix(13.4356 0 0 13.4356 -1967.85 -3258.46)" gradientUnits="userSpaceOnUse" id="LinearGradient_4" x1="150.873" x2="187.416" y1="246.936" y2="252.936">
<stop offset="0" stop-color="#5897ff" stop-opacity="0.8"/>
<stop offset="1" stop-color="#0060ff" stop-opacity="0.8"/>
</linearGradient>
<linearGradient gradientTransform="matrix(13.4356 0 0 13.4356 -1967.85 -3258.46)" gradientUnits="userSpaceOnUse" id="LinearGradient_5" x1="150.873" x2="187.416" y1="246.936" y2="252.936">
<stop offset="0" stop-color="#5897ff" stop-opacity="0.8"/>
<stop offset="1" stop-color="#0060ff" stop-opacity="0.8"/>
</linearGradient>
<linearGradient gradientTransform="matrix(13.4356 0 0 13.4356 -1967.85 -3258.46)" gradientUnits="userSpaceOnUse" id="LinearGradient_6" x1="150.873" x2="187.416" y1="246.936" y2="252.936">
<stop offset="0" stop-color="#5897ff" stop-opacity="0.8"/>
<stop offset="1" stop-color="#0060ff" stop-opacity="0.8"/>
</linearGradient>
<linearGradient gradientTransform="matrix(13.4356 0 0 13.4356 -1967.85 -3258.46)" gradientUnits="userSpaceOnUse" id="LinearGradient_7" x1="150.873" x2="187.416" y1="246.936" y2="252.936">
<stop offset="0" stop-color="#5897ff" stop-opacity="0.8"/>
<stop offset="1" stop-color="#0060ff" stop-opacity="0.8"/>
</linearGradient>
<linearGradient gradientTransform="matrix(13.4356 0 0 13.4356 -1967.85 -3258.46)" gradientUnits="userSpaceOnUse" id="LinearGradient_8" x1="150.873" x2="187.416" y1="246.936" y2="252.936">
<stop offset="0" stop-color="#5897ff" stop-opacity="0.8"/>
<stop offset="1" stop-color="#0060ff" stop-opacity="0.8"/>
</linearGradient>
</defs>
<g id="Layer-1" vectornator:layerName="Layer 1">
<g opacity="1">
<path d="M128.816 166.753L134.405 134.722L104.847 134.722L99.1504 166.753L81.3079 166.753L94.7435 90.6533L112.586 90.6533L107.427 119.567L137.093 119.567L142.144 90.6533L160.094 90.6533L146.659 166.753L128.816 166.753Z" fill="url(#LinearGradient)" fill-rule="nonzero" opacity="1" stroke="none"/>
<path d="M202.981 166.753L216.416 90.6533L234.366 90.6533L220.931 166.753L202.981 166.753Z" fill="url(#LinearGradient_2)" fill-rule="nonzero" opacity="1" stroke="none"/>
<path d="M318.635 106.024L307.886 166.753L290.044 166.753L300.685 106.024L279.403 106.024L282.197 90.6533L342.174 90.6533L339.487 106.024L318.635 106.024Z" fill="url(#LinearGradient_3)" fill-rule="nonzero" opacity="1" stroke="none"/>
<path d="M425.69 109.141C424.256 107.206 422.465 105.737 420.315 104.734C418.166 103.731 415.765 103.229 413.114 103.229C411.896 103.229 410.606 103.39 409.244 103.713C407.883 104.035 406.647 104.573 405.536 105.325C404.426 106.077 403.494 107.027 402.742 108.173C401.989 109.32 401.613 110.717 401.613 112.365C401.613 114.515 402.455 116.217 404.139 117.471C405.823 118.725 408.17 119.889 411.179 120.964C414.475 122.111 417.413 123.382 419.993 124.78C422.573 126.177 424.758 127.771 426.549 129.563C428.341 131.354 429.702 133.379 430.634 135.636C431.565 137.893 432.031 140.455 432.031 143.321C432.031 147.907 431.082 151.812 429.183 155.037C427.284 158.261 424.83 160.895 421.82 162.937C418.811 164.979 415.443 166.466 411.717 167.398C407.99 168.329 404.3 168.795 400.646 168.795C397.923 168.795 395.2 168.544 392.477 168.042C389.754 167.541 387.138 166.806 384.63 165.839C382.122 164.872 379.794 163.636 377.644 162.131C375.494 160.626 373.667 158.906 372.162 156.972L385.383 146.223C386.888 148.516 389.109 150.379 392.047 151.812C394.985 153.245 397.958 153.962 400.968 153.962C402.545 153.962 404.067 153.801 405.536 153.478C407.005 153.156 408.313 152.618 409.459 151.866C410.606 151.114 411.52 150.146 412.2 148.964C412.881 147.782 413.221 146.366 413.221 144.718C413.221 142.067 412.147 139.971 409.997 138.43C407.847 136.89 404.981 135.51 401.398 134.292C398.89 133.432 396.543 132.465 394.358 131.39C392.172 130.315 390.273 128.99 388.661 127.413C387.049 125.837 385.759 123.956 384.792 121.77C383.824 119.585 383.341 116.951 383.341 113.87C383.341 110.001 384.147 106.507 385.759 103.39C387.371 100.273 389.575 97.6219 392.369 95.4364C395.164 93.2509 398.424 91.5669 402.15 90.3846C405.877 89.2023 409.853 88.6111 414.081 88.6111C416.303 88.6111 418.56 88.8261 420.853 89.256C423.146 89.6859 425.349 90.3129 427.463 91.137C429.577 91.961 431.53 92.9822 433.321 94.2003C435.112 95.4185 436.617 96.8158 437.835 98.3922L425.69 109.141Z" fill="url(#LinearGradient_4)" fill-rule="nonzero" opacity="1" stroke="none"/>
<path d="M474.81 166.753L477.497 151.275L521.781 105.916L488.783 105.916L491.47 90.6533L547.792 90.6533L545.213 105.056L500.392 151.167L538.119 151.167L535.324 166.753L474.81 166.753Z" fill="url(#LinearGradient_5)" fill-rule="nonzero" opacity="1" stroke="none"/>
<path d="M654.203 166.753L667.638 90.6533L685.588 90.6533L674.84 151.167L704.72 151.167L701.926 166.753L654.203 166.753Z" fill="url(#LinearGradient_6)" fill-rule="nonzero" opacity="1" stroke="none"/>
<path d="M816.505 138.807C815.717 143.321 814.427 147.423 812.635 151.114C810.844 154.804 808.497 157.939 805.595 160.519C802.693 163.098 799.236 165.105 795.223 166.538C791.21 167.971 786.588 168.687 781.357 168.687C776.771 168.687 772.633 168.132 768.943 167.021C765.252 165.911 762.1 164.334 759.484 162.292C756.869 160.25 754.862 157.76 753.465 154.822C752.068 151.884 751.369 148.588 751.369 144.933C751.369 143.93 751.423 142.855 751.53 141.709C751.638 140.562 751.763 139.451 751.906 138.377L760.29 90.6533L778.025 90.6533L769.856 136.764C769.713 137.481 769.623 138.233 769.588 139.022C769.552 139.81 769.534 140.526 769.534 141.171C769.534 142.748 769.767 144.252 770.233 145.686C770.698 147.119 771.433 148.391 772.436 149.501C773.439 150.612 774.765 151.49 776.413 152.135C778.061 152.78 780.032 153.102 782.325 153.102C785.334 153.102 787.824 152.618 789.795 151.651C791.765 150.684 793.378 149.43 794.632 147.889C795.886 146.348 796.835 144.629 797.48 142.73C798.125 140.831 798.626 138.914 798.985 136.979L807.261 90.6533L824.889 90.6533L816.505 138.807Z" fill="url(#LinearGradient_7)" fill-rule="nonzero" opacity="1" stroke="none"/>
<path d="M908.404 153.21C910.554 153.138 912.543 152.941 914.37 152.618C916.197 152.296 917.899 151.741 919.475 150.952L921.948 136.657L907.115 136.657L909.802 121.931L941.08 121.931L934.093 162.131C930.224 164.137 925.871 165.749 921.034 166.968C916.197 168.186 911.199 168.795 906.04 168.795C900.594 168.795 895.632 168.025 891.153 166.484C886.675 164.943 882.859 162.74 879.706 159.874C876.553 157.007 874.099 153.532 872.343 149.448C870.588 145.363 869.71 140.777 869.71 135.689C869.71 129.169 870.838 123.042 873.096 117.31C875.353 111.577 878.506 106.579 882.554 102.315C886.603 98.0519 891.368 94.7019 896.85 92.2656C902.332 89.8293 908.297 88.6111 914.746 88.6111C920.765 88.6111 926.229 89.5605 931.137 91.4594C936.046 93.3583 939.897 96.1709 942.692 99.897L929.686 111.613C928.253 109.535 926.301 107.797 923.828 106.4C921.356 105.003 918.221 104.304 914.424 104.304C910.697 104.304 907.24 105.092 904.051 106.669C900.863 108.245 898.104 110.377 895.775 113.064C893.446 115.751 891.619 118.868 890.293 122.415C888.968 125.962 888.305 129.706 888.305 133.647C888.305 136.442 888.735 139.039 889.595 141.44C890.454 143.84 891.744 145.918 893.464 147.674C895.184 149.43 897.298 150.791 899.806 151.758C902.314 152.726 905.18 153.21 908.404 153.21Z" fill="url(#LinearGradient_8)" fill-rule="nonzero" opacity="1" stroke="none"/>
</g>
</g>
</svg>
